<svg width="97" height="46" viewBox="0 0 97 46" fill="none" xmlns="http://www.w3.org/2000/svg">
<g id="Group 227">
<g id="Group">
<path id="Vector" d="M0.0633039 27.116C0.170363 27.1339 0.281887 27.1339 0.380025 27.1696C1.67812 27.6424 2.9762 28.1197 4.27429 28.5925C5.06831 28.878 5.87126 29.1368 6.66082 29.4312C7.53067 29.7524 8.3916 30.1047 9.26145 30.4304C10.0733 30.7337 10.8941 31.0237 11.7104 31.3225C12.6517 31.666 13.5884 32.0274 14.5386 32.3575C15.1854 32.585 15.8411 32.7723 16.4924 32.973C16.5549 32.9909 16.6307 32.9686 16.6842 32.9686C16.6129 32.3218 16.5236 31.6928 16.479 31.0638C16.3586 29.3866 16.4389 27.7138 16.9162 26.099C17.2507 24.9704 17.6388 23.8463 18.3615 22.8738C18.8343 22.2404 19.267 21.5757 19.6819 20.9021C19.9228 20.5096 20.0789 20.0635 20.2886 19.6531C20.4714 19.2962 20.6722 18.9438 20.8729 18.5959C21.0246 18.3327 21.1986 18.0829 21.3413 17.8153C21.3725 17.7573 21.3413 17.6145 21.2922 17.5699C20.7168 17.0882 20.1369 16.6108 19.5436 16.1514C19.4856 16.1068 19.2938 16.1469 19.218 16.2138C18.8433 16.535 18.4864 16.883 18.1161 17.2175C17.6567 17.6324 17.0857 17.7394 16.5058 17.6948C15.346 17.5967 14.1906 17.4406 13.0308 17.3112C12.9238 17.2978 12.8167 17.2844 12.6428 17.2666C12.732 19.3587 12.8167 21.4107 12.9015 23.4671C12.8747 23.4671 12.8479 23.4715 12.8212 23.4715C12.7721 22.9809 12.723 22.4902 12.674 21.9995C12.4554 19.8137 12.2324 17.6324 12.0227 15.4466C11.987 15.0585 11.8398 14.9336 11.4339 14.8934C9.87259 14.7329 8.31578 14.5187 6.75896 14.3269C6.00509 14.2332 5.24674 14.144 4.49287 14.0459C4.32782 14.0236 4.16723 13.9834 4.00218 13.9522C4.00664 13.9165 4.01111 13.8853 4.01557 13.8496C4.74268 13.8942 5.46979 13.9121 6.19243 13.9834C7.84293 14.1396 9.48896 14.3002 11.1395 14.4875C13.0174 14.7016 14.891 14.9291 16.7645 15.1745C17.4693 15.2681 18.1607 15.4332 18.8566 15.5626C19.7979 15.741 20.5205 16.2852 21.1539 16.9588C21.6357 17.4673 21.6357 17.503 22.1309 17.1149C23.2639 16.2183 24.5664 15.964 25.9671 16.0488C27.2742 16.1291 28.3938 16.6911 29.4555 17.3915C30.5662 18.1231 31.4807 19.0643 32.3149 20.0992C33.2918 21.317 34.1482 22.6106 34.9646 23.9399C36.0485 25.7153 36.7177 27.6469 37.2574 29.6364C37.6143 30.9568 38.0158 32.2682 38.3458 33.5976C38.6313 34.7618 38.8812 35.9395 39.0774 37.126C39.238 38.094 39.2916 39.0754 39.3897 40.0523C39.4477 40.659 39.4432 40.6679 40.0365 40.775C42.539 41.2166 45.046 41.5735 47.5842 41.7787C52.9371 42.2113 58.2945 42.0642 63.6475 42.1043C66.2571 42.1221 68.8399 41.7564 71.4227 41.4396C72.288 41.3326 73.1713 41.3549 74.0233 41.2077C75.5534 40.94 77.0745 40.6099 78.5912 40.2664C79.7867 39.9943 80.9732 39.6866 82.1553 39.3609C83.3107 39.0442 84.4571 38.6918 85.6035 38.3438C86.9596 37.9334 88.3157 37.5141 89.6718 37.0904C90.3364 36.8807 90.9966 36.6443 91.6568 36.4213C91.7104 36.4034 91.7684 36.39 91.8264 36.3722C91.8442 36.4079 91.8665 36.4391 91.8843 36.4748C91.3892 36.7959 90.903 37.1305 90.3944 37.4338C89.538 37.9468 88.6815 38.4643 87.8027 38.9327C87.2228 39.2405 86.6028 39.4769 85.9961 39.7267C85.1352 40.0746 84.2653 40.4092 83.3999 40.7438C82.5122 41.0872 81.6156 41.4173 80.7279 41.7519C79.9026 42.0642 79.0908 42.4076 78.2566 42.6842C77.2262 43.0277 76.1823 43.3533 75.1296 43.6299C74.2062 43.8708 73.2694 44.0849 72.3282 44.2232C70.7535 44.4596 69.17 44.6603 67.5819 44.812C65.6772 44.9949 63.7635 45.1198 61.8498 45.2402C58.3659 45.4633 54.8776 45.5257 51.3892 45.3116C50.0778 45.2313 48.7574 45.2447 47.4503 45.1198C45.4697 44.9325 43.4981 44.6737 41.5264 44.4284C40.4067 44.2901 39.2871 44.1429 38.1763 43.9511C37.2262 43.786 36.2894 43.5541 35.3482 43.3489C34.9334 43.2596 34.523 43.1704 34.0546 43.0678C34.5899 42.7868 35.0984 42.5905 35.5266 42.2827C36.3251 41.7073 37.0968 41.0917 37.8373 40.4449C38.0514 40.2531 38.2522 39.8784 38.2299 39.6107C38.1005 38.1743 38.1228 36.7112 37.6009 35.3328C37.5697 35.248 37.4715 35.1365 37.3957 35.1321C36.3653 35.0428 35.4687 34.6325 34.6389 34.0347C33.8583 33.4727 33.0464 32.9463 32.4219 32.1879C32.0338 31.7151 32.0784 31.2333 32.6093 30.9568C33.3587 30.5687 34.117 30.1984 34.8709 29.8193C34.9556 29.7747 35.0761 29.739 35.1162 29.6631C35.4106 29.1234 35.6917 28.5747 35.9727 28.0305C35.937 27.9993 35.9058 27.968 35.8701 27.9323C35.4329 28.0885 34.9913 28.2401 34.5542 28.3963C34.5452 28.3784 34.5408 28.3606 34.5319 28.3427C34.8263 28.1866 35.1207 28.0216 35.4196 27.8788C35.8523 27.6692 35.9236 27.4952 35.7051 27.1071C35.4865 26.7235 35.2768 26.6922 34.8887 26.9242C34.1215 27.3792 33.3408 27.8074 32.5736 28.2624C32.123 28.5301 31.6324 28.7799 31.271 29.1457C30.99 29.4312 30.8294 29.8728 30.7 30.2698C30.4369 31.0995 30.0131 31.8266 29.4153 32.4556C29.3172 32.5582 29.2369 32.7099 29.2146 32.8481C29.1388 33.3299 29.0763 33.8161 29.0496 34.3024C29.0272 34.6414 29.1075 34.9893 29.0763 35.3284C28.88 37.6614 28.6659 39.9988 28.4652 42.3318C28.4429 42.5905 28.3448 42.6753 28.0726 42.6708C26.5381 42.6485 25.1419 42.2069 23.8126 41.453C22.3361 40.6144 21.0692 39.5393 20.0075 38.2279C19.3161 37.3714 18.7942 36.4123 18.3793 35.3774C17.5095 33.1961 17.282 30.9345 17.4693 28.6282C17.5585 27.5443 17.8217 26.4826 18.2857 25.4745C18.821 24.3102 19.4811 23.2262 20.3555 22.3028C21.203 21.4107 22.1442 20.6077 23.3264 20.1706C24.2765 19.8182 25.2133 19.3587 26.1991 19.1936C27.4615 18.984 28.7685 18.9349 30.0131 19.439C30.2718 19.5416 30.5529 19.5773 30.825 19.6442C30.8517 19.613 30.874 19.5862 30.9008 19.555C30.4547 19.1535 29.9997 18.7565 29.5625 18.3416C28.5276 17.3603 27.3321 17.3469 26.0653 17.7484C25.4006 17.958 24.7137 18.1186 24.0936 18.413C23.3486 18.7699 22.6394 19.2115 21.9614 19.6843C21.4082 20.0724 20.8774 20.5185 20.4224 21.0137C19.8559 21.6292 19.3384 22.2984 18.8745 22.9942C18.4641 23.6098 18.1072 24.2789 17.8306 24.9659C17.5229 25.7376 17.3177 26.5495 17.0991 27.3524C16.6931 28.8602 16.7065 30.3992 16.9117 31.9248C17.0322 32.8035 17.3043 33.6645 17.5273 34.5299C17.6656 35.0652 17.8217 35.5915 17.9912 36.1134C18.1251 36.5328 18.2857 36.9387 18.4329 37.3536C18.4685 37.4517 18.4819 37.5587 18.473 37.7015C12.5223 33.8607 6.58944 30.0155 0.00976562 27.3034C0.023148 27.2186 0.0409999 27.1651 0.0633039 27.116ZM27.1314 19.662C26.9753 19.662 26.8147 19.6353 26.6675 19.6665C25.985 19.8092 25.3025 19.952 24.6289 20.1259C23.3843 20.4427 22.3316 21.1118 21.377 21.9549C20.6543 22.5928 19.8915 23.195 19.441 24.0827C19.1109 24.7384 18.754 25.3808 18.4463 26.0454C17.9779 27.0447 17.8797 28.1242 17.8619 29.2037C17.8351 30.7382 17.8217 32.2727 18.4552 33.7269C18.5399 33.9232 18.6024 34.0169 18.821 33.9232C19.7979 33.5128 20.7792 33.1024 21.7606 32.7009C22.6305 32.3441 23.5048 31.9961 24.3746 31.6393C25.1687 31.3136 25.9627 30.9791 26.7522 30.649C26.7433 30.6177 26.7344 30.5865 26.721 30.5553C26.5783 30.5731 26.4311 30.5776 26.2928 30.6044C25.5701 30.7516 24.852 30.9077 24.1338 31.0638C23.1613 31.269 22.1933 31.4653 21.2209 31.6794C20.98 31.7329 20.8595 31.6393 20.7659 31.4252C20.2395 30.1984 20.2216 28.9137 20.4001 27.629C20.4536 27.2454 20.3198 27.0045 20.1369 26.7369C19.8826 26.3711 19.6373 26.0053 19.3875 25.6395C19.4142 25.6083 19.4365 25.5815 19.4633 25.5503C21.3591 26.5317 23.255 27.5175 25.1464 28.4989C24.7984 28.1152 24.4148 27.7762 24.0356 27.4327C23.6565 27.0937 23.2773 26.7547 22.907 26.4068C22.5502 26.0722 22.2111 25.7198 21.8632 25.3763C21.8944 25.3362 21.9301 25.3005 21.9614 25.2603C23.9464 26.7636 26.0385 28.0929 28.1975 29.3286C28.1128 29.168 28.0102 29.0342 27.8987 28.9003C27.1805 28.0349 26.4088 27.2142 25.7664 26.2997C25.0616 25.296 24.4683 24.212 23.8438 23.1504C23.768 23.0255 23.7635 22.8426 23.7635 22.6865C23.7724 22.1021 24.1739 21.7229 24.5441 21.3616C25.2846 20.63 26.1768 20.126 27.1314 19.662ZM18.812 35.5068C19.0975 36.0198 19.3161 36.4525 19.5659 36.8629C20.1458 37.8219 20.8997 38.6383 21.7606 39.3386C22.5145 39.9542 23.3041 40.5341 24.1293 41.0515C24.7449 41.4352 25.4274 41.7207 26.101 41.9972C26.4132 42.1266 26.779 42.1221 27.1314 42.1846C27.4794 39.0263 27.8184 35.935 28.1574 32.8437C28.1128 32.8348 28.0682 32.8258 28.0236 32.8169C27.3098 35.1053 26.6006 37.3937 25.8735 39.7267C25.4943 39.5036 25.1374 39.294 24.7806 39.0933C23.8394 38.5714 23.1078 37.8353 22.4966 36.961C22.345 36.7469 22.2156 36.4302 22.006 36.3543C21.1763 36.0644 20.3198 35.8458 19.4722 35.6094C19.3072 35.5648 19.1243 35.5559 18.812 35.5068ZM28.6704 20.0635C28.6347 20.0947 28.5946 20.126 28.5589 20.1572C28.6213 20.6657 28.6838 21.1742 28.7418 21.6828C28.9603 23.5608 29.1611 25.4388 29.402 27.3123C29.4778 27.9011 29.6473 28.4766 29.8079 29.052C29.8391 29.1724 30.0042 29.2617 30.1068 29.3643C30.1781 29.2215 30.2897 29.0877 30.3075 28.936C30.4815 27.5978 30.6376 26.2551 30.7982 24.9169C30.9142 23.9533 31.0257 22.9898 31.6814 22.2047C31.8376 22.0173 31.7439 21.9192 31.561 21.8077C30.9989 21.4687 30.4592 21.0939 29.8971 20.7505C29.4956 20.5096 29.0808 20.2955 28.6704 20.0635ZM27.8853 19.9743C27.8987 22.9853 28.4384 25.9161 29.1655 28.82C28.9336 25.8402 28.4875 22.8961 27.8853 19.9743Z" fill="#333333"/>
<path id="Vector_2" d="M15.4204 9.3091C15.7729 9.34925 16.1297 9.40278 16.4821 9.42062C17.9408 9.48307 19.4084 9.48754 20.8626 9.60352C23.1644 9.78641 25.4617 10.0139 27.7545 10.2771C29.5567 10.4823 31.3544 10.7455 33.1432 11.031C35.0792 11.3388 37.0018 11.7224 38.9378 12.0436C40.1823 12.2532 41.4403 12.396 42.6893 12.5967C44.0454 12.8108 45.4059 13.0205 46.7486 13.3015C48.1136 13.587 49.4652 13.935 50.8124 14.3007C51.8875 14.5907 52.9536 14.9119 54.0063 15.2776C55.1215 15.6657 56.2234 16.1118 57.3163 16.5624C58.4493 17.0263 59.5779 17.4947 60.6842 18.0166C61.9287 18.6054 63.1643 19.221 64.3554 19.908C65.1093 20.3451 65.7828 20.9295 66.4832 21.4559C66.7062 21.6209 66.8624 21.8796 66.7107 22.125C66.6036 22.3034 66.3583 22.4685 66.1531 22.5041C65.6624 22.5934 65.1539 22.6513 64.6543 22.638C61.8038 22.58 58.9534 22.5264 56.1074 22.4194C55.0323 22.3792 53.9707 22.1428 52.9491 21.777C52.3291 21.554 51.7046 21.3399 51.089 21.1035C50.3396 20.8135 49.5857 20.5191 48.8496 20.189C47.8906 19.7563 46.9538 19.2879 46.0037 18.8329C45.3212 18.5028 44.6431 18.1772 43.9651 17.8382C43.4387 17.575 42.9257 17.3029 42.4038 17.0307C41.4581 16.5445 40.5169 16.0583 39.5712 15.5676C38.7682 15.1527 37.9742 14.7201 37.1713 14.3097C36.1721 13.7967 35.2085 13.2168 34.129 12.8644C32.9558 12.4807 31.8228 11.9811 30.6541 11.602C29.8779 11.3477 29.0705 11.1514 28.2631 11.031C26.5055 10.7633 24.7391 10.5314 22.9681 10.344C21.3578 10.1745 19.7385 10.0674 18.1192 9.9693C17.0799 9.90239 16.0316 9.90685 14.9878 9.8667C13.9127 9.82655 12.909 10.1879 11.892 10.4555C10.4422 10.8347 9.21103 11.6778 7.91294 12.3781C7.84156 12.4183 7.76126 12.4406 7.57391 12.5164C8.30548 11.2228 9.16196 10.1388 10.0541 8.9567C9.67941 8.90317 9.40729 8.84519 9.13072 8.82734C8.10028 8.76043 7.06985 8.68905 6.0394 8.64445C5.15616 8.6043 4.30414 8.44371 3.55026 7.97533C3.01051 7.64077 2.88114 7.45342 3.30492 6.81998C4.0811 5.65572 5.2989 5.24978 6.54346 4.9509C7.70773 4.66987 8.89877 4.46468 10.1166 4.54051C10.8169 4.58512 11.3567 4.96429 11.8518 5.39698C12.0436 5.56649 12.1685 5.8163 12.3113 6.0438C12.4228 6.22223 12.3514 6.33375 12.1507 6.39174C11.0935 6.69062 10.0184 6.86012 8.90322 6.83336C9.6794 6.67277 10.4422 6.53003 11.2005 6.34714C11.3879 6.30253 11.6332 6.15086 11.6868 5.99027C11.7269 5.87429 11.5351 5.59326 11.379 5.51297C10.9373 5.28547 10.4734 4.99997 9.99611 4.9509C8.00214 4.75017 6.11077 5.14272 4.40675 6.23562C4.11679 6.41851 3.90268 6.7263 3.67518 6.99395C3.51905 7.1813 3.55919 7.35974 3.73763 7.54263C4.264 8.07793 5.18738 8.13592 5.65577 7.86827C6.20445 7.55156 6.79326 7.44449 7.38655 7.43557C8.20733 7.42218 9.02813 7.49802 9.84445 7.57386C10.0318 7.5917 10.2013 7.78797 10.3887 7.88165C10.6117 7.99317 10.8437 8.16714 11.0712 8.16714C12.5165 8.15822 13.9618 8.11361 15.5364 8.07346C15.2688 7.31513 15.0368 6.65494 14.7959 5.99474C14.7246 5.79846 14.6086 5.62449 14.5238 5.43267C14.3588 5.04904 14.109 5.00444 13.8413 5.32115C13.5915 5.61557 13.3417 5.9189 13.0919 6.21778C13.0652 6.19993 13.0339 6.18209 13.0072 6.1687C13.1677 5.85199 13.3239 5.53527 13.4889 5.22302C13.5514 5.10258 13.6272 4.99106 13.712 4.88846C14.0153 4.50483 14.109 4.10336 13.8547 3.64835C13.5291 3.06399 13.2837 2.42164 12.8823 1.89972C12.396 1.26183 11.5975 1.19938 10.8526 1.11908C10.576 1.08786 10.2905 1.11462 10.0095 1.09232C10.7322 0.927266 11.4593 0.900504 12.1908 1.03879C12.7574 1.14585 13.1588 1.49379 13.3863 1.97109C13.9707 3.17997 14.506 4.41115 15.0368 5.64233C15.3758 6.42743 15.6836 7.22592 15.9914 8.0244C16.094 8.29205 16.2725 8.36788 16.5356 8.32327C16.7631 8.28312 16.9996 8.26528 17.2271 8.22959C17.5036 8.18498 17.6018 8.01993 17.5126 7.75229C17.3654 7.31067 17.2271 6.86904 17.0665 6.43189C16.7765 5.62448 16.4777 4.82601 16.1877 4.0186C16.1743 3.98738 16.1877 3.94723 16.2591 3.88478C16.4554 4.36654 16.6427 4.85277 16.8434 5.33454C17.1869 6.15532 17.5304 6.97611 17.8784 7.7969C18.0345 8.16268 18.3557 8.2965 18.7125 8.28758C19.6225 8.26528 20.5281 8.20283 21.4381 8.17606C23.7577 8.11361 26.0773 8.05562 28.4014 8.01102C30.0608 7.97979 31.7157 7.94856 33.3752 7.95302C39.0136 7.96194 44.6565 7.98425 50.295 8.0021C50.4243 8.0021 50.5537 8.0021 50.75 8.0021C50.6741 7.8192 50.6518 7.67199 50.5671 7.58724C49.9202 6.93596 49.2957 6.25346 48.5909 5.66463C47.8237 5.02674 47.0118 4.43345 46.1643 3.91154C45.1472 3.29149 44.0855 2.73835 43.0149 2.21198C42.2923 1.85958 41.534 1.56963 40.7712 1.31982C40.276 1.15923 39.7452 1.08786 39.2233 1.03879C31.7202 0.311678 24.1993 0.583785 16.6829 0.579324C16.1163 0.579324 15.5543 0.579324 14.9878 0.579324C14.9655 0.579324 14.9476 0.565948 14.9209 0.46335C16.0048 0.387516 17.0888 0.280457 18.1728 0.24031C20.5905 0.142173 23.0127 -0.0139597 25.4305 0.0128051C29.5478 0.057413 33.6606 0.204619 37.7735 0.347365C38.7415 0.37859 39.7095 0.521336 40.6641 0.681925C41.1994 0.775601 41.7258 0.985263 42.2298 1.19938C43.577 1.77482 44.9242 2.35918 46.2535 2.97923C47.2259 3.43424 48.1627 3.96061 49.1218 4.44683C49.666 4.7234 50.228 4.97321 50.7723 5.24978C51.0444 5.38806 51.2942 5.57096 51.5663 5.70479C52.4361 6.1241 53.3863 6.24899 54.3231 6.43189C55.1706 6.59694 56.036 6.72184 56.8122 7.159C57.3698 7.47125 57.4501 7.74336 57.0977 8.25189C57.0798 8.27866 57.0754 8.3188 57.0531 8.39464C57.6107 8.47493 58.1504 8.54631 58.6902 8.63553C60.0909 8.87195 61.496 9.11283 62.8967 9.35817C63.9807 9.54999 65.0691 9.74627 66.1486 9.96485C66.965 10.1299 67.7724 10.3306 68.5798 10.5314C70.2704 10.9507 71.961 11.3566 73.6383 11.8161C74.6955 12.106 75.7349 12.4807 76.7742 12.8421C77.3229 13.0339 77.8582 13.2748 78.398 13.4978C78.4604 13.5246 78.5095 13.5781 78.6121 13.6539C78.5184 13.6762 78.4738 13.6985 78.4381 13.6896C77.8894 13.5201 77.3452 13.3372 76.7921 13.1766C75.5832 12.8242 74.3743 12.4629 73.1521 12.1506C71.7514 11.7938 70.3418 11.4637 68.9277 11.1693C67.3932 10.8525 65.8498 10.5715 64.3019 10.3083C62.8521 10.063 61.3979 9.83101 59.9392 9.64366C58.3824 9.44292 56.8211 9.27788 55.2554 9.13513C53.422 8.96562 51.5841 8.8095 49.7463 8.69352C45.9814 8.45264 42.2075 8.43925 38.4337 8.47493C35.9267 8.49724 33.4198 8.47047 30.9128 8.50616C27.0051 8.55969 23.1019 8.61768 19.1943 8.73366C18.0345 8.76935 16.8791 8.99239 15.7193 9.13513C15.6167 9.14852 15.5186 9.18867 15.416 9.21543C15.4204 9.23773 15.4204 9.27341 15.4204 9.3091ZM41.0343 13.1811C41.0254 13.2168 41.0165 13.2524 41.0076 13.2926C41.0923 13.3506 41.1682 13.422 41.2574 13.4621C42.2298 13.9216 43.2023 14.3721 44.1703 14.836C45.2944 15.3713 46.4453 15.8576 47.5203 16.4776C48.9656 17.3073 50.3752 18.2084 51.7536 19.1452C52.6904 19.7831 53.5246 20.5637 54.4435 21.2284C54.8093 21.4915 55.2509 21.7369 55.6881 21.7949C58.6768 22.1964 61.6923 22.1473 64.6989 22.1562C65.0156 22.1562 65.3412 22.1205 65.6401 22.0313C65.9836 21.9332 66.0282 21.6387 65.7427 21.4335C65.3501 21.1481 64.9442 20.867 64.5249 20.6262C63.7487 20.189 62.9681 19.7607 62.1741 19.3593C61.1838 18.8597 60.1845 18.3779 59.1719 17.9184C58.427 17.5794 57.6642 17.285 56.9058 16.9772C56.1475 16.6694 55.3936 16.3438 54.6264 16.0672C53.6628 15.7193 52.6904 15.3892 51.709 15.0992C50.4689 14.7334 49.2244 14.3453 47.9575 14.0866C45.8431 13.6495 43.7153 13.2748 41.5518 13.1855C41.3823 13.1766 41.2083 13.1811 41.0343 13.1811ZM53.935 21.4871C53.761 21.2819 53.6762 21.1258 53.5424 21.0321C52.2711 20.1444 51.0132 19.2433 49.7151 18.4047C48.7515 17.7802 47.7612 17.2003 46.7397 16.6783C45.5041 16.0449 44.2506 15.4204 42.957 14.9297C41.4626 14.3632 39.9147 13.9171 38.3802 13.4666C37.9163 13.3283 37.4077 13.3461 36.917 13.2926C36.8947 13.3506 36.8724 13.4041 36.8501 13.4621C36.9661 13.5602 37.0687 13.6851 37.2025 13.7521C37.7824 14.0375 38.3757 14.2963 38.9556 14.5818C39.8745 15.0323 40.7845 15.5007 41.699 15.9602C42.7696 16.4999 43.8402 17.0352 44.9063 17.5794C46.4185 18.3511 47.9084 19.163 49.4385 19.8901C50.5269 20.4076 51.6644 20.8269 52.793 21.2596C53.1231 21.38 53.5023 21.3979 53.935 21.4871Z" fill="#333333"/>
<path id="Vector_3" d="M90.9754 22.5561C90.4044 22.6632 89.8334 22.7792 89.2624 22.8818C88.0447 23.1048 86.8268 23.3279 85.609 23.5509C84.7035 23.7159 83.798 23.8632 82.8969 24.0416C82.7497 24.0683 82.5802 24.1799 82.5043 24.3048C81.8129 25.4378 81.1349 26.5798 80.4568 27.7262C79.8769 28.7031 79.3015 29.68 78.735 30.6614C78.3112 31.3885 77.9008 32.1245 77.4904 32.8606C77.4413 32.9498 77.419 33.0613 77.3744 33.2041C78.0302 33.1149 78.6324 33.0256 79.239 32.9453C80.5059 32.7803 81.7728 32.6554 83.0352 32.4546C84.0255 32.2941 85.0024 32.0666 85.9793 31.8301C87.0142 31.5803 88.0446 31.3082 89.0662 31.0093C90.2393 30.6703 91.0557 29.8897 91.5999 28.8146C91.9523 28.1188 92.3404 27.4363 92.6437 26.7181C93.0764 25.6921 93.4199 24.6304 93.527 23.5063C93.5626 23.1182 93.3619 22.8193 93.0095 22.6632C92.9337 22.632 92.8668 22.5874 92.7775 22.5383C93.3218 22.2617 93.866 22.6008 93.8704 23.2565C93.8749 23.7561 93.8035 24.2602 93.692 24.7509C93.3173 26.4237 92.5768 27.9359 91.6668 29.3901C90.7345 30.8845 89.3561 31.6918 87.7279 32.1468C86.3718 32.526 85.0068 32.874 83.6374 33.1728C82.5623 33.4048 81.4694 33.5922 80.3765 33.7171C78.6457 33.9133 76.9105 34.1096 75.1752 34.1765C74.4169 34.2077 73.6229 33.9847 72.8779 33.7661C72.0348 33.5208 71.6244 32.7892 71.4014 32.0086C71.0535 30.7774 70.8081 29.5239 70.8973 28.2303C70.9643 27.24 71.2497 26.3523 72.0304 25.6965C72.24 25.5181 72.4943 25.3664 72.7575 25.2817C74.5998 24.7107 76.4733 24.3003 78.3826 24.0148C78.9892 23.9256 79.5781 23.7293 80.1803 23.6446C82.2679 23.3412 84.3556 23.0379 86.4521 22.7926C87.8261 22.6275 89.2134 22.5561 90.5962 22.4491C90.7211 22.4402 90.8505 22.4491 90.9754 22.4491C90.9709 22.4803 90.9709 22.516 90.9754 22.5561Z" fill="#333333"/>
<path id="Vector_4" d="M56.224 26.2995C54.5601 26.6787 52.8962 27.0623 51.1208 27.4683C52.0487 30.176 52.9453 32.79 53.8598 35.4665C53.4583 35.3996 53.0791 35.3326 52.7 35.2702C51.8569 35.123 51.0093 35.0026 50.1707 34.8241C48.6139 34.4896 47.3604 33.6197 46.3879 32.393C45.6028 31.4027 44.9025 30.341 44.2021 29.2838C43.8854 28.811 43.6267 28.2891 43.4037 27.7671C42.9843 26.7679 43.5285 25.5367 44.9248 25.568C46.5084 25.6081 48.0919 25.6126 49.6755 25.675C51.5758 25.7509 53.4761 25.8624 55.3764 25.9694C55.6664 25.9873 55.9563 26.0899 56.2418 26.1568C56.2374 26.2014 56.2329 26.2505 56.224 26.2995Z" fill="#E30D16"/>
<path id="Vector_5" d="M69.6777 9.37423C70.7885 9.18687 71.868 9.26717 72.9386 9.37869C74.2545 9.51698 75.5704 9.6731 76.8819 9.8783C77.7384 10.0121 78.5904 10.2129 79.4246 10.4493C80.3747 10.7214 81.3115 11.0515 82.2438 11.3861C82.8058 11.5868 83.2609 11.8901 83.6623 12.4076C84.1664 13.0544 84.8578 13.5852 85.5403 14.0536C86.5217 14.7317 87.5566 15.3339 88.596 15.9227C90.126 16.7881 91.6471 17.707 93.3512 18.1888C94.395 18.4832 95.1132 19.1389 95.7377 19.9374C96.1749 20.495 96.3087 21.1998 96.4202 21.8912C96.7012 23.6488 96.4202 25.335 95.8269 26.9899C95.7868 27.1059 95.6886 27.204 95.6574 27.2531C95.7912 26.2182 95.9741 25.1431 96.0544 24.0636C96.0946 23.5373 95.9875 22.9886 95.8715 22.4667C95.7957 22.1276 95.5682 21.8065 95.1578 21.7886C94.0694 21.7396 92.9809 21.6771 91.8925 21.686C89.3052 21.7173 86.7715 22.2347 84.2155 22.538C82.7925 22.7076 81.3828 22.9841 79.9643 23.2072C78.7421 23.399 77.5109 23.5417 76.2931 23.7648C75.2849 23.9521 74.2813 24.1885 73.2954 24.4874C72.5237 24.7194 71.7565 25.0406 71.2301 25.6874C70.9535 26.0264 70.6903 26.4546 70.6279 26.8739C70.4807 27.8508 70.4584 28.8501 70.387 29.8404C70.3781 29.9965 70.387 30.1571 70.387 30.3132C70.3558 30.3177 70.3245 30.3177 70.2978 30.3221C70.2666 30.0322 70.2041 29.7378 70.213 29.4523C70.2443 28.5021 70.2353 27.5386 70.3736 26.6018C70.4673 25.955 70.7528 25.3082 71.3639 24.9469C71.9037 24.6257 72.4702 24.3179 73.0635 24.1127C74.9727 23.4525 76.9711 23.2072 78.9517 22.8681C80.1829 22.6585 81.4096 22.4131 82.6453 22.2258C83.8943 22.0384 85.1522 21.8957 86.4057 21.7351C87.454 21.6013 88.4978 21.4452 89.5461 21.347C91.1877 21.1909 92.8293 21.1909 94.4798 21.2979C95.4478 21.3604 95.5236 21.1998 95.1489 20.3076C94.8768 19.6653 94.4396 19.1568 93.8865 18.7731C93.5653 18.5501 93.1326 18.501 92.7579 18.3494C91.9193 18.0148 91.0672 17.7025 90.2509 17.3189C89.3543 16.9041 88.4488 16.4847 87.6235 15.9494C86.3789 15.142 85.1834 14.2499 84.0013 13.3488C83.5909 13.0365 83.2876 12.586 82.8995 12.2381C82.6765 12.0418 82.3999 11.8812 82.1189 11.7831C81.1866 11.444 80.2587 11.0872 79.3041 10.8374C77.3592 10.3288 75.3831 9.96305 73.3713 9.7757C72.1401 9.6731 70.9268 9.51697 69.6777 9.37423Z" fill="#333333"/>
<path id="Vector_6" d="M63.1706 35.5066C62.1625 35.9259 61.1989 35.5467 60.8867 34.5921C60.5209 33.4769 60.1908 32.3483 59.8964 31.2108C59.5083 29.7164 59.1782 28.2087 58.8035 26.7143C58.7187 26.3842 58.8258 26.2058 59.1247 26.1389C59.3745 26.0853 59.6332 26.0541 59.8875 26.063C61.8502 26.1299 63.8129 26.2058 65.7802 26.2816C66.6411 26.3128 67.4976 26.3441 68.3585 26.3798C68.4879 26.3842 68.6172 26.411 68.7466 26.4288C68.7555 26.46 68.7644 26.4913 68.7734 26.5225C68.6574 26.5805 68.5459 26.6697 68.421 26.6875C67.3905 26.8437 66.3556 26.9597 65.3296 27.1336C64.2813 27.3121 63.2241 27.4726 62.2383 27.9143C61.6316 28.1864 61.4933 28.5522 61.5736 29.2079C61.8056 31.1037 62.4747 32.8925 62.9119 34.7348C62.9699 34.9935 63.0814 35.2389 63.1706 35.5066Z" fill="#E30D16"/>
<path id="Vector_7" d="M30.5916 33.6191C31.1046 34.0875 31.573 34.547 32.077 34.9708C33.0138 35.7603 33.9729 36.5276 34.923 37.3038C34.9766 37.3484 35.0479 37.3796 35.1149 37.4064C35.3602 37.5045 35.3513 37.6696 35.2219 37.8435C34.7491 38.4725 34.1915 38.9989 33.5268 39.4449C32.648 40.0382 31.6667 40.3549 30.6898 40.7118C30.4756 40.7876 30.2526 40.8278 29.9805 40.81C30.1411 40.5735 30.2794 40.3237 30.4667 40.1096C30.6674 39.8776 30.7031 39.6635 30.6139 39.3691C30.0608 37.5357 30.2347 35.6845 30.5158 33.8333C30.5247 33.7753 30.5559 33.7217 30.5916 33.6191Z" fill="#333333"/>
<path id="Vector_8" d="M18.8125 35.5062C19.1203 35.5553 19.3076 35.5642 19.4772 35.6133C20.3247 35.8497 21.1812 36.0638 22.0109 36.3582C22.2206 36.4296 22.3499 36.7463 22.5016 36.9649C23.1083 37.8392 23.8443 38.5752 24.7855 39.0972C25.1468 39.2979 25.4992 39.5075 25.8784 39.7306C26.6055 37.3976 27.3192 35.1092 28.0285 32.8208C28.0731 32.8297 28.1177 32.8386 28.1623 32.8476C27.8233 35.9389 27.4843 39.0302 27.1364 42.1885C26.7839 42.1305 26.4182 42.1305 26.1059 42.0011C25.4323 41.7245 24.7454 41.4435 24.1342 41.0554C23.309 40.538 22.5194 39.9581 21.7656 39.3425C20.9046 38.6421 20.1507 37.8258 19.5708 36.8668C19.3166 36.4519 19.098 36.0237 18.8125 35.5062Z" fill="white"/>
<path id="Vector_9" d="M28.6701 20.063C29.0805 20.2905 29.4998 20.5091 29.8968 20.7544C30.4589 21.0979 30.9987 21.4726 31.5607 21.8116C31.7436 21.9231 31.8373 22.0213 31.6812 22.2086C31.021 22.9937 30.9094 23.9573 30.7979 24.9208C30.6373 26.259 30.4812 27.6017 30.3072 28.94C30.2894 29.0872 30.1734 29.2255 30.1065 29.3682C30.0039 29.2656 29.8433 29.1764 29.8076 29.056C29.6515 28.4805 29.4775 27.9051 29.4017 27.3162C29.1608 25.4427 28.9601 23.5647 28.7415 21.6867C28.6835 21.1782 28.621 20.6697 28.5586 20.1611C28.5943 20.1254 28.63 20.0942 28.6701 20.063Z" fill="white"/>
<path id="Vector_10" d="M27.8848 19.9746C28.487 22.8964 28.9331 25.845 29.165 28.8204C28.4424 25.9119 27.8981 22.9812 27.8848 19.9746Z" fill="white"/>
<path id="Vector_11" d="M62.5856 20.5275C60.9975 19.8227 59.405 19.1179 57.7456 18.3774C57.8304 18.6361 57.8928 18.8145 57.9463 18.984C57.875 19.0286 57.8437 19.0554 57.8348 19.0509C57.4869 18.8368 57.1612 18.7967 56.84 19.1179C56.7821 19.1758 56.617 19.1758 56.5233 19.1402C56.1442 18.9974 55.8185 18.9706 55.6802 19.448C55.3412 19.2918 55.0334 19.1535 54.7256 19.0108C55.0825 17.677 54.8104 16.8875 53.9227 16.7135C52.8833 16.5083 52.2499 17.0793 52.0893 18.4175C51.273 18.0027 50.4745 17.5923 49.627 17.1596C50.0017 17.1596 50.3228 17.1997 50.6262 17.1462C50.8581 17.106 51.1258 16.9856 51.2596 16.8116C51.3354 16.7135 51.2239 16.3834 51.099 16.2406C50.7511 15.8436 50.3496 15.4868 49.9169 15.063C54.4669 16.1916 58.6333 18.1142 62.6569 20.3758C62.6391 20.4293 62.6123 20.4784 62.5856 20.5275Z" fill="#333333"/>
</g>
<path id="Vector_12" d="M21.3397 17.6632C21.3308 17.623 21.3084 17.5829 21.2861 17.565C20.7107 17.0833 20.1308 16.606 19.5375 16.1465C19.4795 16.1019 19.2877 16.142 19.2119 16.2089C18.8372 16.5301 18.4803 16.8781 18.1101 17.2126C17.6506 17.6275 17.0796 17.7345 16.4997 17.6899C15.3399 17.5918 14.1846 17.4357 13.0248 17.3063C12.9177 17.2929 12.8106 17.2795 12.6367 17.2617C12.7259 19.3538 12.8106 21.4058 12.8954 23.4622C12.8686 23.4622 12.8419 23.4667 12.8151 23.4667C12.766 22.976 12.717 22.4853 12.6679 21.9946C12.4493 19.8088 12.2263 17.6275 12.0166 15.4417C11.9809 15.0536 11.8337 14.9287 11.4278 14.8885C9.86651 14.728 8.3097 14.5138 6.75288 14.322C5.999 14.2284 5.24066 14.1391 4.48678 14.041C4.32173 14.0187 4.16114 13.9785 3.99609 13.9473C4.00055 13.9116 4.00503 13.8804 4.00949 13.8447C4.7366 13.8893 5.4637 13.9072 6.18635 13.9786C7.83684 14.1347 9.48287 14.2953 11.1334 14.4826C13.0114 14.6967 14.8849 14.9242 16.7584 15.1696C17.4632 15.2633 18.1547 15.4283 18.8505 15.5577C19.7918 15.7361 20.5144 16.2803 21.1479 16.9539C21.4289 17.2528 21.5449 17.3911 21.6965 17.3732L21.3397 17.6632Z" fill="#E30D16"/>
</g>
</svg>
