<svg width="67" height="57" viewBox="0 0 67 57" fill="none" xmlns="http://www.w3.org/2000/svg">
<g id="Group">
<g id="Group 229">
<path id="Vector" d="M17.4663 20.7244C17.671 20.5488 17.8477 20.4449 18.0524 20.421C18.229 20.397 18.4618 20.421 18.6906 20.5488C18.9716 20.6765 19.1482 20.8522 19.2526 21.1317C19.353 21.4112 19.353 21.6907 19.2285 21.9662L18.6425 23.3358L14.7969 21.7147L15.3067 20.5488C15.4592 20.2213 15.6639 19.9897 15.9449 19.866C16.2259 19.7382 16.5069 19.7142 16.7839 19.842C17.0127 19.9418 17.1933 20.0696 17.2937 20.1974C17.3619 20.3212 17.4382 20.4968 17.4663 20.7244ZM16.7759 21.563L16.8521 21.3873C16.9043 21.2355 16.9043 21.1078 16.8521 21.0079C16.7999 20.8802 16.6996 20.8043 16.5471 20.7284C16.1898 20.5767 15.961 20.6765 15.8084 21.0319L15.7563 21.1317L16.7759 21.563ZM18.3575 22.2457L18.4578 21.9942C18.51 21.8425 18.51 21.7147 18.4578 21.6149C18.4056 21.4871 18.3053 21.4112 18.1527 21.3354C17.8236 21.1836 17.5667 21.2835 17.4141 21.6388L17.3378 21.8145L18.3575 22.2457Z" fill="#333333"/>
<path id="Vector_2" d="M21.0563 18.8235L19.9363 20.5724L16.4199 18.3164L17.4877 16.6953L18.1741 17.1265L17.5881 18.013L18.3026 18.4682L18.7883 17.7095L19.4506 18.1407L18.9649 18.8994L19.7276 19.4065L20.3659 18.4202L21.0563 18.8235Z" fill="#333333"/>
<path id="Vector_3" d="M20.3185 15.1246C19.9613 15.1246 19.7084 15.2005 19.5558 15.3522C19.4796 15.4281 19.4555 15.5039 19.4555 15.6037C19.4555 15.7036 19.4796 15.7794 19.5317 15.8313C19.6321 15.9312 19.8368 15.9591 20.17 15.9072C20.5032 15.8553 20.732 15.8313 20.8845 15.8313C21.0371 15.8313 21.2137 15.8553 21.3702 15.9072C21.5228 15.9591 21.6753 16.0589 21.8279 16.1867C22.1089 16.4383 22.2614 16.7178 22.2614 17.0492C22.2855 17.3766 22.161 17.684 21.9322 17.9596C21.7275 18.1871 21.4465 18.3389 21.0933 18.4147L20.3547 17.732C20.7641 17.732 21.0692 17.6321 21.2458 17.4045C21.3221 17.3047 21.3743 17.2009 21.3743 17.1011C21.3743 17.0013 21.3502 16.8974 21.2739 16.8495C21.1735 16.7497 20.9688 16.7218 20.6878 16.7497C20.2302 16.8016 19.9251 16.8256 19.7445 16.8256C19.5679 16.8016 19.4153 16.7737 19.2588 16.7257C19.1062 16.6738 18.9778 16.598 18.8774 16.4982C18.6486 16.2945 18.5202 16.015 18.4961 15.7115C18.4961 15.4081 18.5964 15.1286 18.8253 14.877C19.0019 14.6734 19.2347 14.5496 19.5117 14.4458L20.3185 15.1246Z" fill="#333333"/>
<path id="Vector_4" d="M22.6895 12.6158L22.0513 13.1229L24.1908 15.7063L23.5044 16.2653L21.3649 13.7059L20.7266 14.2369L20.2168 13.602L22.1797 12.0049L22.6895 12.6158Z" fill="#333333"/>
<path id="Vector_5" d="M29.0028 13.2013L28.7218 13.6844L28.1879 13.357C28.0354 13.5606 27.8306 13.7124 27.6018 13.8122C27.2968 13.94 26.9917 13.9879 26.7107 13.912C26.4297 13.8362 26.2009 13.6844 25.9721 13.4568C25.7673 13.2292 25.5385 12.8978 25.3619 12.4426C25.0568 11.7319 24.9525 11.1489 25.0568 10.7456C25.1572 10.3144 25.4382 10.0349 25.8476 9.85922C26.1527 9.73145 26.4578 9.68353 26.7147 9.7594C26.9957 9.83526 27.2245 9.96304 27.4533 10.1906C27.6821 10.4182 27.8868 10.7496 28.0916 11.2048C28.3966 11.8876 28.501 12.4466 28.4207 12.8259L29.0028 13.2013ZM27.6018 12.4386C27.4734 12.1352 27.3971 11.9315 27.3208 11.7798C27.1442 11.3725 26.9917 11.097 26.9114 10.9453C26.811 10.7936 26.7067 10.6937 26.5822 10.6418C26.4538 10.5899 26.3293 10.5899 26.2009 10.6418C26.0724 10.6937 25.9721 10.8175 25.948 10.9972C25.9239 11.1729 26.0002 11.5043 26.2009 11.9834C26.3775 12.3907 26.506 12.6423 26.6103 12.77C26.7107 12.8978 26.8151 12.9976 26.9154 13.0216C27.0439 13.0735 27.1442 13.0735 27.2727 13.0216C27.3249 12.9976 27.4011 12.9457 27.4493 12.8938L26.6866 12.4107L26.9917 11.9275L27.6018 12.4386Z" fill="#333333"/>
<path id="Vector_6" d="M31.7517 11.2987C31.828 11.6781 31.7758 12.0095 31.5992 12.261C31.4225 12.5405 31.1134 12.7162 30.708 12.7921C30.2745 12.8919 29.9453 12.844 29.6643 12.6643C29.3833 12.4886 29.2067 12.2091 29.1023 11.7779L28.4922 8.96687L29.3833 8.76323L29.9694 11.4744C30.0216 11.678 30.0698 11.8018 30.1741 11.8817C30.2745 11.9576 30.3789 12.0095 30.5314 11.9576C30.6598 11.9336 30.7361 11.8577 30.7843 11.7539C30.8365 11.6261 30.8365 11.5024 30.8084 11.3227L30.1982 8.55959L31.0894 8.35596L31.7517 11.2987Z" fill="#333333"/>
<path id="Vector_7" d="M35.3974 12.3368L34.5063 12.3607L34.3538 11.7019L33.2579 11.7259L33.1294 12.3847L32.2383 12.4087L33.3342 8.20413L34.2494 8.18018L35.3974 12.3368ZM34.2253 11.0191L33.8159 9.21833H33.7918L33.4104 11.0431L34.2253 11.0191Z" fill="#333333"/>
<path id="Vector_8" d="M37.6614 12.7162L35.7266 12.4367L36.3367 8.33203L37.2279 8.4598L36.7422 11.7539L37.7858 11.9057L37.6614 12.7162Z" fill="#333333"/>
<path id="Vector_9" d="M39.2684 8.84082L40.1355 9.09237L39.0155 13.0973L38.1484 12.8457L39.2684 8.84082Z" fill="#333333"/>
<path id="Vector_10" d="M43.164 11.1472L42.4254 10.8198L41.1007 13.9103L40.2617 13.5549L41.5864 10.4884L40.8237 10.161L41.1529 9.42627L43.4972 10.4405L43.164 11.1472Z" fill="#333333"/>
<path id="Vector_11" d="M46.6535 12.3912L44.5902 13.8087L43.5706 15.3539L42.832 14.8708L43.8516 13.3255L44.233 10.79L45.0479 11.3211L44.7669 12.7146L45.9149 11.9041L46.6535 12.3912Z" fill="#333333"/>
<path id="Vector_12" d="M24.7492 43.5258C24.8776 43.7534 24.9258 43.957 24.9258 44.1607C24.9017 44.3363 24.8254 44.54 24.6729 44.7676C24.4963 44.9952 24.2634 45.1469 23.9865 45.1988C23.7055 45.2507 23.4245 45.1749 23.1716 44.9952L21.9473 44.1327L24.3919 40.7627L25.4356 41.4974C25.7407 41.701 25.9213 41.9526 25.9695 42.256C26.0457 42.5595 25.9936 42.815 25.8169 43.0666C25.6644 43.2702 25.5119 43.394 25.3593 43.4739C25.1586 43.5258 24.982 43.5497 24.7492 43.5258ZM23.0712 44.0848L23.3 44.2365C23.4285 44.3124 23.5529 44.3643 23.6814 44.3363C23.8098 44.3124 23.9102 44.2365 24.0106 44.0848C24.2153 43.7813 24.1872 43.5258 23.8821 43.2982L23.7296 43.1984L23.0712 44.0848ZM24.0868 42.6913L24.2394 42.7911C24.3678 42.8909 24.4923 42.9189 24.6207 42.8909C24.7492 42.867 24.8736 42.7911 24.9499 42.6633C25.1787 42.3599 25.1265 42.1043 24.8214 41.8767L24.7211 41.8008L24.0868 42.6913Z" fill="#333333"/>
<path id="Vector_13" d="M26.9414 47.0713L25.0547 46.1849L26.8651 42.4355L28.6233 43.2701L28.266 44.0048L27.2986 43.5496L26.9414 44.3082L27.7562 44.6875L27.4271 45.3983L26.6122 45.019L26.2027 45.8535L27.2705 46.3606L26.9414 47.0713Z" fill="#333333"/>
<path id="Vector_14" d="M30.5809 45.0724C30.4284 44.7449 30.2517 44.5413 30.047 44.4894C29.9467 44.4654 29.8704 44.4654 29.766 44.5133C29.6657 44.5653 29.6135 44.6132 29.5894 44.689C29.5372 44.8168 29.6135 45.0165 29.7941 45.272C29.9707 45.5236 30.0992 45.7272 30.1755 45.8789C30.2517 46.0306 30.2758 46.1824 30.3039 46.3341C30.328 46.5098 30.3039 46.6895 30.2517 46.8652C30.1514 47.2205 29.9467 47.4721 29.6657 47.6238C29.3847 47.7755 29.0555 47.7995 28.6982 47.6997C28.4172 47.6238 28.1644 47.4202 27.9355 47.1407L28.2165 46.2023C28.3932 46.5817 28.626 46.7853 28.903 46.8612C29.0314 46.8851 29.1318 46.8851 29.2321 46.8612C29.3325 46.8093 29.3847 46.7613 29.4369 46.6575C29.489 46.5058 29.4128 46.3301 29.2602 46.0985C29.0073 45.7192 28.8508 45.4397 28.8026 45.288C28.7504 45.1123 28.7023 44.9606 28.7023 44.8048C28.7023 44.6531 28.7023 44.5014 28.7544 44.3496C28.8548 44.0462 29.0354 43.8186 29.3164 43.6908C29.5974 43.563 29.9025 43.5391 30.2317 43.6389C30.4846 43.7148 30.7174 43.8665 30.9181 44.0701L30.5809 45.0724Z" fill="#333333"/>
<path id="Vector_15" d="M33.6889 45.1481L32.874 45.0483L32.4645 48.3664L31.5734 48.2666L31.9828 44.9485L31.168 44.8486L31.2683 44.0381L33.7892 44.3415L33.6889 45.1481Z" fill="#333333"/>
<path id="Vector_16" d="M39.0632 48.011L38.6537 48.4183L38.2202 47.9871C38.0155 48.1388 37.7867 48.2386 37.5579 48.2905C37.2287 48.3424 36.9196 48.3145 36.6667 48.1628C36.4138 48.035 36.2091 47.8353 36.0565 47.5558C35.904 47.2763 35.7756 46.897 35.6993 46.4139C35.5708 45.6552 35.5989 45.0722 35.8277 44.6929C36.0325 44.3136 36.3616 44.086 36.7952 44.0101C37.1243 43.9582 37.4334 43.9862 37.6622 44.11C37.9151 44.2377 38.1198 44.4374 38.2724 44.7169C38.4249 44.9964 38.5534 45.3757 38.6296 45.8588C38.7581 46.6175 38.73 47.1525 38.5534 47.5039L39.0632 48.011ZM37.891 46.921C37.8388 46.5935 37.8148 46.362 37.7907 46.2102C37.7144 45.755 37.6381 45.4516 37.5859 45.2998C37.5338 45.1241 37.4575 45.0203 37.3331 44.9205C37.2327 44.8446 37.1042 44.8207 36.9517 44.8207C36.7992 44.8446 36.6988 44.9485 36.6225 45.1242C36.5463 45.2998 36.5463 45.6312 36.6466 46.1383C36.7229 46.5696 36.7751 46.8491 36.8514 47.0008C36.9035 47.1525 36.9798 47.2524 37.0802 47.3282C37.1805 47.4041 37.2849 47.4281 37.4093 47.4041C37.4856 47.4041 37.5378 47.3801 37.614 47.3282L37.0039 46.6934L37.4133 46.314L37.891 46.921Z" fill="#333333"/>
<path id="Vector_17" d="M42.2996 45.4784C42.4521 45.8338 42.4521 46.1612 42.2996 46.4647C42.1712 46.7681 41.8902 46.9718 41.5088 47.1235C41.0994 47.2752 40.7461 47.2992 40.4651 47.1754C40.1601 47.0476 39.9313 46.7961 39.7787 46.3888L38.7109 43.6776L39.5499 43.3502L40.5695 45.9336C40.6458 46.1093 40.722 46.2371 40.8505 46.3129C40.9509 46.3888 41.0793 46.3888 41.2078 46.3369C41.3362 46.285 41.4125 46.2091 41.4366 46.0853C41.4606 45.9576 41.4607 45.8338 41.3844 45.6541L40.3407 43.0427L41.1797 42.7153L42.2996 45.4784Z" fill="#333333"/>
<path id="Vector_18" d="M46.2957 44.3882L45.557 44.8714L45.0713 44.4162L44.1561 45.0231L44.3849 45.658L43.6463 46.1411L42.3457 42.0125L43.1084 41.5054L46.2957 44.3882ZM44.6177 43.9051L43.3171 42.5875L43.9554 44.3363L44.6177 43.9051Z" fill="#333333"/>
<path id="Vector_19" d="M48.5122 42.3361L47.0871 43.6777L44.209 40.6631L44.8713 40.0562L47.1875 42.4878L47.9502 41.7531L48.5122 42.3361Z" fill="#333333"/>
<path id="Vector_20" d="M45.916 38.9661L46.478 38.2554L49.7375 40.8667L49.1755 41.5775L45.916 38.9661Z" fill="#333333"/>
<path id="Vector_21" d="M48.7684 36.1545L48.3589 36.8373L51.2612 38.5582L50.8036 39.3168L47.9254 37.5959L47.4919 38.3066L46.7773 37.8994L48.0779 35.7192L48.7684 36.1545Z" fill="#333333"/>
<path id="Vector_22" d="M49.1505 32.9629L51.009 34.6359L52.7391 35.2708L52.4341 36.1053L50.704 35.4704L48.1309 35.6741L48.46 34.7637L49.8851 34.7118L48.8173 33.7735L49.1505 32.9629Z" fill="#333333"/>
</g>
<path id="Vector_23" d="M9.61839 27.0593C10.2285 17.2288 16.8279 8.31262 26.8633 5.22212C36.8988 2.13161 47.3918 5.75317 53.5054 13.5313L57.2225 12.3894C56.8412 10.5127 55.3359 8.99541 53.3529 8.664C51.7231 8.3845 50.3463 7.27048 49.7361 5.74918C48.869 3.56906 46.5288 2.35522 44.2327 2.86232C42.6029 3.21768 40.921 2.73454 39.7488 1.54466C38.1191 -0.128367 35.4938 -0.379919 33.559 0.985653C32.2102 1.94794 30.452 2.12762 28.9226 1.46879C26.7589 0.558411 24.2621 1.31706 22.9896 3.29355C22.0985 4.68707 20.545 5.52159 18.8871 5.49763C16.5428 5.47367 14.5077 7.14271 14.1223 9.4506C13.8413 11.0717 12.7214 12.4413 11.1919 13.0482C9.00021 13.9107 7.77989 16.2385 8.28969 18.5225C8.64696 20.1436 8.16124 21.8166 6.96501 22.9825C5.53998 24.3761 5.15462 26.4803 5.89724 28.2252L9.61839 27.0593ZM27.6541 7.82948C36.1882 5.19417 45.1519 8.08104 50.6554 14.4178L51.9559 14.0105C46.1755 7.01892 36.4973 3.80065 27.3009 6.6396C18.0803 9.47855 11.9426 17.5841 11.1518 26.6041L12.4524 26.1968C13.3636 17.8597 19.12 10.4648 27.6541 7.82948ZM61.8589 27.9936C61.8589 27.9697 61.8348 27.9697 61.8348 27.9417L58.6757 28.904C58.5231 39.1897 51.7994 48.6409 41.4067 51.8592C30.9899 55.0775 20.0633 51.0486 14.0781 42.6635L10.919 43.6258C10.919 43.6498 10.919 43.6777 10.919 43.7017C10.8949 46.0336 12.5728 48.058 14.893 48.4413C16.5228 48.7208 17.8996 49.8348 18.5098 51.3561C19.3769 53.5362 21.7171 54.7501 24.0132 54.243C25.643 53.8876 27.3249 54.3707 28.4971 55.5606C30.1268 57.2336 32.7521 57.4852 34.6869 56.1196C36.0357 55.1573 37.7939 54.9777 39.3233 55.6365C41.487 56.5469 43.9838 55.7882 45.2563 53.8117C46.1474 52.4182 47.7009 51.5837 49.3588 51.6076C51.7031 51.6316 53.7382 49.9626 54.1236 47.6547C54.4046 46.0336 55.5246 44.664 57.054 44.0571C59.2457 43.1946 60.466 40.8667 59.9562 38.5828C59.5989 36.9617 60.0847 35.2887 61.2809 34.1227C62.9548 32.5296 63.2117 29.9222 61.8589 27.9936ZM40.9491 50.4657C50.551 47.5029 56.8171 38.8383 57.1744 29.3872L55.9019 29.7665C55.3921 38.5588 49.5073 46.5127 40.5677 49.2758C31.6281 52.0389 22.255 48.7687 16.8279 41.8011L15.5554 42.1804C21.2595 49.8108 31.3471 53.4324 40.9491 50.4657Z" fill="#E30D16"/>
<path id="Vector_24" d="M8.98394 42.3587L8.24533 41.4963C8.01652 42.3827 7.43045 42.9657 6.46304 43.2691C4.60447 43.8521 3.30388 42.9417 2.54118 40.534L0.96361 35.4909C0.786987 34.9319 0.710719 34.4288 0.734804 33.9976C0.758889 33.5424 0.835161 33.1631 0.987699 32.8836C1.14024 32.6041 1.34496 32.3525 1.59785 32.1249C1.85075 31.8973 2.10765 31.7177 2.36055 31.6178C2.58935 31.4901 2.87035 31.3902 3.15134 31.3144C3.5086 31.2146 3.83776 31.1387 4.17094 31.0868C4.47602 31.0349 4.75701 31.0349 5.00991 31.0868C5.2628 31.1387 5.46752 31.1866 5.67225 31.2625C5.87697 31.3383 6.05359 31.4661 6.23423 31.6418C6.41085 31.7935 6.53931 31.9692 6.66776 32.1489C6.79622 32.3246 6.92065 32.5282 7.02502 32.8077C7.15348 33.0593 7.25383 33.3148 7.3301 33.5424C7.40637 33.77 7.50673 34.0495 7.6111 34.353L5.14237 35.1116L4.86138 34.2012C4.8092 34.0256 4.73292 33.8738 4.65666 33.77C4.58039 33.6702 4.50412 33.5943 4.40377 33.5664C4.3275 33.5424 4.25122 33.5145 4.17495 33.5145C4.09868 33.5145 4.0465 33.5384 3.97023 33.5384C3.81769 33.5903 3.71734 33.6382 3.64107 33.7141C3.5648 33.79 3.51262 33.8419 3.46445 33.9177C3.44036 33.9936 3.41226 34.1214 3.44036 34.2731C3.46846 34.4248 3.49255 34.5766 3.54072 34.7283C3.5648 34.8561 3.64107 35.0837 3.74544 35.3632L5.14639 39.8472C5.19857 40.0229 5.24674 40.1507 5.29892 40.2784C5.35111 40.3783 5.42738 40.506 5.50365 40.6338C5.57992 40.7616 5.68027 40.8374 5.80873 40.8854C5.93718 40.9373 6.06162 40.9093 6.21817 40.8614C6.47107 40.7855 6.62762 40.6338 6.65171 40.4062C6.67579 40.1786 6.62762 39.8472 6.47508 39.392L6.06564 38.0504L5.37921 38.254L4.74096 36.2536L7.87202 35.2913L9.98749 42.0553L8.98394 42.3587Z" fill="#E30D16"/>
<path id="Vector_25" d="M10.2809 38.5854L7.60742 30.0486L10.1283 29.262L12.7255 37.5712C12.7255 37.5712 12.7255 37.5952 12.7496 37.6231C12.8018 37.7509 12.8259 37.8507 12.8499 37.9266C12.874 38.0025 12.9262 38.1023 12.9784 38.2061C13.0306 38.3339 13.1069 38.4097 13.155 38.4856C13.2313 38.5375 13.3076 38.5854 13.4079 38.6134C13.5083 38.6373 13.6126 38.6373 13.7371 38.6134C13.8374 38.5894 13.9137 38.5375 13.99 38.4856C14.0662 38.4337 14.0903 38.3578 14.1184 38.282C14.1425 38.2061 14.1425 38.1302 14.1706 38.0544C14.1706 37.9785 14.1706 37.8787 14.1465 37.7749C14.1224 37.675 14.0943 37.5712 14.0943 37.5233C14.0703 37.4714 14.0422 37.3716 14.0181 37.2718C14.0181 37.2478 13.994 37.2199 13.994 37.2199L11.3968 28.9106L13.9177 28.124L16.5912 36.6608C16.9203 37.699 16.9203 38.5854 16.5671 39.2962C16.2379 40.0069 15.5234 40.514 14.4516 40.8414C13.3557 41.1688 12.4887 41.1688 11.8022 40.7655C11.1238 40.3583 10.614 39.6236 10.2809 38.5854Z" fill="#E30D16"/>
<path id="Vector_26" d="M20.1636 26.168L25.081 37.392L22.5841 38.1507L21.8455 36.4537L20.5449 36.861L20.9263 38.6618L18.4054 39.4484L16.1133 27.4138L20.1636 26.168ZM18.9152 28.955L18.6864 29.0309L20.0873 34.7048L21.0026 34.4253L18.9152 28.955Z" fill="#E30D16"/>
<path id="Vector_27" d="M26.9671 31.009L28.621 36.3036L25.9957 37.1142L22.3789 25.4868L26.3529 24.269C26.7624 24.1412 27.1156 24.0933 27.4488 24.1173C27.778 24.1412 28.0349 24.2171 28.2637 24.3449C28.4925 24.4727 28.6972 24.6723 28.8739 24.9278C29.0505 25.1794 29.203 25.4589 29.3315 25.7624C29.4599 26.0419 29.5844 26.3972 29.7128 26.8245C29.7891 27.0521 29.8413 27.2317 29.8654 27.3555C29.8894 27.5073 29.9175 27.6829 29.9416 27.9145C29.9657 28.1461 29.9416 28.3458 29.9175 28.4975C29.8654 28.6732 29.7891 28.8529 29.6646 29.0285C29.5362 29.2042 29.3596 29.3839 29.1548 29.5357C29.4077 29.5117 29.6406 29.5356 29.8172 29.5876C30.0219 29.6634 30.1744 29.7632 30.3029 29.915C30.4314 30.0667 30.5317 30.2184 30.5839 30.3462C30.6602 30.4979 30.7123 30.6497 30.7886 30.8294C31.3988 32.7539 31.8323 34.2233 32.1133 35.2136L29.5924 36.0002L28.1914 31.4642C28.1393 31.2885 28.063 31.1368 28.0148 31.0569C27.9385 30.9571 27.8623 30.9052 27.7338 30.8813C27.6054 30.8573 27.505 30.8573 27.4287 30.8813C27.2963 30.9092 27.1678 30.9611 26.9671 31.009ZM25.6906 26.8285L26.377 29.0086L27.0153 28.8049C27.3444 28.7051 27.4247 28.2978 27.1919 27.5871C27.0394 27.104 26.8868 26.8285 26.7062 26.7526C26.5296 26.6528 26.2486 26.6767 25.815 26.8045L25.6906 26.8285Z" fill="#E30D16"/>
<path id="Vector_28" d="M34.7066 21.6846L39.6239 32.9086L37.1271 33.6673L36.3885 31.9703L35.0879 32.3776L35.4693 34.1784L32.9484 34.965L30.6562 22.9304L34.7066 21.6846ZM33.4622 24.4716L33.2334 24.5475L34.6343 30.2214L35.5495 29.9419L33.4622 24.4716Z" fill="#E30D16"/>
<path id="Vector_29" d="M43.2935 19.0542L46.9102 30.6815L44.3893 31.4681L41.2824 26.0458L43.0928 31.8714L40.5718 32.658L36.9551 21.0307L39.6044 20.2201L42.5348 25.4149L40.8047 19.8648L43.2935 19.0542Z" fill="#E30D16"/>
<path id="Vector_30" d="M44.2324 18.7459L49.8884 17.001L50.5748 19.229L49.0454 19.7122L51.9758 29.0875L49.4027 29.8741L46.4723 20.4988L44.9429 20.9819L44.2324 18.7459Z" fill="#E30D16"/>
<path id="Vector_31" d="M54.4488 28.3495L50.832 16.7222L56.0023 15.125L56.7168 17.381L54.1678 18.1676L54.8823 20.4475L57.327 19.6889L58.0134 21.869L55.5688 22.6277L56.3836 25.2869L59.0571 24.4245L59.7716 26.7044L54.4488 28.3495Z" fill="#E30D16"/>
<path id="Vector_32" d="M60.9215 26.3495L57.3047 14.7222L62.475 13.125L63.1895 15.381L60.6405 16.1676L61.355 18.4475L63.7996 17.6889L64.4861 19.869L62.0414 20.6277L62.8563 23.2869L65.5578 22.4524L66.2724 24.7324L60.9215 26.3495Z" fill="#E30D16"/>
<path id="Vector_33" d="M30.2512 16.4429L31.1945 17.4571L32.5433 17.2295L31.881 18.4194L32.5192 19.6372L31.1704 19.3577L30.203 20.3439L30.0505 18.9744L28.8262 18.3674L30.0746 17.8084L30.2512 16.4429Z" fill="#E30D16"/>
<path id="Vector_34" d="M34.3478 16.1133L35.0102 16.824L35.9776 16.6723L35.4919 17.5068L35.9495 18.3693L35.0062 18.1936L34.3197 18.8764L34.1913 17.9141L33.3242 17.4828L34.2154 17.0756L34.3478 16.1133Z" fill="#E30D16"/>
<path id="Vector_35" d="M26.6857 18.4946L27.3481 19.2054L28.3155 19.0297L27.8298 19.8921L28.2874 20.7267L27.3441 20.551L26.6576 21.2338L26.5292 20.2715L25.6621 19.8402L26.5533 19.433L26.6857 18.4946Z" fill="#E30D16"/>
<path id="Vector_36" d="M37.5851 39.9299L36.6417 38.9157L35.293 39.1673L35.9553 37.9774L35.3171 36.7596L36.6658 37.0111L37.6332 36.0488L37.7858 37.3904L39.0101 37.9974L37.7617 38.5803L37.5851 39.9299Z" fill="#E30D16"/>
<path id="Vector_37" d="M33.4872 40.2558L32.8248 39.545L31.8574 39.6968L32.3431 38.8622L31.8855 37.9998L32.8529 38.2034L33.5153 37.4927L33.6437 38.455L34.5108 38.8862L33.6196 39.2935L33.4872 40.2558Z" fill="#E30D16"/>
<path id="Vector_38" d="M41.1532 37.9003L40.4908 37.1896L39.5234 37.3413L40.0091 36.5068L39.5515 35.6443L40.519 35.82L41.1813 35.1372L41.3097 36.0995L42.1768 36.5307L41.2857 36.938L41.1532 37.9003Z" fill="#E30D16"/>
</g>
</svg>
