<svg width="63" height="58" viewBox="0 0 63 58" fill="none" xmlns="http://www.w3.org/2000/svg">
<g id="Group 228">
<g id="Group">
<path id="Vector" d="M62.1958 17.7958C61.8775 17.7958 61.6058 17.7997 61.3341 17.7958C60.977 17.788 60.6238 17.8463 60.2667 17.7337C59.8204 17.594 59.3507 17.5202 58.9044 17.3766C58.3144 17.1864 57.7205 16.9846 57.1538 16.7323C56.2999 16.3519 55.4693 15.925 54.6232 15.5213C54.4369 15.432 54.3864 15.3117 54.3825 15.106C54.3748 14.6441 54.3515 14.1822 54.2933 13.7281C54.2428 13.3244 54.1419 12.9246 54.0681 12.5209C54.006 12.1794 53.9556 11.8339 53.8818 11.4924C53.7925 11.0809 53.6761 10.6773 53.5752 10.2697C53.4859 9.901 53.4122 9.5245 53.3074 9.15965C53.1909 8.75598 53.0551 8.35232 52.9154 7.95641C52.7329 7.44407 52.5427 6.9356 52.3448 6.43102C52.0498 5.67414 51.65 4.98325 51.1221 4.36222C50.4429 3.56265 49.589 3.32976 48.5992 3.53548C48.0636 3.64804 47.5551 3.8654 47.0816 4.14874C46.938 4.23413 46.8409 4.19532 46.775 4.05171C46.7167 3.91974 46.6624 3.78389 46.5964 3.65581C46.2471 2.96103 45.8706 2.28567 45.2845 1.75391C44.7838 1.29979 44.1977 1.04361 43.5223 1.06302C43.2312 1.07078 42.9285 1.14065 42.6529 1.23768C41.5506 1.62194 40.5996 2.26237 39.7302 3.03089C38.8064 3.85375 37.9874 4.77365 37.2189 5.74012C36.7687 6.30293 36.3301 6.87737 35.8798 7.44406C35.4917 7.92924 35.0958 8.41054 34.7115 8.89571C34.1254 9.63318 33.5005 10.3357 32.8174 10.9839C32.7359 11.0615 32.7087 11.1857 32.6466 11.2867C32.6078 11.3488 32.569 11.438 32.5108 11.4613C32.2818 11.5584 32.0372 11.6243 31.8043 11.7175C30.9582 12.0474 30.2091 12.5171 29.5919 13.1886C29.4483 13.3438 29.3785 13.3438 29.297 13.1614C28.9593 12.4123 28.6177 11.6632 28.2994 10.9063C27.9773 10.1339 27.6823 9.34984 27.3679 8.57355C27.0807 7.85549 26.7896 7.14132 26.4946 6.42326C26.1685 5.63533 25.8503 4.84351 25.5048 4.06723C25.1671 3.30259 24.7208 2.60782 24.0376 2.10324C23.4671 1.68017 22.8344 1.46281 22.1163 1.6103C21.965 1.64135 21.8602 1.6103 21.7476 1.48221C21.4565 1.14841 21.1537 0.822371 20.8238 0.527383C20.4434 0.1897 19.9582 0.0422067 19.4653 0.00339257C19.1897 -0.0198959 18.8948 0.0810265 18.6231 0.17418C17.9089 0.422591 17.3189 0.876714 16.7677 1.38518C16.0419 2.05278 15.417 2.81742 14.8736 3.63251C14.2293 4.59899 13.6083 5.58486 13.0532 6.60179C12.4788 7.65366 11.9393 8.72881 11.5472 9.86994C11.3182 10.5337 11.1009 11.2013 10.9068 11.8728C10.8137 12.1988 10.7748 12.5404 10.7283 12.8742C10.6662 13.3283 10.6196 13.7824 10.5614 14.2327C10.5381 14.4267 10.507 14.6208 10.476 14.8265C10.0917 14.9119 9.71133 14.9934 9.33096 15.0788C9.0282 15.1448 8.72934 15.2108 8.42659 15.2845C8.03457 15.3777 7.64254 15.4786 7.25051 15.5795C6.8779 15.6727 6.50918 15.7736 6.13656 15.8706C5.77947 15.9638 5.42237 16.0608 5.0614 16.154C4.67714 16.2549 4.29287 16.3558 3.90861 16.4489C3.52824 16.5421 3.15175 16.6353 2.77137 16.7245C2.46474 16.7944 2.15423 16.8604 1.84371 16.9225C1.46334 17.0001 1.07907 17.0816 0.694812 17.1437C0.531793 17.1709 0.461924 17.233 0.458042 17.4038C0.434754 19.2901 0.372663 21.1765 0.39207 23.0629C0.411477 24.759 0.225165 26.4591 0.543441 28.1475C0.609425 28.4968 0.760789 28.7996 1.03637 29.0325C1.54483 29.4594 2.1775 29.5836 2.80241 29.7001C3.10904 29.7583 3.41957 29.7661 3.73008 29.7932C3.86982 29.8049 3.92414 29.8747 3.90861 30.0067C3.87368 30.2939 3.84265 30.585 3.80771 30.8723C3.75725 31.3186 3.67962 31.7611 3.66798 32.2075C3.58259 34.7964 3.73008 37.3853 3.59423 39.9742C3.52437 41.2783 3.58258 42.5903 3.58258 43.8983C3.58258 43.9953 3.58647 44.0885 3.59423 44.1855C3.66798 44.7988 3.73396 45.4082 3.82323 46.0176C3.8931 46.4833 3.95132 46.953 4.09105 47.3993C4.29288 48.0514 4.5607 48.6802 4.80522 49.3206C5.07304 50.0154 5.63974 50.3453 6.31122 50.5316C6.63338 50.6209 6.96718 50.6597 7.2971 50.7102C7.66195 50.7684 8.03068 50.8227 8.39942 50.8615C8.75651 50.8965 9.11749 50.9198 9.47458 50.9314C10.0413 50.9508 10.6079 50.9857 11.1669 51.1061C11.5783 51.1915 12.0053 51.2264 12.4244 51.2846C12.5914 51.3079 12.7544 51.339 12.9174 51.3739C13.2551 51.4477 13.5928 51.5292 13.9343 51.599C14.3729 51.6883 14.8154 51.7582 15.254 51.8591C15.6499 51.9484 16.0419 52.0725 16.4378 52.1735C16.8997 52.2938 17.3655 52.3947 17.8235 52.5228C18.4562 52.7013 19.085 52.8954 19.7099 53.0895C20.6026 53.3651 21.4875 53.6445 22.3803 53.9162C23.1798 54.1608 23.9833 54.4014 24.7906 54.6304C25.5009 54.8322 26.2112 55.0263 26.9254 55.2126C27.4688 55.3562 28.0161 55.4998 28.5672 55.6202C29.1727 55.7483 29.7821 55.8492 30.3915 55.9617C30.5778 55.9967 30.7641 56.0277 30.9504 56.0588C31.3735 56.1325 31.8004 56.2062 32.2235 56.2878C32.5185 56.346 32.829 56.377 33.1085 56.4896C33.6713 56.7147 34.2186 56.9903 34.7736 57.2426C35.1035 57.394 35.449 57.4794 35.8177 57.4173C36.2757 57.3435 36.7337 57.2736 37.1917 57.1921C37.4751 57.1417 37.7584 57.0873 38.034 57.0097C38.3794 56.9165 38.7171 56.8001 39.0587 56.6914C39.4546 56.5672 39.8466 56.4391 40.2464 56.3227C40.5996 56.2218 40.9567 56.1325 41.3099 56.0355C41.5739 55.9656 41.8417 55.8957 42.1056 55.8259C42.4744 55.7327 42.847 55.6357 43.2157 55.5464C43.4835 55.4804 43.7513 55.4183 44.0152 55.3485C44.2947 55.2786 44.5703 55.201 44.8498 55.1272C45.1176 55.0574 45.3854 54.9991 45.6532 54.9293C46.0452 54.8322 46.4334 54.7313 46.8254 54.6343C47.0932 54.5683 47.361 54.5023 47.6289 54.4363C48.0209 54.3393 48.409 54.2384 48.8011 54.1413C49.0689 54.0754 49.3367 54.0133 49.6045 53.9512C49.9189 53.8774 50.2333 53.8037 50.5477 53.7338C50.8427 53.6678 51.1415 53.6096 51.4365 53.5436C51.7587 53.4699 52.077 53.3883 52.3952 53.3185C52.7057 53.2525 53.0163 53.2059 53.3268 53.1361C53.7304 53.0429 54.1341 52.9304 54.5339 52.8294C54.988 52.713 55.4499 52.616 55.9001 52.4762C56.4358 52.3093 56.9675 52.123 57.4915 51.9173C57.9689 51.731 58.4464 51.5408 58.8927 51.2963C59.5215 50.9508 60.127 50.5666 60.7247 50.1745C61.043 49.9649 61.3263 49.7088 61.6175 49.4642C61.7766 49.3323 61.7805 49.1499 61.7378 48.9674C61.7262 48.917 61.6912 48.8704 61.6796 48.8199C61.6214 48.4706 61.5631 48.1213 61.5049 47.7719C61.4777 47.6089 61.4467 47.442 61.4156 47.279C61.3691 47.05 61.307 46.8249 61.272 46.5959C61.2293 46.3358 61.2138 46.0758 61.1789 45.8157C61.1517 45.61 61.1207 45.4043 61.0857 45.1986C61.0392 44.9075 60.977 44.6202 60.9382 44.3253C60.8955 44.0109 60.8839 43.6926 60.8412 43.3782C60.7713 42.8037 60.6821 42.2293 60.6122 41.651C60.5501 41.1192 60.4996 40.5875 60.453 40.0557C60.3909 39.3959 60.3327 38.7321 60.2861 38.0723C60.2473 37.5095 60.2241 36.9467 60.193 36.3839C60.193 36.3567 60.1891 36.3295 60.1852 36.3024C60.1348 35.79 60.0765 35.2777 60.0416 34.7653C59.9989 34.1365 59.9795 33.5039 59.9484 32.8712C59.9484 32.8363 59.9407 32.8052 59.9407 32.7703C59.8903 32.1842 59.8281 31.5942 59.7971 31.0081C59.7699 30.554 59.7893 30.554 60.2396 30.5113C60.2667 30.5074 60.2939 30.5035 60.3211 30.4997C60.7713 30.422 61.2215 30.3444 61.6757 30.2668C61.9629 30.2163 62.0832 30.1426 62.091 29.8942C62.1104 29.1722 62.1492 28.4542 62.1648 27.7322C62.1958 26.3427 62.223 24.9531 62.2424 23.5636C62.254 22.5738 62.2501 21.5879 62.2579 20.5982C62.2579 20.5167 62.2657 20.439 62.2696 20.3536C62.4054 20.342 62.5257 20.3342 62.6848 20.3226C62.7081 19.884 62.7469 19.4532 62.7431 19.0262C62.7392 18.7856 62.6616 18.5488 62.3821 18.4518C62.3278 18.4323 62.2773 18.3586 62.2618 18.3004C62.2385 18.149 62.223 17.9821 62.1958 17.7958ZM31.9906 7.02487C31.9868 6.7066 32.0023 6.38443 31.9829 6.06616C31.9712 5.88373 31.9053 5.7013 31.8393 5.52276C31.8043 5.42184 31.7228 5.40632 31.6064 5.45678C31.2959 5.59263 30.9737 5.70519 30.6593 5.83716C30.3799 5.9536 30.1159 6.09721 30.081 6.43878C30.046 6.77258 30.0344 7.11026 30.015 7.44794C30.015 7.47511 30.0266 7.50228 30.0383 7.52557C30.3022 8.08838 30.7447 8.45711 31.3114 8.68611C31.552 8.78315 31.75 8.74434 31.8082 8.57744C31.8858 8.35232 31.9557 8.11943 31.979 7.88266C32.0139 7.59932 31.9906 7.30822 31.9906 7.02487ZM56.855 12.7073C56.8666 12.7073 56.8783 12.7073 56.8899 12.7034C56.8511 12.2454 56.8162 11.7835 56.7735 11.3255C56.7385 10.9723 56.6415 10.9334 56.2883 10.9567C56.0321 10.9723 55.7643 10.9296 55.5159 10.8558C55.2442 10.7743 55.1278 10.8248 55.1278 11.1081C55.1278 11.3332 55.1316 11.5584 55.1278 11.7835C55.12 12.389 55.2325 12.9595 55.6168 13.4525C55.8769 13.7824 56.1524 14.0929 56.5173 14.3142C56.6105 14.3685 56.6687 14.3685 56.6958 14.2521C56.7502 14.0231 56.8278 13.7979 56.8472 13.5651C56.8744 13.2817 56.855 12.9945 56.855 12.7073ZM1.27702 32.5529C1.2615 32.386 1.24209 32.1454 1.21492 31.9008C1.19163 31.6796 1.16834 31.4623 1.12177 31.2449C1.10236 31.1479 1.04413 31.0935 0.900519 31.1323C0.694805 31.1905 0.469698 31.2061 0.25622 31.1983C0.120371 31.1944 0.0660158 31.21 0.0660158 31.3458C0.0660158 31.4467 0.0466238 31.5476 0.0427424 31.6486C0.0272168 31.9086 -0.00773109 32.1725 0.00779456 32.4326C0.0272016 32.7237 0.112593 33.0109 0.143644 33.302C0.190221 33.7057 0.384299 34.0007 0.733626 34.1948C0.912171 34.2918 1.09461 34.2491 1.12954 34.1171C1.16447 33.9813 1.20327 33.8454 1.21103 33.7057C1.2382 33.3486 1.25374 32.9915 1.27702 32.5529Z" fill="white"/>
<path id="Vector_2" d="M62.1921 17.7944C62.2193 17.9846 62.2348 18.1476 62.2698 18.3106C62.2814 18.3688 62.3357 18.4465 62.3901 18.462C62.6695 18.559 62.7472 18.7958 62.7511 19.0365C62.7588 19.4634 62.7161 19.8942 62.6928 20.3328C62.5337 20.3445 62.4134 20.3523 62.2775 20.3639C62.2736 20.4493 62.2659 20.5308 62.2659 20.6084C62.262 21.5982 62.2659 22.5841 62.2504 23.5738C62.2309 24.9634 62.2038 26.3529 62.1727 27.7425C62.1572 28.4644 62.1222 29.1825 62.099 29.9044C62.0912 30.1489 61.9748 30.2266 61.6837 30.277C61.2334 30.3546 60.7832 30.4323 60.3291 30.5099C60.3019 30.5138 60.2747 30.5177 60.2476 30.5216C59.7973 30.5642 59.7779 30.5642 59.8051 31.0184C59.8361 31.6083 59.8982 32.1944 59.9487 32.7805C59.9526 32.8155 59.9565 32.8465 59.9565 32.8815C59.9875 33.5141 60.0069 34.1429 60.0496 34.7756C60.0845 35.2879 60.1466 35.8003 60.1932 36.3126C60.1971 36.3398 60.1971 36.367 60.201 36.3941C60.232 36.9569 60.2553 37.5197 60.2941 38.0825C60.3407 38.7463 60.4028 39.4061 60.461 40.0659C60.5076 40.5977 60.5581 41.1295 60.6202 41.6612C60.69 42.2357 60.7754 42.8101 60.8492 43.3884C60.888 43.7028 60.9035 44.0211 60.9462 44.3355C60.985 44.6266 61.0471 44.9177 61.0937 45.2088C61.1286 45.4145 61.1597 45.6202 61.1868 45.826C61.2218 46.086 61.2373 46.3461 61.28 46.6061C61.3149 46.8351 61.377 47.0602 61.4236 47.2893C61.4585 47.4523 61.4857 47.6192 61.5129 47.7822C61.5711 48.1315 61.6254 48.4809 61.6875 48.8302C61.6953 48.8806 61.7302 48.9272 61.7458 48.9777C61.7923 49.164 61.7846 49.3425 61.6255 49.4745C61.3344 49.719 61.051 49.9791 60.7327 50.1848C60.135 50.5768 59.5256 50.9611 58.9007 51.3065C58.4543 51.551 57.973 51.7412 57.4995 51.9275C56.9755 52.1333 56.4437 52.3196 55.9081 52.4865C55.4617 52.6262 54.9999 52.7232 54.5419 52.8397C54.1382 52.9406 53.7384 53.0531 53.3347 53.1463C53.0281 53.2162 52.7137 53.2628 52.4032 53.3287C52.081 53.3986 51.7628 53.4801 51.4445 53.5538C51.1495 53.6198 50.8507 53.6781 50.5557 53.744C50.2413 53.8139 49.9269 53.8877 49.6125 53.9614C49.3447 54.0235 49.0768 54.0856 48.809 54.1516C48.417 54.2486 48.0289 54.3495 47.6368 54.4466C47.369 54.5126 47.1012 54.5785 46.8334 54.6445C46.4413 54.7416 46.0532 54.8425 45.6612 54.9395C45.3934 55.0055 45.1256 55.0676 44.8578 55.1375C44.5783 55.2073 44.3027 55.285 44.0233 55.3587C43.7554 55.4286 43.4876 55.4868 43.2237 55.5567C42.851 55.6498 42.4823 55.743 42.1136 55.8361C41.8458 55.906 41.5818 55.9759 41.3179 56.0457C40.9608 56.1389 40.6037 56.2281 40.2544 56.3329C39.8585 56.4494 39.4626 56.5775 39.0667 56.7017C38.7251 56.8065 38.3874 56.9268 38.042 57.02C37.7664 57.0937 37.483 57.1519 37.1997 57.2024C36.7417 57.2839 36.2837 57.3538 35.8257 57.4275C35.457 57.4857 35.1154 57.4003 34.7816 57.2528C34.2265 57.0006 33.6832 56.7288 33.1165 56.4998C32.8409 56.3873 32.5304 56.3562 32.2315 56.298C31.8084 56.2165 31.3853 56.1466 30.9584 56.069C30.7721 56.0341 30.5858 56.0069 30.3995 55.972C29.7901 55.8594 29.1807 55.7585 28.5752 55.6304C28.0241 55.514 27.4768 55.3665 26.9334 55.2229C26.2192 55.0365 25.5089 54.8425 24.7986 54.6406C23.9913 54.4116 23.1917 54.171 22.3882 53.9265C21.4955 53.6548 20.6067 53.3714 19.7178 53.0997C19.089 52.9057 18.4602 52.7116 17.8314 52.533C17.3734 52.405 16.9077 52.304 16.4458 52.1837C16.0499 52.0828 15.6617 51.9586 15.262 51.8693C14.8272 51.7684 14.3809 51.6985 13.9423 51.6093C13.6007 51.5394 13.263 51.4579 12.9254 51.3841C12.7623 51.3492 12.5954 51.3182 12.4324 51.2949C12.0132 51.2328 11.5902 51.2017 11.1748 51.1163C10.6159 50.9999 10.0492 50.9611 9.48254 50.9417C9.12157 50.93 8.76448 50.9106 8.40739 50.8718C8.03865 50.833 7.66992 50.7786 7.30507 50.7204C6.97515 50.67 6.63747 50.6273 6.31919 50.5419C5.64771 50.3594 5.07715 50.0257 4.81321 49.3309C4.56868 48.6943 4.30085 48.0617 4.09902 47.4096C3.95929 46.9632 3.90107 46.4897 3.8312 46.0278C3.74193 45.4184 3.67595 44.8051 3.6022 44.1958C3.59056 44.1026 3.59057 44.0056 3.59057 43.9085C3.59057 42.6005 3.53234 41.2886 3.6022 39.9844C3.73805 37.3955 3.59444 34.8066 3.67595 32.2177C3.69147 31.7714 3.7691 31.3289 3.81568 30.8825C3.84673 30.5953 3.88167 30.3042 3.9166 30.017C3.93213 29.8811 3.87778 29.8151 3.73805 29.8035C3.42754 29.7763 3.11315 29.7686 2.8104 29.7103C2.18549 29.5939 1.5567 29.4697 1.04436 29.0427C0.768776 28.8098 0.617394 28.5071 0.55141 28.1578C0.233134 26.4732 0.419445 24.7693 0.400038 23.0731C0.380631 21.1868 0.442741 19.3004 0.46603 17.414C0.469911 17.2432 0.539762 17.1811 0.702781 17.154C1.08704 17.0919 1.46742 17.0103 1.85168 16.9327C2.1622 16.8706 2.46882 16.8085 2.77934 16.7348C3.15972 16.6455 3.5401 16.5562 3.9166 16.4592C4.30086 16.3622 4.68511 16.2612 5.06937 16.1642C5.42646 16.0711 5.78356 15.9779 6.14453 15.8809C6.51326 15.7838 6.88589 15.6868 7.2585 15.5898C7.65053 15.4888 8.04254 15.3918 8.43456 15.2948C8.73343 15.221 9.03617 15.155 9.33892 15.089C9.7193 15.0037 10.0997 14.9221 10.4839 14.8368C10.5111 14.631 10.5422 14.437 10.5693 14.2429C10.6237 13.7888 10.6702 13.3347 10.7362 12.8844C10.7828 12.5467 10.8216 12.2052 10.9148 11.883C11.1089 11.2076 11.3262 10.5439 11.5552 9.8802C11.9472 8.74294 12.4868 7.66391 13.0612 6.61205C13.6163 5.59512 14.2373 4.60924 14.8816 3.64277C15.425 2.82767 16.0499 2.06304 16.7757 1.39543C17.3269 0.886968 17.9169 0.432836 18.631 0.184425C18.9027 0.0912712 19.1977 -0.00964175 19.4733 0.0136467C19.9663 0.0524609 20.4514 0.196073 20.8318 0.537637C21.1617 0.832625 21.4645 1.15867 21.7556 1.49247C21.8681 1.62056 21.9729 1.6516 22.1243 1.62055C22.8463 1.46917 23.475 1.69042 24.0456 2.11349C24.7287 2.62196 25.1751 3.31673 25.5128 4.07748C25.8582 4.85765 26.1765 5.64557 26.5025 6.4335C26.7975 7.14768 27.0886 7.86575 27.3759 8.58381C27.6864 9.36009 27.9814 10.1441 28.3074 10.9165C28.6257 11.6734 28.9672 12.4225 29.3049 13.1716C29.3864 13.3541 29.4563 13.3541 29.5999 13.1988C30.217 12.5273 30.9662 12.0538 31.8123 11.7278C32.0452 11.6385 32.2858 11.5686 32.5187 11.4716C32.577 11.4483 32.6158 11.359 32.6546 11.2969C32.7128 11.196 32.7439 11.0679 32.8254 10.9942C33.5085 10.346 34.1334 9.64344 34.7195 8.90597C35.1076 8.42079 35.5035 7.93949 35.8878 7.45431C36.338 6.88763 36.7766 6.31706 37.2269 5.75038C37.9954 4.78391 38.8144 3.86401 39.7382 3.04115C40.6076 2.26875 41.5585 1.6322 42.6609 1.24794C42.9364 1.1509 43.2392 1.08492 43.5303 1.07327C44.2057 1.04999 44.7917 1.31004 45.2924 1.76417C45.8785 2.29592 46.2512 2.97129 46.6044 3.66606C46.6704 3.79415 46.7208 3.92999 46.7829 4.06196C46.8489 4.20557 46.946 4.24827 47.0896 4.159C47.5631 3.87177 48.0716 3.65829 48.6072 3.54573C49.5969 3.33614 50.4509 3.5729 51.1301 4.37248C51.658 4.9935 52.0578 5.68828 52.3527 6.44127C52.5507 6.94585 52.7409 7.45431 52.9233 7.96666C53.0631 8.36256 53.1989 8.76623 53.3153 9.1699C53.4201 9.53475 53.49 9.91125 53.5832 10.28C53.6841 10.6875 53.8005 11.0912 53.8898 11.5026C53.9635 11.8442 54.014 12.1896 54.0761 12.5312C54.1499 12.9349 54.2547 13.3308 54.3012 13.7383C54.3556 14.1963 54.3827 14.6582 54.3905 15.1162C54.3944 15.3181 54.4448 15.4423 54.6311 15.5315C55.4773 15.9313 56.3079 16.3622 57.1618 16.7425C57.7285 16.9948 58.3224 17.1967 58.9123 17.3869C59.3587 17.5305 59.8283 17.6003 60.2747 17.7439C60.6318 17.8565 60.9889 17.7983 61.3421 17.806C61.606 17.7983 61.8777 17.7944 62.1921 17.7944ZM11.629 38.7385C11.6096 38.723 11.5863 38.7075 11.5669 38.6919C11.5358 38.2844 11.5009 37.8729 11.4698 37.4654C11.4504 37.2015 11.4038 36.9375 11.4155 36.6736C11.4426 36.1962 11.497 35.7188 11.5552 35.2452C11.6018 34.8765 11.6445 34.5039 11.7338 34.1429C11.8347 33.7315 11.9744 33.3278 12.1258 32.9319C12.3354 32.3846 12.5644 31.8451 12.7934 31.3017C12.8827 31.096 12.8671 31.0455 12.6498 31.0261C12.4518 31.0106 12.2539 31.0184 12.0598 30.9951C11.6484 30.9524 11.2408 30.898 10.8294 30.8476C10.5461 30.8127 10.2627 30.7932 9.98324 30.7505C9.49418 30.6807 9.00902 30.5953 8.51996 30.5254C8.06584 30.4595 7.60782 30.4129 7.1537 30.3508C6.95186 30.3236 6.75391 30.2848 6.55596 30.2499C6.29203 30.2033 6.02421 30.1567 5.76027 30.1101C5.53515 30.0713 5.30615 30.048 5.08491 29.9937C4.97235 29.9665 4.91413 29.9743 4.89084 30.0868C4.84038 30.3469 4.77828 30.6031 4.75111 30.8631C4.68512 31.5307 4.62689 32.2022 4.58419 32.8737C4.54538 33.4908 4.52209 34.1119 4.50657 34.7329C4.47163 35.9711 4.44447 37.2092 4.41341 38.4513C4.40565 38.8045 4.39013 39.1577 4.38237 39.5148C4.37461 39.8758 4.35519 40.2367 4.37072 40.5977C4.39789 41.2032 4.44059 41.8048 4.49493 42.4064C4.53374 42.8412 4.5842 43.2797 4.67348 43.7106C4.78604 44.254 4.92189 44.7935 5.08491 45.3253C5.27122 45.9308 5.65548 46.4004 6.22604 46.6799C6.56761 46.8468 6.93246 46.971 7.28955 47.0991C7.61558 47.2155 7.94939 47.3164 8.28319 47.4173C8.58982 47.5105 8.90033 47.5998 9.20696 47.6929C9.52524 47.79 9.84352 47.8948 10.1618 47.9918C10.3714 48.0578 10.5771 48.116 10.7867 48.182C11.0972 48.279 11.4038 48.3838 11.7144 48.4809C12.0093 48.574 12.3082 48.6516 12.5993 48.7448C12.9253 48.8457 13.2475 48.9544 13.5735 49.0592C13.853 49.1485 14.1364 49.2377 14.4158 49.3309C14.7069 49.4279 14.998 49.5327 15.2891 49.6297C15.5686 49.7229 15.8558 49.8044 16.1353 49.9014C16.4963 50.0256 16.8533 50.1576 17.2104 50.2818C17.5675 50.406 17.9285 50.5225 18.2895 50.6428C18.7281 50.7942 19.1667 50.9533 19.6053 51.1008C20.0477 51.2483 20.4902 51.388 20.9327 51.5355C21.4062 51.6908 21.8798 51.8538 22.3533 52.0091C22.656 52.11 22.9588 52.2109 23.2654 52.304C23.673 52.4283 24.0844 52.5447 24.4958 52.6611C24.818 52.7543 25.1401 52.8397 25.4584 52.9328C25.8194 53.0337 26.1765 53.1385 26.5414 53.2317C26.9179 53.3287 27.2982 53.4064 27.6747 53.4956C28.0862 53.5965 28.4937 53.713 28.9051 53.8061C29.3399 53.9032 29.7784 53.9808 30.2132 54.074C30.675 54.171 31.1369 54.2719 31.5911 54.3845C32.0607 54.5009 32.5265 54.6368 32.9923 54.7532C33.4076 54.858 33.8306 54.9473 34.2498 55.0443C34.4206 55.0831 34.4556 55.0055 34.4556 54.8464C34.475 51.6908 34.5099 48.5352 34.5215 45.3796C34.537 42.2124 34.5293 39.0413 34.5332 35.8701C34.5332 35.8352 34.5332 35.8003 34.5332 35.7692C34.5371 35.6528 34.4866 35.6023 34.3663 35.5868C34.2149 35.5713 34.0674 35.5286 33.9199 35.4898C33.6327 35.416 33.3493 35.3345 33.0621 35.2608C32.8137 35.1948 32.5614 35.1366 32.313 35.0745C32.0336 35.0007 31.7541 34.927 31.4746 34.8532C31.2184 34.7872 30.9623 34.7251 30.7061 34.6591C30.4305 34.5893 30.1588 34.5116 29.8832 34.4418C29.6077 34.3758 29.3282 34.3215 29.0526 34.2555C28.7693 34.1856 28.4898 34.1002 28.2065 34.0342C27.8261 33.9411 27.438 33.879 27.0653 33.7703C26.5724 33.6306 26.0834 33.4792 25.6059 33.2968C25.0393 33.0794 24.4842 32.831 23.9292 32.5865C23.805 32.5321 23.6963 32.4351 23.5682 32.3536C22.2446 36.0332 21.2393 39.7632 20.8085 43.6407C20.6726 43.4971 20.5601 43.3574 20.4592 43.206C19.7722 42.1697 19.1201 41.11 18.6504 39.9534C18.4214 39.3867 18.2274 38.8084 18.0411 38.2262C17.9285 37.8768 17.847 37.5159 17.7771 37.151C17.6879 36.7008 17.5831 36.2505 17.5559 35.7964C17.5171 35.1715 17.5403 34.5427 17.5403 33.9178C17.5403 33.8479 17.5403 33.7742 17.5403 33.7043C17.5171 33.6888 17.4899 33.6694 17.4666 33.6539C15.0679 34.826 13.1776 36.5804 11.629 38.7385ZM44.4153 43.3496C44.3143 42.8994 44.2173 42.4996 44.1319 42.0959C44.0388 41.6418 43.9572 41.1838 43.8641 40.7258C43.7632 40.2018 43.6584 39.6817 43.5536 39.1616C43.5186 38.983 43.4837 38.8045 43.4449 38.6259C43.3712 38.2844 43.2935 37.9467 43.2237 37.6051C43.1577 37.2907 43.1072 36.9725 43.0374 36.6542C42.9714 36.3553 42.8899 36.0564 42.8161 35.7576C42.723 35.3733 42.6453 34.9891 42.5444 34.6048C42.4513 34.2361 42.3387 33.8751 42.2378 33.5064C42.199 33.355 42.1213 33.3278 42.001 33.4365C41.3955 33.9915 40.6386 34.2361 39.874 34.4651C39.6683 34.5272 39.4626 34.597 39.2607 34.6708C38.9231 34.7911 38.5931 34.9231 38.2555 35.0356C37.9682 35.1327 37.6771 35.2064 37.386 35.2918C37.126 35.3694 36.8698 35.4432 36.6098 35.5247C36.2721 35.6295 35.9382 35.7498 35.5967 35.8352C35.4375 35.874 35.4298 35.9555 35.4337 36.0797C35.4569 37.0384 35.488 38.001 35.5036 38.9597C35.5385 41.1799 35.5656 43.4001 35.5967 45.6202C35.62 47.4678 35.651 49.3115 35.6665 51.159C35.6782 52.5369 35.6782 53.9109 35.6859 55.2888C35.6859 55.351 35.6821 55.413 35.6898 55.4713C35.7015 55.5761 35.7481 55.6304 35.8684 55.58C35.9809 55.5334 36.0974 55.5062 36.2138 55.4713C36.6913 55.3238 37.1687 55.1763 37.6422 55.021C38.1817 54.8464 38.7212 54.6601 39.2607 54.4776C39.711 54.3263 40.1574 54.171 40.6076 54.0157C41.1277 53.8372 41.6517 53.6625 42.1718 53.484C42.6221 53.3326 43.0723 53.1773 43.5264 53.026C43.8951 52.9018 44.2639 52.7815 44.6365 52.6689C45.0247 52.5486 45.4167 52.4321 45.8087 52.3118C46.2163 52.1876 46.6199 52.0479 47.0313 51.9314C47.4816 51.8072 47.9357 51.7024 48.3859 51.586C48.8905 51.4579 49.3912 51.3143 49.8958 51.1978C50.2296 51.1202 50.5673 51.0814 50.905 51.0193C51.0758 50.9882 51.2466 50.9533 51.4173 50.9223C51.6658 50.8757 51.9142 50.8252 52.1664 50.7786C52.3644 50.7437 52.5662 50.7204 52.7642 50.6777C53.1251 50.6079 53.4823 50.5225 53.8432 50.4526C54.1848 50.3866 54.5302 50.3439 54.8679 50.2702C55.2677 50.1809 55.6636 50.0645 56.0595 49.9597C56.4011 49.8704 56.7465 49.8044 57.0803 49.6957C57.5073 49.556 57.9226 49.3891 58.3379 49.2261C58.9977 48.966 59.6304 48.6555 60.2204 48.2596C60.3135 48.1975 60.4649 48.1936 60.4571 48.0306C60.4494 47.9025 60.4339 47.7783 60.4145 47.6502C60.4067 47.6036 60.3873 47.5571 60.3834 47.5105C60.3291 47.0758 60.2708 46.6411 60.2204 46.2063C60.1622 45.6979 60.1039 45.1855 60.0535 44.6732C59.9953 44.122 59.9409 43.5709 59.8943 43.0158C59.8322 42.321 59.7779 41.6224 59.7236 40.9276C59.6964 40.5899 59.6731 40.2523 59.6498 39.9146C59.5916 39.0335 59.5295 38.1524 59.479 37.2713C59.4402 36.5533 59.413 35.8313 59.382 35.1133C59.382 35.0783 59.3742 35.0473 59.3742 35.0123C59.3238 34.3603 59.2694 33.7121 59.2306 33.06C59.1918 32.373 59.1685 31.686 59.1375 30.999C59.1375 30.9718 59.1336 30.9446 59.1297 30.9175C59.0986 30.7079 59.0366 30.669 58.8308 30.6962C58.3457 30.7544 57.8605 30.801 57.3753 30.8515C57.2472 30.8631 57.1153 30.867 56.9872 30.8825C56.1139 30.9951 55.2522 30.9097 54.3866 30.7894C54.1382 30.7544 53.8937 30.7156 53.6453 30.6846C53.5405 30.669 53.4978 30.7117 53.5133 30.8282C53.5366 31.0028 53.5521 31.1814 53.556 31.3561C53.5599 32.2992 53.5909 33.2424 53.4007 34.1778C53.3231 34.566 53.3037 34.9658 53.2144 35.35C53.1058 35.8119 52.9699 36.2699 52.8185 36.724C52.6439 37.248 52.4498 37.7643 52.2557 38.2766C51.8715 39.2974 51.3164 40.229 50.7226 41.1721C50.6799 41.0829 50.6294 41.013 50.6139 40.9393C50.5285 40.5239 50.4586 40.1048 50.3616 39.6895C50.2684 39.2858 50.1481 38.8938 50.0394 38.494C49.8881 37.9312 49.6552 37.3994 49.3718 36.8948C49.0536 36.3243 48.6771 35.7925 48.0716 35.4898C47.9784 35.4432 47.8231 35.4548 47.7183 35.4975C47.4389 35.6062 47.2875 35.8624 47.1517 36.1108C46.88 36.596 46.6082 37.085 46.387 37.5935C46.0998 38.2495 45.8552 38.9209 45.603 39.5924C45.4438 40.0194 45.3041 40.4502 45.1605 40.881C45.0324 41.2614 44.9004 41.6418 44.784 42.0261C44.6637 42.4491 44.5511 42.8761 44.4153 43.3496ZM47.5747 33.2579C47.5825 33.2618 47.6291 33.289 47.6756 33.3084C48.3937 33.6461 48.9138 34.1895 49.2981 34.8648C49.531 35.2724 49.7173 35.7071 49.8958 36.1418C50.0433 36.495 50.1636 36.8638 50.284 37.2286C50.3771 37.5159 50.4314 37.8147 50.5401 38.0942C50.7109 38.5211 51.037 38.5289 51.2815 38.23C51.4639 38.001 51.6308 37.7526 51.755 37.4926C51.9724 37.0462 52.1626 36.5882 52.3489 36.1263C52.5158 35.711 52.6827 35.2918 52.8107 34.861C52.9272 34.4689 53.0048 34.0614 53.0747 33.6539C53.1407 33.2696 53.2067 32.8815 53.2261 32.4933C53.2649 31.7481 53.2105 31.0067 52.9854 30.2926C52.8185 29.7647 52.6943 29.2174 52.4653 28.7206C52.0345 27.7813 51.5803 26.8497 51.0641 25.957C50.4897 24.9672 49.8027 24.0474 49.0535 23.174C48.3588 22.3628 47.6058 21.6098 46.7829 20.9306C45.929 20.2242 45.0052 19.6264 44.0077 19.1374C43.8175 19.0442 43.6118 18.9084 43.4139 18.9084C43.0684 18.9084 42.723 19.0015 42.3775 19.0559C42.199 19.083 42.0165 19.1102 41.838 19.1413C41.5818 19.1878 41.3257 19.2422 41.0656 19.281C40.7706 19.3237 40.4756 19.3431 40.1807 19.378C39.9516 19.4052 39.7265 19.4401 39.4975 19.4634C39.0007 19.5177 38.5039 19.5643 38.0071 19.6187C37.8673 19.6342 37.7936 19.5682 37.8052 19.4324C37.8557 18.9549 37.6694 18.4814 37.7858 17.9962C37.8246 17.8293 37.8906 17.7672 38.0265 17.7323C38.0847 17.7168 38.1468 17.7207 38.2089 17.7051C38.7212 17.577 39.2336 17.4412 39.7498 17.3209C39.8818 17.2898 39.9361 17.2432 39.9322 17.1074C39.9283 16.7658 39.9283 16.4243 39.9322 16.0866C39.9361 15.8498 40.037 15.7217 40.2621 15.679C40.8715 15.5665 41.4848 15.5471 42.0825 15.6907C42.6298 15.8226 43.1577 16.0322 43.6894 16.2185C43.9146 16.2962 44.1203 16.4631 44.3803 16.4049C44.4812 16.3816 44.5783 16.3466 44.6753 16.335C45.1256 16.2729 45.5758 16.2147 46.0222 16.1564C46.2512 16.1254 46.4802 16.0943 46.7053 16.0594C47.0391 16.0128 47.3729 15.9585 47.7106 15.9197C48.1026 15.877 48.4946 15.8498 48.8867 15.8188C49.5232 15.7683 50.1598 15.7101 50.7963 15.6713C51.4251 15.6324 52.0539 15.6092 52.6633 15.4306C53.4046 15.2133 53.7617 14.7591 53.785 14.0061C53.7928 13.8121 53.7501 13.618 53.7112 13.4278C53.6297 13.0513 53.5599 12.6671 53.4434 12.3022C53.3076 11.8675 53.129 11.4444 52.9776 11.0136C52.803 10.5323 52.64 10.0471 52.4653 9.56581C52.2557 8.99136 52.0539 8.41303 51.8288 7.84634C51.6463 7.38057 51.4678 6.90703 51.2271 6.47231C50.8623 5.81247 50.2762 5.50196 49.5115 5.4942C48.9099 5.48644 48.3355 5.61453 47.761 5.75814C47.5049 5.82024 47.4777 5.90563 47.5942 6.1618C47.7067 6.41797 47.8503 6.66638 47.827 6.95749C47.7999 7.34175 47.7727 7.72602 47.7416 8.11028C47.7222 8.1064 47.7028 8.10639 47.6834 8.10251C47.4001 7.52806 47.1128 6.95749 46.845 6.37916C46.7635 6.20838 46.682 6.2045 46.55 6.28989C46.0144 6.63922 45.471 6.98078 44.947 7.34952C44.2794 7.81917 43.6312 8.31211 42.9675 8.78564C42.3698 9.21259 41.7681 9.63567 41.1665 10.0549C40.5261 10.5012 39.8895 10.9553 39.2374 11.3862C38.4961 11.8752 37.7392 12.3371 36.9979 12.8184C36.9203 12.8689 36.8426 12.9737 36.8271 13.0668C36.7805 13.3308 36.7495 13.6025 36.7456 13.8703C36.7378 14.2856 36.5554 14.6155 36.2682 14.8911C36.144 15.0153 36.144 15.1356 36.1944 15.2792C36.21 15.3297 36.2449 15.3802 36.241 15.4306C36.2138 16.0322 36.3264 16.6339 36.1711 17.2355C36.0974 17.5188 35.9771 17.775 35.7675 17.9729C35.1076 18.5901 34.3313 19.0015 33.4813 19.2849C33.4231 19.3043 33.3726 19.3392 33.3144 19.3703C33.3532 19.4207 33.3804 19.4867 33.427 19.5255C33.8307 19.8554 34.2304 20.1815 34.6419 20.5036C35.3405 21.047 36.0469 21.5865 36.7533 22.1183C37.6383 22.7898 38.3059 23.6592 38.9153 24.5675C39.3539 25.2195 39.7692 25.8949 40.1457 26.5858C40.5183 27.2689 40.8444 27.9792 41.1665 28.6895C41.3994 29.2019 41.6051 29.7336 41.7992 30.2615C41.9389 30.638 42.0437 31.0261 42.1563 31.4104C42.2533 31.7364 42.3387 32.0702 42.4241 32.4002C42.4978 32.6835 42.5716 32.9707 42.6454 33.2541C42.7113 33.5219 42.7734 33.7858 42.8394 34.0536C42.9132 34.3525 42.9869 34.6514 43.0529 34.9541C43.1189 35.2491 43.1732 35.5441 43.2392 35.843C43.3129 36.1884 43.3983 36.5339 43.4721 36.8832C43.5381 37.2015 43.5963 37.5197 43.6623 37.8341C43.7321 38.164 43.8136 38.4901 43.8757 38.82C43.9029 38.952 43.9184 39.0878 43.9029 39.2198C43.868 39.4993 43.8563 39.771 43.965 40.0426C44.0659 40.2833 44.3842 40.5278 44.5783 40.5084C44.6676 40.1901 44.7374 39.8641 44.8461 39.5536C45.0945 38.8472 45.3274 38.1291 45.6301 37.446C46.2628 36.037 46.9265 34.6514 47.5747 33.2579ZM27.0692 18.9511C27.3487 18.7842 27.5893 18.6173 27.8533 18.4931C28.0163 18.4193 28.0551 18.3261 28.0473 18.167C28.0163 17.5499 27.9814 16.9327 28.1289 16.3233C28.2181 15.9468 28.3346 15.5781 28.42 15.2055C28.4588 15.0347 28.6373 14.8795 28.4588 14.666C28.0435 14.1614 27.6126 13.6646 27.2594 13.1173C26.879 12.539 26.5646 11.9141 26.2502 11.293C26.0018 10.804 25.7961 10.2955 25.5671 9.79869C25.3614 9.34845 25.1557 8.8982 24.9383 8.45183C24.6201 7.79588 24.3095 7.13604 23.968 6.49172C23.7079 5.99878 23.4129 5.52138 23.1141 5.04396C22.8501 4.62089 22.5668 4.20945 22.2834 3.79802C22.2175 3.70099 22.136 3.60784 21.9807 3.67382C21.6935 3.79414 21.3907 3.89118 21.1074 4.01539C20.0439 4.48892 19.1046 5.15264 18.2468 5.92504C17.6296 6.48008 17.0435 7.07006 16.4885 7.68332C16.0266 8.19179 15.6113 8.74682 15.196 9.29798C14.9553 9.61626 14.7302 9.95006 14.5284 10.2955C14.1946 10.8661 13.8841 11.456 13.5541 12.0538C13.5464 12.0189 13.5347 11.9956 13.5347 11.9723C13.5076 11.7782 13.4688 11.588 13.461 11.3939C13.4493 11.1417 13.4028 10.87 13.4843 10.6448C13.6822 10.1014 13.9151 9.56969 14.1868 9.06122C14.5556 8.37421 14.9592 7.70272 15.3862 7.04676C15.6967 6.56547 16.0576 6.11523 16.4147 5.66499C16.9969 4.92364 17.649 4.24827 18.3554 3.62336C18.9726 3.07996 19.6402 2.60643 20.3583 2.20665C20.4786 2.14066 20.4708 2.07079 20.3544 2.0281C20.1836 1.96599 20.0089 1.9039 19.8343 1.88061C19.4151 1.82627 19.0386 1.99705 18.6699 2.16007C17.7034 2.58314 16.896 3.23133 16.178 3.98821C15.1572 5.06336 14.214 6.20062 13.4105 7.45044C12.906 8.23448 12.4557 9.0457 12.0792 9.89573C11.7803 10.5672 11.5475 11.2736 11.3223 11.9762C11.1554 12.504 11.0429 13.0513 10.9109 13.5908C10.8682 13.7655 10.8372 13.944 10.81 14.1226C10.7789 14.3283 10.7557 14.5379 10.7324 14.7475C11.0545 14.7747 11.0778 14.7941 11.0778 15.0735C11.0817 15.3802 11.0778 15.6868 11.0817 15.9934C11.0817 16.0672 11.0856 16.1487 11.1205 16.2069C11.4 16.661 11.7803 17.0181 12.2228 17.3092C12.805 17.6896 13.4377 17.9691 14.1131 18.1476C14.6371 18.2873 15.1572 18.4348 15.6889 18.5357C16.1314 18.6211 16.5855 18.6561 17.0358 18.6988C17.7228 18.7609 18.4137 18.8152 19.1046 18.8657C19.5199 18.8967 19.9313 18.9433 20.3466 18.9394C21.2859 18.9278 22.2214 18.8967 23.1607 18.8618C23.3547 18.854 23.5488 18.8191 23.739 18.7725C24.1193 18.6794 24.5036 18.5901 24.8723 18.4581C25.2294 18.33 25.571 18.1515 25.9203 17.9923C26.0445 17.9341 26.0251 17.8643 25.9359 17.775C25.7651 17.6081 25.602 17.4373 25.439 17.2626C24.5424 16.2962 23.6342 15.3375 22.5668 14.5495C21.7711 13.9634 20.89 13.552 19.943 13.292C19.516 13.1755 19.0774 13.0668 18.6388 13.0552C17.9829 13.0358 17.3152 13.0436 16.6709 13.1445C16.1663 13.2221 15.6695 13.42 15.196 13.6219C14.2916 14.01 13.527 14.6039 12.8827 15.3491C12.7623 15.4888 12.6381 15.6286 12.4984 15.7916C12.4363 15.4423 12.3703 15.1356 12.3276 14.8251C12.3082 14.6776 12.2849 14.503 12.3432 14.3826C12.4984 14.076 12.6886 13.781 12.8865 13.4977C13.263 12.9543 13.7599 12.5234 14.3033 12.1625C14.7069 11.8947 15.1455 11.6695 15.5919 11.4793C15.9529 11.3241 16.3449 11.2348 16.7291 11.1378C17.0203 11.0679 17.3191 10.998 17.618 10.9942C18.0566 10.9864 18.4952 11.0407 18.9338 11.0602C19.419 11.0834 19.8809 11.2271 20.3195 11.4095C21.1384 11.751 21.8953 12.209 22.5784 12.7718C23.1723 13.2609 23.7545 13.7733 24.3134 14.305C25.1945 15.1434 26.0445 16.0167 26.9179 16.8629C27.0654 17.0065 27.1546 17.1811 27.1546 17.348C27.1624 17.7905 27.1158 18.2369 27.0964 18.6794C27.0653 18.7647 27.0692 18.8424 27.0692 18.9511ZM34.7816 33.6461C34.7816 33.5452 34.7816 33.4792 34.7816 33.4093C34.7544 32.1362 34.7234 30.8631 34.6962 29.59C34.6923 29.4348 34.6923 29.2756 34.6846 29.1204C34.638 28.3285 34.5875 27.5329 34.5371 26.7411C34.5099 26.2792 34.4827 25.8212 34.4478 25.3593C34.4284 25.1031 34.3779 24.8508 34.3663 24.5946C34.3469 24.1289 34.3507 23.6631 34.3469 23.1973C34.3469 23.1236 34.3702 23.0498 34.3896 22.9489C34.6923 23.3293 34.9679 23.6786 35.2513 24.0202C35.3793 24.1754 35.4259 24.3462 35.4298 24.5442C35.457 25.9803 35.488 27.4164 35.5191 28.8525C35.5501 30.4168 35.5773 31.9848 35.6083 33.5491C35.6083 33.6034 35.6161 33.6577 35.6239 33.7354C35.7093 33.7004 35.7791 33.6694 35.849 33.6422C36.2837 33.4714 36.7184 33.3123 37.1454 33.1221C37.7121 32.8698 38.2632 32.5748 38.8377 32.3419C39.6372 32.0198 40.4523 31.7364 41.2597 31.4376C41.4421 31.3716 41.477 31.2784 41.3955 31.0999C41.1859 30.638 40.9958 30.1683 40.7629 29.7181C40.3437 28.903 39.9206 28.0879 39.4587 27.2961C39.0938 26.6712 38.6824 26.0735 38.2594 25.4874C37.8829 24.9673 37.5025 24.4394 37.0483 23.9891C36.4002 23.3448 35.7015 22.7432 34.9912 22.1726C34.2809 21.6059 33.6172 20.9966 33.0039 20.329C32.8797 20.1931 32.7943 20.0379 32.7904 19.8399C32.7865 19.6691 32.74 19.5022 32.7283 19.3314C32.6973 18.9006 32.6818 18.4659 32.6507 18.0312C32.6352 17.8371 32.7128 17.7245 32.8913 17.6624C32.9845 17.6314 33.0776 17.5926 33.1708 17.5537C33.982 17.2238 34.7932 16.9017 35.5191 16.4049C35.554 16.3816 35.6083 16.3311 35.6006 16.3117C35.5851 16.2612 35.5423 16.1914 35.4996 16.1797C35.2939 16.1137 35.0882 16.0322 34.8786 16.009C34.2925 15.943 33.722 16.04 33.1514 16.1875C32.7167 16.3001 32.2703 16.3816 31.8317 16.4941C31.4669 16.5873 31.102 16.6804 30.7527 16.8085C30.3956 16.9405 30.3141 16.9405 30.2869 16.6649C30.2365 16.1914 30.2093 15.7178 30.1977 15.2443C30.1977 15.1434 30.2947 14.992 30.3917 14.9416C31.0399 14.6039 31.7463 14.4409 32.4527 14.2817C32.7865 14.208 33.132 14.1769 33.4658 14.0954C33.9587 13.979 34.4594 13.8625 34.9368 13.6917C35.356 13.5404 35.752 13.3075 36.1556 13.1095C36.1867 13.094 36.2216 13.0319 36.2138 12.997C36.2061 12.9582 36.1634 12.9116 36.1246 12.8999C36.012 12.8611 35.8917 12.8184 35.7752 12.8145C35.1969 12.7874 34.6186 12.7757 34.0519 12.9038C33.5667 13.0125 33.0893 13.1716 32.6041 13.2881C31.9559 13.4433 31.3388 13.6762 30.7449 13.9673C30.1549 14.2545 29.6271 14.6388 29.2972 15.2249C29.0099 15.7295 28.7421 16.2457 28.4898 16.7658C28.385 16.9832 28.3423 17.2277 28.2764 17.4567C28.3812 17.4994 28.4433 17.5266 28.5092 17.5537C28.7188 17.6391 28.9207 17.7672 29.138 17.806C29.728 17.9108 30.3257 17.9807 30.9235 18.0545C30.9817 18.0622 31.0593 18.0312 31.1059 17.9923C31.3582 17.7789 31.6066 17.5576 31.855 17.3403C31.9132 17.2898 31.9715 17.2355 32.053 17.1656C32.1151 17.6314 32.1966 18.0622 32.2238 18.4969C32.2354 18.6638 32.1655 18.8618 32.0762 19.0093C31.7114 19.5915 31.1602 19.9758 30.6052 20.3522C30.1588 20.6511 29.7008 20.9383 29.2739 21.2644C28.8159 21.6137 28.4471 22.0601 28.1211 22.5336C27.8339 22.9489 27.5117 23.3448 27.2555 23.7795C26.8868 24.4044 26.5452 25.0449 26.227 25.6931C25.9398 26.2792 25.6952 26.8885 25.439 27.494C25.2799 27.8705 25.1285 28.2548 24.9772 28.6352C24.8529 28.9496 24.7404 29.2717 24.6162 29.59C24.492 29.9122 24.3522 30.2304 24.2319 30.5526C24.1465 30.7777 24.0805 31.0106 24.0029 31.2551C24.0689 31.2707 24.096 31.2784 24.1193 31.2784C24.6278 31.3056 25.1363 31.3328 25.6448 31.3561C25.6913 31.3599 25.7379 31.3638 25.7883 31.3716C26.0678 31.4182 26.3434 31.4686 26.6228 31.5113C26.8635 31.5462 27.1041 31.5695 27.3409 31.6045C27.5078 31.6277 27.6708 31.6666 27.8339 31.7015C28.1677 31.7752 28.4976 31.849 28.8314 31.9227C29.1108 31.9848 29.3942 32.0392 29.6737 32.109C29.957 32.1789 30.2403 32.2643 30.5237 32.3303C30.9196 32.4234 31.3233 32.4894 31.7192 32.5942C32.1539 32.7107 32.5886 32.8388 33.0117 32.9901C33.559 33.1881 34.0907 33.4132 34.6341 33.6228C34.6651 33.6344 34.7117 33.6344 34.7816 33.6461ZM13.7172 29.6676C13.7637 29.6405 13.8064 29.6288 13.8258 29.5978C14.1092 29.1747 14.3848 28.7477 14.672 28.3247C15.2503 27.4746 15.817 26.6168 16.4186 25.7862C17.1716 24.7421 17.9595 23.7213 18.86 22.8014C19.5199 22.1261 20.2341 21.5089 20.9211 20.8646C20.9677 20.8219 20.9987 20.7676 21.0569 20.6977C20.9832 20.686 20.956 20.6783 20.9288 20.6783C19.5898 20.6511 18.2506 20.6278 16.9077 20.5929C16.5584 20.5851 16.2051 20.5463 15.8597 20.5036C15.6346 20.4764 15.4172 20.3988 15.196 20.3678C15.1378 20.36 15.0524 20.4338 15.0097 20.4881C14.9786 20.5269 14.9941 20.6007 14.9903 20.6783C14.9126 20.6783 14.8467 20.6822 14.7768 20.6783C14.1558 20.6278 13.5386 20.5774 12.9176 20.523C12.5605 20.492 12.2034 20.4609 11.8502 20.4299C11.7881 20.426 11.726 20.4221 11.6678 20.4144C11.3689 20.3678 11.0739 20.3134 10.775 20.2707C10.515 20.2319 10.255 20.2125 9.9949 20.1776C9.81635 20.1543 9.6378 20.1271 9.45925 20.0922C9.05947 20.0184 8.65968 19.9292 8.25601 19.8593C7.84458 19.7894 7.42928 19.7429 7.01785 19.6846C6.82378 19.6575 6.63359 19.6225 6.43952 19.5915C6.14841 19.541 5.85731 19.4906 5.5662 19.444C5.32555 19.4091 5.0849 19.3858 4.84426 19.3508C4.33967 19.2771 3.83508 19.1839 3.32662 19.1257C2.88802 19.0753 2.44942 19.0597 2.01082 19.0287C1.95648 19.0248 1.90214 19.0093 1.85168 19.0054C1.6188 18.9821 1.38203 18.9588 1.13362 18.9355C1.11421 19.0559 1.09094 19.1412 1.08706 19.2266C1.04824 20.3561 0.986132 21.4817 0.98225 22.6112C0.978369 23.8572 1.02106 25.0992 1.05599 26.3451C1.05987 26.5043 1.12585 26.6673 1.18796 26.8187C1.34321 27.1913 1.70808 27.2379 2.038 27.3039C2.43391 27.3854 2.83757 27.4242 3.23735 27.4824C3.43143 27.5096 3.62549 27.5406 3.81568 27.5717C4.28145 27.6454 4.74722 27.7269 5.21299 27.7968C5.50021 27.8395 5.79131 27.855 6.07854 27.89C6.31142 27.9171 6.54819 27.9598 6.78108 27.9947C7.10323 28.0413 7.42152 28.0918 7.74368 28.1345C8.04643 28.1733 8.34918 28.1927 8.65193 28.2354C9.16815 28.3053 9.68049 28.3907 10.1967 28.4605C10.7052 28.5265 11.2175 28.5731 11.7299 28.6391C12.281 28.7128 12.8283 28.7982 13.3756 28.8758C13.5114 28.8952 13.593 28.9418 13.6046 29.101C13.6279 29.2873 13.6784 29.4658 13.7172 29.6676ZM17.7655 31.4764C17.9246 32.1479 17.8703 32.7805 17.8703 33.4132C17.8703 33.4248 17.8664 33.4404 17.8625 33.452C17.8121 33.7858 17.715 34.1196 17.7189 34.4534C17.7267 34.9231 17.8082 35.3927 17.8703 35.8624C17.9518 36.4912 18.1497 37.0928 18.4331 37.6595C18.8018 38.4008 19.2055 39.1266 19.6247 39.8408C19.7916 40.1281 20.0167 40.3881 20.2496 40.6287C20.498 40.881 20.7154 40.8345 20.824 40.4968C20.9599 40.0659 21.0569 39.6196 21.1501 39.1732C21.251 38.6803 21.3208 38.1835 21.4101 37.6866C21.4373 37.5353 21.48 37.3878 21.5149 37.2364C21.5848 36.9375 21.6585 36.6425 21.7284 36.3437C21.7905 36.0797 21.8448 35.808 21.9147 35.548C22.0079 35.1948 22.1204 34.8493 22.2174 34.5C22.3106 34.174 22.3844 33.8402 22.4853 33.518C22.6056 33.126 22.7492 32.7417 22.8773 32.3536C23.0209 31.915 23.1529 31.4686 23.3081 31.0339C23.4556 30.6186 23.6264 30.2149 23.7778 29.7996C23.9292 29.3843 24.0573 28.9612 24.2086 28.5459C24.3872 28.0569 24.5812 27.5717 24.7637 27.0826C24.9383 26.6246 25.0858 26.155 25.2799 25.7047C25.5594 25.0565 25.8582 24.4122 26.161 23.7757C26.6462 22.7587 27.24 21.8039 27.8804 20.8801C27.9891 20.7249 28.0939 20.5657 28.1987 20.4105C28.1832 20.3911 28.1715 20.3755 28.156 20.3561C28.0163 20.4182 27.8688 20.4726 27.7368 20.5463C26.8402 21.0548 26.0445 21.6913 25.3692 22.4715C25.0082 22.8868 24.6434 23.306 24.3057 23.7446C23.9641 24.1871 23.6458 24.6451 23.3392 25.1109C22.9316 25.7319 22.5319 26.3607 22.1515 26.9972C21.6741 27.8007 21.2743 28.6429 20.9677 29.524C20.8163 29.951 20.7076 30.3935 20.5873 30.8321C20.5174 31.0805 20.467 31.3328 20.4049 31.5812C20.2962 30.9019 20.3311 30.2304 20.4514 29.5706C20.5446 29.0583 20.6688 28.5459 20.8318 28.0491C21.0414 27.4203 21.2743 26.7954 21.546 26.1899C21.9147 25.367 22.3494 24.5752 22.8734 23.8378C23.3974 23.1003 23.902 22.3434 24.4532 21.6215C24.8374 21.1208 25.2799 20.6666 25.6952 20.1892C25.7301 20.1504 25.7457 20.1 25.7845 20.0262C25.7107 20.0301 25.6719 20.0223 25.6448 20.034C25.0315 20.3639 24.3716 20.5269 23.6885 20.6007C23.6381 20.6045 23.5876 20.6356 23.5449 20.6628C22.6172 21.2062 21.7672 21.8582 20.9638 22.5685C19.3801 23.9697 18.0139 25.5728 16.7641 27.2728C16.1353 28.1267 15.5337 29 14.9437 29.8772C14.1868 31.0028 13.4067 32.1168 12.7623 33.3162C12.5333 33.7431 12.3858 34.1895 12.2966 34.663C12.2655 34.8299 12.1918 34.9891 12.1607 35.156C12.1103 35.4354 12.0753 35.7188 12.0365 36.0021C12.0598 36.0176 12.0831 36.0293 12.1064 36.0448C12.1685 36.0021 12.2461 35.9672 12.2966 35.909C12.479 35.7071 12.6498 35.4859 12.8361 35.2879C13.4843 34.6087 14.148 33.945 14.9049 33.3899C15.6268 32.8582 16.372 32.3575 17.1134 31.849C17.3036 31.7131 17.5287 31.6084 17.7655 31.4764ZM49.7212 21.3342C49.7755 21.439 49.7988 21.5089 49.8376 21.5671C50.218 22.1377 50.6061 22.7044 50.9748 23.2788C51.4872 24.0745 51.8792 24.9362 52.2402 25.8056C52.4692 26.3646 52.6516 26.9468 52.8302 27.5251C52.9854 28.018 53.1058 28.5226 53.2416 29.0194C53.2688 29.1165 53.2998 29.2368 53.4434 29.1747C54.1265 28.8797 54.8291 28.6546 55.5627 28.5381C56.2109 28.4333 56.8552 28.3208 57.5073 28.2315C58.0157 28.1617 58.532 28.1306 59.0443 28.0685C59.7158 27.987 60.3834 27.8938 61.051 27.8007C61.1597 27.7852 61.28 27.7657 61.2878 27.6027C61.3033 27.2418 61.3382 26.8847 61.3538 26.5237C61.3887 25.6892 61.412 24.8508 61.4469 24.0163C61.4624 23.6359 61.5051 23.2594 61.5129 22.8791C61.5284 22.1688 61.5284 21.4623 61.5362 20.752C61.5362 20.6201 61.4741 20.5929 61.3499 20.6201C61.2257 20.6472 61.0976 20.6666 60.9695 20.6744C60.7444 20.6861 60.5192 20.6744 60.2941 20.6899C59.774 20.7326 59.2578 20.7986 58.7415 20.8335C58.1516 20.8762 57.5616 20.8956 56.9755 20.9267C56.9561 20.9267 56.9328 20.9306 56.9134 20.9306C56.4981 20.981 56.0828 21.0393 55.6675 21.0742C55.2017 21.1169 54.736 21.1363 54.2702 21.1673C54.2508 21.1673 54.2313 21.1712 54.2081 21.1712C53.7112 21.2217 53.2144 21.3032 52.7176 21.3148C51.8055 21.3381 50.8934 21.3226 49.9812 21.3226C49.9075 21.3342 49.8337 21.3342 49.7212 21.3342ZM34.343 10.9825C34.475 10.9825 34.5603 10.9864 34.6457 10.9825C34.9601 10.9592 35.2784 10.9165 35.5928 10.9165C35.7597 10.9165 35.9305 10.9825 36.0935 11.033C36.3846 11.1261 36.5554 11.3513 36.6641 11.623C36.7068 11.7239 36.7456 11.7278 36.8271 11.6618C37.2036 11.3707 37.5879 11.0834 37.9682 10.8001C38.3176 10.54 38.663 10.2761 39.0201 10.0238C39.5092 9.67836 40.0098 9.35232 40.4989 9.00688C41.0151 8.64203 41.5314 8.27329 42.036 7.89291C42.6997 7.39609 43.3595 6.89539 44.0116 6.38692C44.6287 5.90563 45.2304 5.4127 45.8436 4.92752C45.9484 4.84601 45.9601 4.78003 45.8902 4.67523C45.5797 4.22886 45.2498 3.80579 44.7918 3.4914C44.357 3.19641 43.8796 3.02174 43.3634 3.05667C42.7424 3.09548 42.1563 3.30896 41.6556 3.6777C41.0113 4.14735 40.3514 4.617 39.7808 5.17204C38.8454 6.08417 37.976 7.0623 37.0794 8.01324C36.2022 8.94866 35.325 9.88408 34.4517 10.8195C34.4167 10.8583 34.3935 10.9088 34.343 10.9825ZM46.9188 18.4077C47.3418 18.8152 47.7377 19.1917 48.1259 19.576C48.3355 19.7817 48.5257 20.0068 48.7314 20.2203C48.7819 20.2707 48.8517 20.3018 48.9138 20.3406C48.9332 20.2746 48.9604 20.2086 48.9643 20.1388C48.972 19.9952 48.9681 19.8515 48.9681 19.7079C48.972 19.3004 48.9682 19.2849 49.3641 19.1956C49.8842 19.0753 50.4081 18.9511 50.9399 18.8851C51.4911 18.8191 52.05 18.8113 52.605 18.788C53.393 18.7531 54.1809 18.7298 54.9727 18.6988C55.0076 18.6988 55.0387 18.691 55.0736 18.6871C55.4889 18.6406 55.9081 18.594 56.3234 18.5396C56.5214 18.5163 56.7155 18.4814 56.9134 18.4504C56.9173 18.4348 56.9173 18.4193 56.9212 18.3999C56.0323 17.8254 55.1396 17.251 54.2973 16.7037C54.1071 16.9327 53.948 17.1967 53.7229 17.3752C53.0436 17.907 52.2169 18.0545 51.394 18.1127C50.2878 18.1942 49.1739 18.1787 48.0677 18.2136C47.7571 18.2252 47.4466 18.2679 47.1361 18.3029C47.0701 18.3184 47.008 18.365 46.9188 18.4077ZM23.5798 3.85236C23.5604 3.864 23.5449 3.87177 23.5255 3.88341C23.541 3.94552 23.5488 4.0115 23.5798 4.06584C23.7157 4.29872 23.8671 4.52385 23.999 4.76062C24.4454 5.56795 24.9189 6.36363 25.3226 7.19038C25.6719 7.90067 25.9359 8.65755 26.258 9.38337C26.5646 10.0743 26.8907 10.7535 27.2206 11.4366C27.632 12.2828 28.156 13.0591 28.7654 13.7771C28.8003 13.8198 28.8547 13.8431 28.8974 13.8781C28.9129 13.8664 28.9245 13.8586 28.9401 13.847C28.9245 13.8004 28.9129 13.7538 28.8935 13.7111C28.777 13.4589 28.6451 13.2182 28.5403 12.9582C28.2531 12.2401 27.9813 11.5143 27.698 10.7923C27.438 10.1286 27.1701 9.46877 26.8945 8.80893C26.6694 8.26165 26.4521 7.71049 26.1959 7.17874C25.7961 6.352 25.3459 5.55242 24.7598 4.83824C24.4337 4.4307 24.034 4.10853 23.5798 3.85236ZM11.6911 18.6988C11.7182 18.6832 11.7454 18.6716 11.7726 18.6561C11.1904 17.9574 10.8216 17.1578 10.647 16.2884C10.6004 16.2806 10.581 16.2729 10.5616 16.2768C9.762 16.5523 8.9702 16.8318 8.16675 17.0996C7.51079 17.317 6.85094 17.5149 6.19498 17.7245C6.1484 17.7401 6.1096 17.7866 6.0669 17.8177C6.11736 17.841 6.16393 17.8759 6.21827 17.8837C6.47833 17.9225 6.74227 17.9535 7.00233 17.9923C7.28955 18.035 7.5729 18.0894 7.86012 18.1321C8.11241 18.1709 8.36858 18.1942 8.62475 18.233C9.14486 18.3106 9.66109 18.3883 10.1812 18.4736C10.4374 18.5163 10.6935 18.5784 10.9536 18.6173C11.1942 18.6522 11.4427 18.6716 11.6911 18.6988Z" fill="#333333"/>
<path id="Vector_3" d="M31.9874 7.02328C31.9874 7.3105 32.0107 7.59772 31.9796 7.88107C31.9563 8.11783 31.8865 8.35072 31.8088 8.57585C31.7506 8.74275 31.5488 8.78155 31.312 8.68452C30.7453 8.45551 30.3067 8.08678 30.0389 7.52398C30.0273 7.50069 30.0156 7.47352 30.0156 7.44635C30.035 7.10867 30.0467 6.77487 30.0816 6.43718C30.1165 6.09562 30.3805 5.95201 30.6599 5.83556C30.9743 5.70748 31.2965 5.59491 31.607 5.45518C31.7234 5.40473 31.8011 5.42025 31.8399 5.52117C31.902 5.69583 31.968 5.87826 31.9835 6.06456C32.0029 6.38284 31.9874 6.70112 31.9874 7.02328Z" fill="#333333"/>
<path id="Vector_4" d="M56.8546 12.7065C56.8546 12.9937 56.874 13.2809 56.8468 13.5643C56.8235 13.7972 56.7459 14.0223 56.6954 14.2513C56.6682 14.3677 56.61 14.3677 56.5169 14.3134C56.152 14.0921 55.8725 13.7855 55.6164 13.4517C55.2321 12.9588 55.1196 12.3882 55.1273 11.7827C55.1312 11.5576 55.1273 11.3325 55.1273 11.1073C55.1273 10.824 55.2476 10.7735 55.5155 10.855C55.76 10.9288 56.0317 10.9754 56.2878 10.9559C56.6411 10.9327 56.7381 10.9715 56.773 11.3247C56.8157 11.7827 56.8506 12.2446 56.8895 12.7026C56.8778 12.7026 56.8662 12.7065 56.8546 12.7065Z" fill="#333333"/>
<path id="Vector_5" d="M1.27454 32.5524C1.25126 32.991 1.23572 33.3481 1.20855 33.7091C1.19691 33.8488 1.15811 33.9846 1.12706 34.1205C1.09213 34.2563 0.909692 34.299 0.731147 34.1981C0.38182 34.004 0.187742 33.709 0.141165 33.3054C0.110113 33.0143 0.0247222 32.7271 0.00531517 32.4359C-0.0140919 32.1759 0.0247374 31.912 0.040263 31.6519C0.0480259 31.551 0.0635364 31.4501 0.0635364 31.3492C0.0635364 31.2094 0.117891 31.1939 0.253741 31.2017C0.467218 31.2094 0.692325 31.1939 0.89804 31.1357C1.04165 31.0969 1.09988 31.1512 1.11929 31.2482C1.16587 31.4656 1.18915 31.683 1.21244 31.9042C1.24349 32.1448 1.2629 32.3855 1.27454 32.5524Z" fill="#333333"/>
<path id="Vector_6" d="M11.6293 38.7388C13.178 36.5807 15.0643 34.8263 17.4592 33.6736C17.4824 33.6891 17.5096 33.7085 17.5329 33.724C17.5329 33.7939 17.5329 33.8676 17.5329 33.9375C17.5368 34.5624 17.5096 35.1912 17.5484 35.8161C17.5756 36.2702 17.6804 36.7243 17.7697 37.1707C17.8434 37.5317 17.921 37.8927 18.0336 38.2459C18.2199 38.8281 18.4101 39.4103 18.643 39.9731C19.1126 41.1297 19.7647 42.1894 20.4517 43.2257C20.5526 43.3771 20.6652 43.5168 20.801 43.6604C21.2319 39.7829 22.2372 36.0529 23.5607 32.3733C23.6888 32.4587 23.7975 32.5518 23.9217 32.6062C24.4768 32.8507 25.0318 33.0991 25.5985 33.3165C26.0759 33.4989 26.5649 33.6503 27.0579 33.79C27.4344 33.8987 27.8187 33.9608 28.199 34.0539C28.4824 34.1238 28.7618 34.2053 29.0452 34.2752C29.3208 34.3412 29.6002 34.3955 29.8758 34.4615C30.1514 34.5275 30.4231 34.6051 30.6986 34.6788C30.9548 34.7448 31.211 34.8069 31.4672 34.8729C31.7467 34.9467 32.0261 35.0204 32.3056 35.0942C32.554 35.1601 32.8063 35.2184 33.0547 35.2805C33.3419 35.3542 33.6253 35.4357 33.9125 35.5095C34.06 35.5483 34.2075 35.5871 34.3588 35.6065C34.4792 35.622 34.5296 35.6725 34.5257 35.7889C34.5257 35.8239 34.5257 35.8588 34.5257 35.8898C34.5219 39.061 34.5296 42.2282 34.5141 45.3993C34.4986 48.5549 34.4675 51.7105 34.4481 54.8661C34.4481 55.0252 34.4132 55.1028 34.2424 55.064C33.8232 54.967 33.404 54.8777 32.9848 54.7729C32.5152 54.6565 32.0533 54.5167 31.5836 54.4042C31.1256 54.2916 30.6637 54.1946 30.2057 54.0937C29.771 54.0005 29.3324 53.9268 28.8977 53.8258C28.4863 53.7327 28.0787 53.6163 27.6673 53.5153C27.2908 53.4222 26.9104 53.3446 26.5339 53.2514C26.1729 53.1583 25.812 53.0534 25.451 52.9525C25.1288 52.8633 24.8067 52.774 24.4884 52.6808C24.077 52.5644 23.6656 52.448 23.258 52.3238C22.9514 52.2306 22.6486 52.1297 22.3459 52.0288C21.8723 51.8735 21.3988 51.7105 20.9253 51.5552C20.4828 51.4077 20.0364 51.268 19.5978 51.1205C19.1592 50.973 18.7206 50.8139 18.282 50.6625C17.9249 50.5383 17.564 50.4257 17.203 50.3015C16.842 50.1773 16.4849 50.0415 16.1278 49.9211C15.8484 49.8241 15.565 49.7426 15.2817 49.6494C14.9906 49.5524 14.6995 49.4476 14.4084 49.3506C14.1289 49.2574 13.8456 49.172 13.5661 49.0789C13.2401 48.9741 12.9179 48.8654 12.5919 48.7645C12.2969 48.6713 11.998 48.5937 11.7069 48.5006C11.3964 48.4035 11.0898 48.2987 10.7792 48.2017C10.5735 48.1357 10.3639 48.0775 10.1543 48.0115C9.83606 47.9106 9.5178 47.8097 9.19952 47.7126C8.89289 47.6195 8.58236 47.5341 8.27573 47.437C7.94193 47.3361 7.60813 47.2352 7.28209 47.1188C6.92112 46.9907 6.56015 46.8665 6.21858 46.6996C5.64802 46.4162 5.26376 45.9505 5.07745 45.345C4.91443 44.8132 4.77858 44.2737 4.66602 43.7303C4.57675 43.3033 4.53017 42.8647 4.48747 42.4261C4.43313 41.8245 4.39045 41.219 4.36328 40.6174C4.34775 40.2564 4.36715 39.8955 4.37491 39.5345C4.38268 39.1813 4.39821 38.8281 4.40598 38.471C4.43703 37.2328 4.46419 35.9908 4.49913 34.7526C4.51853 34.1316 4.53794 33.5144 4.57675 32.8934C4.61945 32.2219 4.67766 31.5504 4.74365 30.8828C4.77082 30.6228 4.83292 30.3627 4.88338 30.1065C4.90667 29.994 4.96489 29.9823 5.07745 30.0134C5.29869 30.0677 5.52769 30.091 5.75281 30.1298C6.01675 30.1764 6.28457 30.223 6.5485 30.2696C6.74646 30.3045 6.94829 30.3433 7.14624 30.3705C7.60036 30.4326 8.05838 30.4792 8.5125 30.5451C9.00156 30.615 9.48674 30.7004 9.9758 30.7703C10.2553 30.8091 10.5425 30.8324 10.8219 30.8673C11.2334 30.9139 11.6409 30.9721 12.0524 31.0148C12.2503 31.0342 12.4483 31.0264 12.6423 31.0458C12.8636 31.0652 12.8752 31.1157 12.7859 31.3214C12.5569 31.8609 12.324 32.4005 12.1183 32.9516C11.967 33.3475 11.8272 33.7512 11.7263 34.1626C11.637 34.5236 11.5944 34.8962 11.5478 35.2649C11.4896 35.7385 11.4352 36.2159 11.408 36.6933C11.3925 36.9533 11.443 37.2212 11.4624 37.4851C11.4934 37.8926 11.5245 38.3041 11.5594 38.7116C11.5905 38.7077 11.6099 38.7233 11.6293 38.7388Z" fill="white"/>
<path id="Vector_7" d="M44.414 43.3482C44.5459 42.8785 44.6624 42.4477 44.7905 42.0285C44.9069 41.6443 45.0389 41.2639 45.167 40.8835C45.3106 40.4527 45.4503 40.0179 45.6094 39.5949C45.8617 38.9234 46.1063 38.2519 46.3935 37.5959C46.6147 37.0875 46.8903 36.5984 47.1581 36.1133C47.294 35.8687 47.4415 35.6125 47.7248 35.5C47.8296 35.4612 47.981 35.4456 48.078 35.4922C48.6874 35.795 49.06 36.3267 49.3783 36.8973C49.6616 37.4058 49.8945 37.9336 50.0459 38.4964C50.1507 38.8962 50.2749 39.2921 50.3681 39.6919C50.4651 40.1033 50.5311 40.5264 50.6204 40.9417C50.6359 41.0155 50.6863 41.0815 50.729 41.1746C51.3229 40.2314 51.8779 39.2999 52.2622 38.2791C52.4563 37.7628 52.6542 37.2466 52.825 36.7265C52.9764 36.2763 53.1122 35.8183 53.2209 35.3525C53.3102 34.9682 53.3296 34.5684 53.4072 34.1803C53.5974 33.2449 53.5663 32.3017 53.5625 31.3585C53.5625 31.1839 53.543 31.0053 53.5197 30.8306C53.5042 30.7142 53.5469 30.6754 53.6517 30.687C53.9001 30.7181 54.1446 30.7569 54.3931 30.7918C55.2547 30.916 56.1203 31.0014 56.9936 30.885C57.1217 30.8695 57.2537 30.8695 57.3817 30.8539C57.8669 30.8035 58.3521 30.7569 58.8373 30.6987C59.043 30.6754 59.1051 30.7103 59.1362 30.9199C59.14 30.9471 59.1439 30.9743 59.1439 31.0014C59.175 31.6884 59.1983 32.3754 59.2371 33.0625C59.2759 33.7145 59.3341 34.3627 59.3807 35.0148C59.3846 35.0497 59.3884 35.0808 59.3884 35.1157C59.4195 35.8338 59.4467 36.5557 59.4855 37.2738C59.5359 38.1549 59.5981 39.036 59.6563 39.917C59.6796 40.2547 59.7028 40.5924 59.73 40.9301C59.7843 41.6249 59.8387 42.3235 59.9008 43.0183C59.9474 43.5694 60.0017 44.1245 60.0599 44.6757C60.1104 45.188 60.1686 45.6965 60.2269 46.2088C60.2773 46.6435 60.3316 47.0782 60.3898 47.5129C60.3976 47.5595 60.417 47.6061 60.4209 47.6527C60.4364 47.7808 60.4558 47.905 60.4636 48.0331C60.4714 48.1961 60.32 48.2 60.2269 48.2621C59.6369 48.658 59.0042 48.9724 58.3444 49.2285C57.9252 49.3916 57.5098 49.5585 57.0868 49.6982C56.753 49.8069 56.4075 49.8767 56.066 49.9621C55.6701 50.0669 55.2742 50.1834 54.8744 50.2726C54.5367 50.3503 54.1912 50.3891 53.8497 50.4551C53.4887 50.5249 53.1316 50.6103 52.7706 50.6802C52.5727 50.719 52.3709 50.7423 52.1729 50.7811C51.9245 50.8277 51.6722 50.8781 51.4238 50.9247C51.253 50.9558 51.0822 50.9907 50.9115 51.0218C50.5738 51.08 50.2361 51.1227 49.9023 51.2003C49.3938 51.3167 48.8931 51.4603 48.3924 51.5884C47.9422 51.7049 47.488 51.8097 47.0378 51.9339C46.6264 52.0503 46.2227 52.1862 45.8151 52.3143C45.4231 52.4346 45.0311 52.551 44.643 52.6714C44.2704 52.7878 43.9016 52.9081 43.5329 53.0284C43.0826 53.1798 42.6285 53.3312 42.1783 53.4865C41.6582 53.6611 41.1342 53.8397 40.614 54.0182C40.1638 54.1696 39.7175 54.3248 39.2672 54.4801C38.7277 54.6625 38.1882 54.8488 37.6487 55.0235C37.1751 55.1787 36.6938 55.3224 36.2203 55.4737C36.1039 55.5087 35.9874 55.5358 35.8749 55.5824C35.7545 55.6329 35.7119 55.5785 35.6963 55.4737C35.6886 55.4116 35.6924 55.3495 35.6924 55.2913C35.6847 53.9134 35.6885 52.5394 35.673 51.1615C35.6536 49.3139 35.6264 47.4703 35.6032 45.6227C35.5721 43.4025 35.5449 41.1824 35.51 38.9622C35.4945 38.0035 35.4634 37.0409 35.4401 36.0822C35.4362 35.958 35.444 35.8765 35.6032 35.8377C35.9447 35.7523 36.2785 35.632 36.6162 35.5272C36.8724 35.4495 37.1324 35.3719 37.3925 35.2943C37.6836 35.2089 37.9747 35.1312 38.2619 35.0381C38.5996 34.9255 38.9334 34.7936 39.2672 34.6732C39.4691 34.5995 39.6748 34.5296 39.8805 34.4675C40.6451 34.2385 41.3981 33.9901 42.0075 33.439C42.1278 33.3303 42.2054 33.3574 42.2442 33.5088C42.3452 33.8776 42.4577 34.2385 42.5509 34.6073C42.6479 34.9876 42.7294 35.3758 42.8226 35.76C42.8924 36.0589 42.9778 36.3578 43.0438 36.6566C43.1137 36.971 43.1641 37.2893 43.2301 37.6076C43.3 37.9492 43.3776 38.2907 43.4514 38.6284C43.4902 38.8069 43.5251 38.9855 43.5601 39.164C43.6649 39.6842 43.7696 40.2081 43.8706 40.7282C43.9598 41.1863 44.0414 41.6443 44.1384 42.0984C44.216 42.4982 44.313 42.898 44.414 43.3482Z" fill="white"/>
<path id="Vector_8" d="M47.5729 33.2582C46.9247 34.6516 46.2649 36.0373 45.6438 37.4385C45.3411 38.1216 45.1082 38.8396 44.8598 39.5461C44.7511 39.8566 44.6812 40.1787 44.592 40.5009C44.394 40.5242 44.0757 40.2796 43.9787 40.0351C43.87 39.7673 43.8817 39.4956 43.9166 39.2123C43.9321 39.0803 43.9127 38.9444 43.8894 38.8125C43.8235 38.4826 43.7419 38.1565 43.676 37.8266C43.61 37.5083 43.5556 37.19 43.4858 36.8757C43.412 36.5302 43.3305 36.1848 43.2529 35.8354C43.1869 35.5404 43.1326 35.2416 43.0666 34.9466C43.0006 34.6477 42.923 34.3488 42.8531 34.0461C42.7871 33.7783 42.725 33.5105 42.659 33.2465C42.5892 32.9632 42.5154 32.676 42.4378 32.3926C42.3485 32.0627 42.2631 31.7328 42.17 31.4029C42.0574 31.0186 41.9526 30.6305 41.8129 30.254C41.6188 29.7222 41.4131 29.1943 41.1802 28.682C40.8581 27.9717 40.532 27.2614 40.1594 26.5783C39.7829 25.8874 39.3676 25.212 38.929 24.5599C38.3157 23.6517 37.652 22.7822 36.767 22.1108C36.0606 21.5751 35.3581 21.0356 34.6555 20.4961C34.2441 20.1778 33.8443 19.8479 33.4407 19.518C33.3941 19.4792 33.3669 19.4132 33.3281 19.3627C33.3825 19.3355 33.4368 19.2967 33.495 19.2773C34.345 18.994 35.1252 18.5825 35.7811 17.9654C35.9946 17.7675 36.1111 17.5113 36.1848 17.2279C36.3401 16.6302 36.2275 16.0247 36.2547 15.4231C36.2586 15.3726 36.2275 15.3222 36.2081 15.2717C36.1576 15.1281 36.1577 15.0078 36.2819 14.8836C36.5652 14.6041 36.7476 14.2781 36.7593 13.8628C36.767 13.5949 36.7981 13.3232 36.8408 13.0593C36.8563 12.97 36.9339 12.8652 37.0116 12.8109C37.7568 12.3296 38.5137 11.8677 39.2511 11.3786C39.9032 10.9478 40.5398 10.4937 41.1802 10.0473C41.7818 9.62813 42.3834 9.20506 42.9812 8.7781C43.6449 8.30069 44.2931 7.80775 44.9607 7.34198C45.4847 6.97325 46.0281 6.63556 46.5637 6.28235C46.6957 6.19696 46.7772 6.19696 46.8587 6.37163C47.1265 6.94996 47.4176 7.52052 47.6971 8.09497C47.7165 8.09885 47.7359 8.09885 47.7553 8.10273C47.7825 7.71847 47.8135 7.33421 47.8407 6.94995C47.8601 6.65497 47.7204 6.40656 47.6078 6.15426C47.4953 5.89809 47.5224 5.81659 47.7747 5.7506C48.3492 5.60699 48.9236 5.4789 49.5253 5.48666C50.2899 5.49443 50.876 5.80494 51.2408 6.46478C51.4815 6.8995 51.66 7.37303 51.8425 7.8388C52.0676 8.40937 52.2733 8.98381 52.479 9.55826C52.6537 10.0396 52.8167 10.5247 52.9913 11.006C53.1466 11.4369 53.3251 11.8599 53.4571 12.2947C53.5697 12.6634 53.6434 13.0438 53.7249 13.4203C53.7638 13.6105 53.8064 13.8084 53.7987 13.9986C53.7754 14.7516 53.4183 15.2057 52.677 15.4231C52.0637 15.6016 51.4388 15.6249 50.81 15.6637C50.1734 15.7025 49.5369 15.7608 48.9003 15.8112C48.5083 15.8423 48.1163 15.8694 47.7243 15.9121C47.3866 15.9471 47.0528 16.0053 46.719 16.0519C46.49 16.0829 46.2649 16.1179 46.0358 16.1489C45.5856 16.2071 45.1354 16.2653 44.689 16.3274C44.5881 16.343 44.4911 16.3779 44.394 16.3973C44.1301 16.4555 43.9283 16.2925 43.7031 16.211C43.1714 16.0247 42.6435 15.8151 42.0962 15.6831C41.4985 15.5395 40.8814 15.5589 40.2759 15.6715C40.0507 15.7142 39.9459 15.8423 39.9459 16.079C39.9421 16.4206 39.9421 16.7622 39.9459 17.0998C39.9498 17.2357 39.8955 17.2823 39.7635 17.3133C39.2473 17.4298 38.7349 17.5695 38.2226 17.6976C38.1644 17.7131 38.0984 17.7092 38.0401 17.7248C37.9043 17.7597 37.8383 17.8218 37.7995 17.9887C37.683 18.4739 37.8693 18.9474 37.8189 19.4248C37.8034 19.5607 37.881 19.6266 38.0207 19.6111C38.5176 19.5607 39.0144 19.5102 39.5112 19.4559C39.7402 19.4326 39.9653 19.3976 40.1943 19.3705C40.4893 19.3355 40.7843 19.3161 41.0793 19.2734C41.3393 19.2385 41.5955 19.1803 41.8517 19.1337C42.0302 19.1027 42.2088 19.0755 42.3912 19.0483C42.7367 18.994 43.0821 18.9047 43.4275 18.9008C43.6255 18.9008 43.8273 19.0328 44.0214 19.1298C45.0189 19.615 45.9427 20.2166 46.7966 20.923C47.6195 21.6023 48.3686 22.3553 49.0673 23.1665C49.8164 24.0398 50.5034 24.9597 51.0778 25.9495C51.594 26.8422 52.0482 27.7737 52.479 28.713C52.708 29.2099 52.8322 29.7571 52.9991 30.285C53.2242 31.0031 53.2786 31.7444 53.2398 32.4858C53.2204 32.8739 53.1544 33.2621 53.0884 33.6463C53.0185 34.05 52.9409 34.4575 52.8245 34.8534C52.6964 35.2843 52.5295 35.7035 52.3626 36.1188C52.1762 36.5807 51.9861 37.0387 51.7687 37.485C51.6406 37.7451 51.4776 37.9974 51.2952 38.2225C51.0506 38.5252 50.7246 38.5136 50.5538 38.0866C50.4413 37.8072 50.3908 37.5083 50.2976 37.2211C50.1773 36.8562 50.057 36.4875 49.9095 36.1343C49.7271 35.6996 49.5408 35.2649 49.3118 34.8573C48.9275 34.1819 48.4035 33.6386 47.6894 33.3009C47.6234 33.2892 47.5807 33.2621 47.5729 33.2582Z" fill="white"/>
<path id="Vector_9" d="M27.0711 18.9519C27.0711 18.8432 27.0672 18.7656 27.0711 18.688C27.0943 18.2455 27.1409 17.7991 27.1293 17.3566C27.1254 17.1858 27.0361 17.0112 26.8925 16.8715C26.0192 16.0253 25.1692 15.1559 24.2881 14.3136C23.7292 13.7818 23.1508 13.2695 22.5531 12.7804C21.87 12.2176 21.1131 11.7596 20.2941 11.4181C19.8555 11.2356 19.3936 11.092 18.9084 11.0687C18.4698 11.0493 18.0313 10.995 17.5927 11.0028C17.2938 11.0066 16.9949 11.0765 16.7038 11.1464C16.3196 11.2395 15.9275 11.3327 15.5666 11.4879C15.1202 11.6781 14.6816 11.9032 14.2779 12.1711C13.7345 12.532 13.2377 12.9629 12.8612 13.5063C12.6633 13.7896 12.4731 14.0846 12.3178 14.3912C12.2557 14.5115 12.2829 14.6862 12.3023 14.8337C12.345 15.1442 12.411 15.4508 12.4731 15.8002C12.6128 15.6372 12.737 15.5013 12.8573 15.3577C13.5016 14.6125 14.2663 14.0225 15.1707 13.6305C15.6442 13.4248 16.141 13.2268 16.6456 13.1531C17.2938 13.056 17.9575 13.0444 18.6135 13.0638C19.0521 13.0793 19.4907 13.1841 19.9176 13.3006C20.8647 13.5606 21.7458 13.972 22.5415 14.5581C23.6089 15.3461 24.5171 16.3048 25.4137 17.2712C25.5767 17.4459 25.7397 17.6167 25.9105 17.7836C25.9998 17.869 26.0192 17.9427 25.895 18.0009C25.5495 18.1601 25.208 18.3386 24.847 18.4667C24.4783 18.5987 24.094 18.688 23.7136 18.7811C23.5234 18.8277 23.3294 18.8626 23.1353 18.8704C22.196 18.9053 21.2606 18.9364 20.3213 18.948C19.906 18.9519 19.4946 18.9053 19.0792 18.8743C18.3884 18.8238 17.7014 18.7695 17.0105 18.7074C16.5602 18.6647 16.1061 18.6297 15.6636 18.5443C15.1318 18.4434 14.6117 18.2959 14.0877 18.1562C13.4124 17.9776 12.7836 17.6982 12.1975 17.3178C11.755 17.0267 11.3746 16.6696 11.0952 16.2155C11.0602 16.1573 11.0564 16.0758 11.0564 16.002C11.0525 15.6954 11.0564 15.3887 11.0525 15.0821C11.0486 14.8027 11.0292 14.7833 10.707 14.7561C10.7342 14.5465 10.7536 14.3369 10.7847 14.1312C10.8118 13.9526 10.8429 13.7741 10.8856 13.5994C11.0175 13.0599 11.1262 12.5126 11.297 11.9847C11.5221 11.2822 11.755 10.5758 12.0539 9.90431C12.4304 9.05817 12.8845 8.24307 13.3852 7.45902C14.1887 6.20921 15.1318 5.07196 16.1526 3.99681C16.8668 3.24381 17.678 2.59173 18.6445 2.16866C19.0133 2.00564 19.3898 1.83486 19.8089 1.8892C19.9875 1.91249 20.1622 1.97459 20.3291 2.03669C20.4455 2.07939 20.4533 2.14925 20.3329 2.21523C19.6149 2.61502 18.9473 3.08855 18.3301 3.63195C17.6198 4.25297 16.9678 4.93222 16.3894 5.67357C16.0362 6.12382 15.6752 6.57406 15.3608 7.05535C14.9378 7.71131 14.5341 8.3828 14.1615 9.06981C13.8898 9.57828 13.6569 10.11 13.4589 10.6534C13.3774 10.8747 13.4279 11.1502 13.4357 11.4025C13.4434 11.5966 13.4822 11.7868 13.5094 11.9809C13.5133 12.0042 13.5211 12.0274 13.5288 12.0624C13.8587 11.4608 14.1692 10.8747 14.503 10.3041C14.7049 9.95866 14.93 9.62485 15.1707 9.30657C15.5898 8.75929 16.0013 8.20037 16.4632 7.69191C17.0221 7.07865 17.6043 6.48479 18.2214 5.93363C19.0792 5.16511 20.0224 4.49751 21.082 4.02397C21.3693 3.89589 21.6681 3.80273 21.9554 3.68241C22.1106 3.61642 22.1882 3.70958 22.2581 3.80661C22.5414 4.21804 22.8248 4.62947 23.0887 5.05255C23.3837 5.52608 23.6787 6.0035 23.9426 6.50032C24.2842 7.14463 24.5947 7.80447 24.913 8.46043C25.1304 8.90679 25.3361 9.35704 25.5418 9.80728C25.7708 10.3041 25.9765 10.8164 26.2249 11.3016C26.5393 11.9188 26.8576 12.5437 27.2341 13.1259C27.5912 13.6693 28.0181 14.17 28.4334 14.6746C28.6081 14.888 28.4334 15.0394 28.3946 15.2141C28.3092 15.5906 28.1928 15.9593 28.1035 16.3319C27.9599 16.9413 27.9909 17.5585 28.022 18.1756C28.0298 18.3386 27.9909 18.4279 27.8279 18.5016C27.5873 18.6181 27.3466 18.785 27.0711 18.9519Z" fill="white"/>
<path id="Vector_10" d="M34.7806 33.6471C34.7107 33.6354 34.6641 33.6354 34.6214 33.616C34.0819 33.4064 33.5463 33.1813 32.999 32.9834C32.5759 32.832 32.1412 32.7 31.7065 32.5875C31.3145 32.4827 30.9108 32.4167 30.511 32.3235C30.2238 32.2575 29.9443 32.1722 29.661 32.1023C29.3815 32.0363 29.0982 31.9781 28.8187 31.916C28.4849 31.8422 28.155 31.7685 27.8212 31.6947C27.6582 31.6598 27.4913 31.621 27.3282 31.5977C27.0876 31.5628 26.847 31.5395 26.6102 31.5046C26.3307 31.4619 26.0551 31.4114 25.7757 31.3648C25.7291 31.3571 25.6825 31.3493 25.6321 31.3493C25.1236 31.3221 24.6151 31.295 24.1067 31.2717C24.0795 31.2717 24.0562 31.26 23.9902 31.2484C24.0679 31.0077 24.1339 30.7749 24.2193 30.5458C24.3396 30.2237 24.4793 29.9054 24.6035 29.5833C24.7277 29.265 24.8403 28.9467 24.9645 28.6284C25.1159 28.248 25.2633 27.8638 25.4264 27.4873C25.6825 26.8857 25.9271 26.2763 26.2143 25.6863C26.5326 25.0342 26.8741 24.3938 27.2429 23.7728C27.499 23.3381 27.8212 22.9422 28.1084 22.5268C28.4384 22.0533 28.8032 21.607 29.2612 21.2576C29.6881 20.9316 30.1462 20.6444 30.5925 20.3455C31.1515 19.969 31.6987 19.5847 32.0636 19.0025C32.1567 18.855 32.2227 18.6571 32.2111 18.4902C32.1839 18.0555 32.1024 17.6207 32.0403 17.1588C31.9627 17.2287 31.9044 17.2792 31.8423 17.3335C31.5939 17.5509 31.3455 17.7721 31.0932 17.9856C31.0466 18.0244 30.969 18.0555 30.9108 18.0477C30.313 17.974 29.7153 17.9041 29.1253 17.7993C28.908 17.7605 28.7062 17.6324 28.4966 17.547C28.4306 17.5198 28.3685 17.4926 28.2637 17.45C28.3297 17.2248 28.3724 16.9764 28.4772 16.7591C28.7295 16.2351 28.9973 15.7227 29.2845 15.2181C29.6144 14.632 30.1423 14.2478 30.7323 13.9606C31.3261 13.6695 31.9433 13.4366 32.5915 13.2813C33.0766 13.1649 33.5541 13.0057 34.0392 12.8971C34.6059 12.769 35.1842 12.7845 35.7626 12.8078C35.879 12.8117 35.9993 12.8544 36.1119 12.8932C36.1507 12.9048 36.1934 12.9553 36.2012 12.9902C36.2051 13.0251 36.174 13.0872 36.143 13.1028C35.7393 13.3046 35.3473 13.5336 34.9242 13.685C34.4468 13.8596 33.9499 13.9722 33.4531 14.0887C33.1193 14.1702 32.7739 14.1973 32.4401 14.275C31.7337 14.4341 31.0273 14.5971 30.3791 14.9348C30.2859 14.9853 30.185 15.1366 30.185 15.2375C30.1928 15.7111 30.2238 16.1885 30.2743 16.6581C30.3014 16.9376 30.3868 16.9337 30.74 16.8018C31.0932 16.6737 31.4581 16.5805 31.8191 16.4874C32.2577 16.3787 32.7001 16.2933 33.1387 16.1807C33.7054 16.0332 34.2799 15.9362 34.866 16.0022C35.0794 16.0255 35.2852 16.107 35.487 16.173C35.5336 16.1885 35.5724 16.2545 35.5879 16.3049C35.5957 16.3243 35.5413 16.3748 35.5064 16.3981C34.7806 16.8988 33.9655 17.2171 33.1581 17.547C33.065 17.5858 32.9718 17.6246 32.8787 17.6557C32.7001 17.7178 32.6225 17.8265 32.638 18.0244C32.6729 18.4552 32.6885 18.89 32.7156 19.3247C32.7273 19.4955 32.7739 19.6624 32.7778 19.8331C32.7817 20.0311 32.8709 20.1863 32.9912 20.3222C33.6045 20.9898 34.2682 21.5992 34.9785 22.1659C35.6927 22.7364 36.3875 23.3381 37.0357 23.9824C37.4898 24.4326 37.8702 24.9605 38.2467 25.4806C38.6697 26.0667 39.0812 26.6644 39.446 27.2893C39.9079 28.0811 40.331 28.8962 40.7502 29.7113C40.9831 30.1616 41.1733 30.6312 41.3829 31.0931C41.4644 31.2717 41.4294 31.3609 41.247 31.4308C40.4397 31.7297 39.6246 32.013 38.825 32.3352C38.2506 32.5681 37.6994 32.8669 37.1327 33.1153C36.7058 33.3016 36.2672 33.4608 35.8363 33.6354C35.7664 33.6626 35.6966 33.6937 35.6112 33.7286C35.6034 33.6471 35.5957 33.5928 35.5957 33.5423C35.5646 31.9781 35.5374 30.41 35.5064 28.8458C35.4792 27.4097 35.4443 25.9735 35.4171 24.5374C35.4132 24.3395 35.3705 24.1687 35.2386 24.0134C34.9552 23.6719 34.6797 23.3225 34.3769 22.9422C34.3575 23.0431 34.3342 23.1168 34.3342 23.1906C34.3342 23.6563 34.3342 24.1221 34.3536 24.5879C34.3614 24.8441 34.4157 25.0963 34.4351 25.3525C34.4701 25.8144 34.4972 26.2724 34.5244 26.7343C34.5749 27.5261 34.6253 28.3218 34.6719 29.1136C34.6797 29.2689 34.6796 29.428 34.6835 29.5833C34.7107 30.8564 34.7418 32.1295 34.7689 33.4026C34.7806 33.4802 34.7806 33.5462 34.7806 33.6471Z" fill="white"/>
<path id="Vector_11" d="M13.7196 29.6692C13.6808 29.4673 13.6303 29.2888 13.6187 29.1102C13.6071 28.9472 13.5256 28.9045 13.3897 28.8851C12.8424 28.8075 12.2951 28.7182 11.744 28.6484C11.2355 28.5824 10.7232 28.5358 10.2108 28.4698C9.6946 28.4038 9.18224 28.3184 8.66602 28.2447C8.36327 28.202 8.06052 28.1826 7.75777 28.1438C7.43561 28.1011 7.11346 28.0506 6.79519 28.004C6.5623 27.9691 6.32941 27.9303 6.09265 27.8992C5.80542 27.8643 5.5143 27.8449 5.22708 27.8061C4.76131 27.7401 4.29554 27.6547 3.82977 27.581C3.6357 27.5499 3.44163 27.5189 3.25144 27.4917C2.85166 27.4335 2.448 27.3947 2.05209 27.3132C1.72217 27.2433 1.35732 27.2006 1.20207 26.828C1.13996 26.6766 1.07398 26.5136 1.0701 26.3544C1.03517 25.1085 0.992459 23.8665 0.99634 22.6205C1.00022 21.491 1.06233 20.3615 1.10115 19.2359C1.10503 19.1505 1.12832 19.0651 1.14773 18.9448C1.39614 18.9681 1.62903 18.9914 1.86579 19.0147C1.92013 19.0186 1.97446 19.0341 2.02491 19.038C2.46351 19.069 2.90601 19.0846 3.34073 19.135C3.84919 19.1932 4.34988 19.2864 4.85835 19.3601C5.09899 19.3951 5.33964 19.4184 5.58029 19.4533C5.8714 19.496 6.1625 19.5503 6.45361 19.6008C6.64768 19.6318 6.83787 19.6668 7.03194 19.6939C7.44337 19.7522 7.85869 19.7987 8.27012 19.8686C8.67379 19.9346 9.06969 20.0239 9.47336 20.1015C9.65191 20.1364 9.83044 20.1636 10.009 20.1869C10.269 20.2218 10.5291 20.2412 10.7892 20.28C11.088 20.3227 11.383 20.3771 11.6819 20.4236C11.744 20.4314 11.8022 20.4353 11.8643 20.4392C12.2214 20.4702 12.5785 20.5013 12.9317 20.5323C13.5527 20.5828 14.1699 20.6371 14.7909 20.6876C14.8569 20.6915 14.9267 20.6876 15.0044 20.6876C15.0121 20.6138 14.9966 20.5362 15.0238 20.4974C15.0704 20.4392 15.1519 20.3654 15.2101 20.3771C15.4352 20.4081 15.6526 20.4858 15.8738 20.5129C16.2231 20.5556 16.5724 20.5944 16.9218 20.6022C18.2609 20.6371 19.6 20.6604 20.9429 20.6876C20.9701 20.6876 20.9973 20.6953 21.071 20.707C21.0167 20.7769 20.9817 20.8312 20.9352 20.8739C20.2482 21.5182 19.5301 22.1392 18.8741 22.8107C17.9737 23.7306 17.1857 24.7553 16.4327 25.7955C15.8311 26.6261 15.2644 27.4839 14.6861 28.334C14.3989 28.7532 14.1233 29.184 13.8399 29.6071C13.8089 29.6304 13.7623 29.642 13.7196 29.6692Z" fill="white"/>
<path id="Vector_12" d="M17.766 31.4762C17.5292 31.612 17.3041 31.7168 17.1023 31.8527C16.3609 32.3573 15.6196 32.8618 14.8938 33.3936C14.1369 33.9486 13.4732 34.6123 12.825 35.2916C12.6348 35.4895 12.4679 35.7069 12.2855 35.9126C12.235 35.967 12.1612 36.0019 12.0952 36.0485C12.072 36.0329 12.0487 36.0213 12.0254 36.0058C12.0681 35.7224 12.0991 35.4391 12.1496 35.1596C12.1807 34.9927 12.2544 34.8336 12.2855 34.6667C12.3708 34.1932 12.5222 33.7468 12.7512 33.3198C13.3955 32.1205 14.1757 31.0065 14.9326 29.8809C15.5225 28.9998 16.1242 28.1265 16.7529 27.2765C18.0028 25.5764 19.369 23.9734 20.9526 22.5722C21.7561 21.8619 22.6061 21.2098 23.5338 20.6664C23.5804 20.6393 23.6269 20.6082 23.6774 20.6043C24.3644 20.5306 25.0242 20.3676 25.6336 20.0376C25.6608 20.0221 25.6996 20.0338 25.7734 20.0299C25.7345 20.1036 25.7151 20.1541 25.6841 20.1929C25.2688 20.6703 24.8263 21.1244 24.442 21.6252C23.8909 22.3471 23.3902 23.1001 22.8623 23.8414C22.3383 24.5789 21.9036 25.3707 21.5349 26.1936C21.267 26.7991 21.0303 27.424 20.8207 28.0528C20.6576 28.5496 20.5334 29.0619 20.4403 29.5743C20.32 30.2341 20.285 30.9056 20.3937 31.5848C20.4519 31.3364 20.5063 31.0842 20.5761 30.8357C20.6965 30.3971 20.809 29.9547 20.9565 29.5277C21.2631 28.6466 21.6629 27.8044 22.1403 27.0009C22.5207 26.3605 22.9166 25.7356 23.3281 25.1145C23.6347 24.6488 23.9568 24.1908 24.2945 23.7483C24.6322 23.3097 24.9971 22.8944 25.358 22.4752C26.0334 21.695 26.8291 21.0585 27.7257 20.55C27.8577 20.4763 28.0052 20.4219 28.1449 20.3598C28.1604 20.3792 28.1721 20.3947 28.1876 20.4142C28.0828 20.5694 27.978 20.7285 27.8693 20.8838C27.2289 21.8115 26.635 22.7624 26.1499 23.7793C25.8471 24.4159 25.5482 25.0602 25.2688 25.7084C25.0747 26.1586 24.9272 26.6283 24.7526 27.0863C24.5701 27.5754 24.376 28.0605 24.1975 28.5496C24.0461 28.9649 23.918 29.388 23.7667 29.8033C23.6153 30.2186 23.4445 30.6223 23.297 31.0376C23.1418 31.4762 23.0098 31.9187 22.8662 32.3573C22.7381 32.7454 22.5945 33.1297 22.4742 33.5217C22.3732 33.8438 22.2995 34.1776 22.2063 34.5037C22.1093 34.853 21.9967 35.2023 21.9036 35.5517C21.8337 35.8156 21.7794 36.0834 21.7173 36.3473C21.6474 36.6462 21.5737 36.9412 21.5038 37.2401C21.4689 37.3876 21.4262 37.5389 21.399 37.6903C21.3097 38.1833 21.2399 38.684 21.1389 39.1769C21.0497 39.6233 20.9488 40.0696 20.8129 40.5005C20.7042 40.8381 20.4869 40.8847 20.2384 40.6324C20.0056 40.3918 19.7805 40.1317 19.6136 39.8445C19.1944 39.1303 18.7907 38.4045 18.422 37.6631C18.1386 37.1003 17.9407 36.4987 17.8591 35.866C17.797 35.3964 17.7194 34.9267 17.7078 34.4571C17.7 34.1233 17.797 33.7895 17.8514 33.4557C17.8553 33.4441 17.8591 33.4285 17.8591 33.4169C17.8708 32.7803 17.9252 32.1477 17.766 31.4762Z" fill="white"/>
<path id="Vector_13" d="M49.7227 21.3366C49.8352 21.3366 49.909 21.3366 49.9827 21.3366C50.8949 21.3366 51.807 21.3521 52.7191 21.3288C53.2159 21.3172 53.7127 21.2357 54.2096 21.1852C54.229 21.1813 54.2484 21.1813 54.2717 21.1813C54.7374 21.1503 55.2032 21.1309 55.669 21.0882C56.0843 21.0494 56.4996 20.9912 56.9149 20.9446C56.9343 20.9407 56.9537 20.9407 56.977 20.9407C57.567 20.9097 58.1569 20.8902 58.743 20.8475C59.2631 20.8087 59.7794 20.7466 60.2956 20.7039C60.5207 20.6845 60.7459 20.7001 60.971 20.6884C61.0991 20.6806 61.2271 20.6651 61.3514 20.6341C61.4717 20.6069 61.5377 20.638 61.5377 20.766C61.5299 21.4763 61.5299 22.1827 61.5144 22.893C61.5066 23.2734 61.4639 23.6499 61.4484 24.0303C61.4135 24.8648 61.3902 25.7032 61.3553 26.5377C61.3397 26.8987 61.3048 27.2558 61.2893 27.6167C61.2815 27.7798 61.165 27.7992 61.0525 27.8147C60.3849 27.9078 59.7134 28.001 59.0458 28.0825C58.5335 28.1446 58.0172 28.1757 57.5088 28.2455C56.8606 28.3348 56.2124 28.4512 55.5642 28.5521C54.8306 28.6686 54.128 28.8898 53.4449 29.1887C53.3013 29.2508 53.2703 29.1305 53.2431 29.0334C53.1034 28.5366 52.983 28.032 52.8317 27.5391C52.6531 26.9608 52.4707 26.3786 52.2417 25.8196C51.8807 24.9463 51.4887 24.0885 50.9763 23.2928C50.6037 22.7184 50.2156 22.1517 49.8391 21.5811C49.8003 21.5074 49.7731 21.4414 49.7227 21.3366Z" fill="white"/>
<path id="Vector_14" d="M34.3438 10.9845C34.3942 10.9107 34.4175 10.8603 34.4524 10.8214C35.3257 9.88602 36.2029 8.95061 37.0801 8.01519C37.9768 7.06424 38.8462 6.08612 39.7816 5.17399C40.3522 4.61895 41.012 4.15318 41.6563 3.67964C42.157 3.31479 42.7431 3.10131 43.3642 3.05862C43.8843 3.02369 44.3617 3.19836 44.7925 3.49334C45.2505 3.80774 45.5804 4.23081 45.891 4.67718C45.9647 4.78197 45.9492 4.84796 45.8444 4.92947C45.2311 5.41076 44.6256 5.90758 44.0123 6.38887C43.3603 6.89734 42.7004 7.40192 42.0367 7.89486C41.5321 8.27524 41.0159 8.64397 40.4997 9.00883C40.0106 9.35427 39.5099 9.68031 39.0209 10.0258C38.6638 10.278 38.3183 10.542 37.969 10.802C37.5886 11.0893 37.2044 11.3726 36.8279 11.6637C36.7463 11.7258 36.7075 11.7258 36.6648 11.6249C36.5561 11.3532 36.3854 11.1281 36.0943 11.0349C35.9312 10.9806 35.7605 10.9185 35.5936 10.9185C35.2792 10.9185 34.9609 10.9612 34.6465 10.9845C34.5611 10.9884 34.4757 10.9845 34.3438 10.9845Z" fill="white"/>
<path id="Vector_15" d="M46.9219 18.409C47.0111 18.3663 47.0732 18.3159 47.1392 18.3081C47.4497 18.2693 47.7602 18.2266 48.0708 18.2189C49.1808 18.1839 50.2948 18.1994 51.3971 18.1179C52.22 18.0597 53.0467 17.9122 53.726 17.3805C53.9511 17.2019 54.1102 16.938 54.3004 16.709C55.1466 17.2563 56.0354 17.8307 56.9243 18.4052C56.9204 18.4207 56.9204 18.4362 56.9165 18.4556C56.7186 18.4867 56.5245 18.5216 56.3265 18.5449C55.9112 18.5953 55.492 18.6419 55.0767 18.6924C55.0418 18.6963 55.0107 18.704 54.9758 18.704C54.1879 18.7351 53.3961 18.7584 52.6081 18.7933C52.0531 18.8166 51.4942 18.8205 50.943 18.8903C50.4112 18.9563 49.8873 19.0805 49.3672 19.2008C48.9713 19.2901 48.9751 19.3056 48.9713 19.7132C48.9713 19.8568 48.9751 20.0004 48.9674 20.144C48.9635 20.2139 48.9325 20.2799 48.9169 20.3459C48.8548 20.3071 48.7811 20.276 48.7345 20.2255C48.5288 20.0159 48.3386 19.7908 48.129 19.5812C47.7447 19.1931 47.3449 18.8205 46.9219 18.409Z" fill="white"/>
<path id="Vector_16" d="M23.5817 3.854C24.0359 4.1063 24.4318 4.42845 24.7694 4.836C25.3594 5.55018 25.8058 6.34976 26.2056 7.1765C26.4617 7.70825 26.6791 8.25941 26.9042 8.80669C27.1759 9.46653 27.4437 10.1264 27.7077 10.7901C27.991 11.512 28.2627 12.2379 28.5499 12.9559C28.6509 13.2121 28.7867 13.4566 28.9031 13.7089C28.9225 13.7516 28.9342 13.8021 28.9497 13.8448C28.9342 13.8564 28.9226 13.8642 28.907 13.8758C28.8644 13.8409 28.81 13.8176 28.7751 13.7749C28.1657 13.0568 27.6417 12.2844 27.2303 11.4344C26.9003 10.7552 26.5743 10.072 26.2677 9.38114C25.9455 8.65532 25.6816 7.90232 25.3322 7.18814C24.9247 6.3614 24.4551 5.56571 24.0087 4.75837C23.8767 4.52161 23.7254 4.29649 23.5895 4.06361C23.5585 4.00927 23.5546 3.94328 23.5352 3.88118C23.5468 3.8773 23.5623 3.86565 23.5817 3.854Z" fill="white"/>
<path id="Vector_17" d="M11.6925 18.7004C11.4441 18.6732 11.1996 18.6538 10.9551 18.615C10.695 18.5761 10.4427 18.514 10.1827 18.4714C9.66643 18.386 9.14632 18.3083 8.62621 18.2307C8.37391 18.1919 8.11775 18.1686 7.86158 18.1298C7.57436 18.0871 7.29101 18.0328 7.00378 17.9901C6.74373 17.9512 6.47979 17.9241 6.21973 17.8814C6.16927 17.8736 6.11882 17.8387 6.06836 17.8154C6.11105 17.7843 6.14598 17.7378 6.19644 17.7222C6.8524 17.5126 7.51225 17.3147 8.16821 17.0973C8.96778 16.8295 9.76346 16.5501 10.563 16.2745C10.5786 16.2706 10.6018 16.2784 10.6484 16.2861C10.8231 17.1594 11.1918 17.9551 11.774 18.6538C11.7469 18.6732 11.7197 18.6848 11.6925 18.7004Z" fill="white"/>
</g>
<g id="Group_2">
<path id="Vector_18" d="M47.5788 33.2484C46.9306 34.6418 46.2707 36.0275 45.6497 37.4287C45.3469 38.1118 45.1141 38.8299 44.8656 39.5363C44.757 39.8468 44.6871 40.169 44.5978 40.4911C44.3999 40.5144 44.0816 40.2699 43.9846 40.0254C43.8759 39.7575 43.8875 39.4858 43.9225 39.2025C43.938 39.0705 43.9186 38.9347 43.8953 38.8027C43.8293 38.4728 43.7478 38.1468 43.6818 37.8168C43.6158 37.4986 43.5615 37.1803 43.4916 36.8659C43.4179 36.5204 43.3364 36.175 43.2587 35.8257C43.1927 35.5307 43.1384 35.2318 43.0724 34.9368C43.0064 34.638 42.9288 34.3391 42.8589 34.0363C42.793 33.7685 42.7309 33.5007 42.6649 33.2368C42.595 32.9534 42.5213 32.6662 42.4436 32.3829C42.3544 32.0529 42.269 31.723 42.1758 31.3931C42.0633 31.0088 41.9585 30.6207 41.8187 30.2442C41.6247 29.7124 41.419 29.1846 41.1861 28.6722C40.8639 27.9619 40.5379 27.2516 40.1653 26.5685C39.7888 25.8776 39.3735 25.2022 38.9349 24.5502C38.3216 23.6419 37.6579 22.7725 36.7729 22.101C36.0665 21.5654 35.3639 21.0258 34.6614 20.4863C34.25 20.168 33.8502 19.8381 33.4465 19.5082C33.3999 19.4694 33.3728 19.4034 33.334 19.3529C33.3883 19.3258 33.4427 19.287 33.5009 19.2676C34.3509 18.9842 35.131 18.5728 35.787 17.9556C36.0005 17.7577 36.1169 17.5015 36.1907 17.2182C36.3459 16.6204 36.2334 16.0149 36.2605 15.4133C36.2644 15.3629 36.2334 15.3124 36.214 15.2619C36.1635 15.1183 36.1635 14.998 36.2877 14.8738C36.5711 14.5943 36.7535 14.2683 36.7651 13.853C36.7729 13.5852 36.804 13.3135 36.8467 13.0495C36.8622 12.9603 36.9398 12.8555 37.0174 12.8011C37.7627 12.3198 38.5195 11.8579 39.257 11.3689C39.9091 10.938 40.5456 10.4839 41.1861 10.0376C41.7877 9.61837 42.3893 9.19529 42.987 8.76834C43.6507 8.29092 44.2989 7.79798 44.9665 7.33222C45.4905 6.96348 46.034 6.6258 46.5696 6.27259C46.7016 6.1872 46.7831 6.1872 46.8646 6.36186C47.1324 6.94019 47.4235 7.51076 47.7029 8.08521C47.7224 8.08909 47.7418 8.08909 47.7612 8.09298C47.7883 7.70872 47.8194 7.32445 47.8466 6.94019C47.866 6.6452 47.7262 6.39679 47.6137 6.1445C47.5011 5.88833 47.5283 5.80682 47.7806 5.74084C48.355 5.59722 48.9295 5.46914 49.5311 5.4769C50.2957 5.48466 50.8819 5.79517 51.2467 6.45501C51.4874 6.88973 51.6659 7.36327 51.8483 7.82904C52.0734 8.39961 52.2791 8.97406 52.4849 9.54851C52.6595 10.0298 52.8225 10.515 52.9972 10.9963C53.1525 11.4271 53.331 11.8502 53.463 12.2849C53.5755 12.6536 53.6493 13.034 53.7308 13.4105C53.7696 13.6007 53.8123 13.7986 53.8045 13.9888C53.7812 14.7418 53.4242 15.196 52.6828 15.4133C52.0696 15.5919 51.4446 15.6151 50.8158 15.654C50.1793 15.6928 49.5427 15.751 48.9062 15.8015C48.5142 15.8325 48.1221 15.8597 47.7301 15.9024C47.3924 15.9373 47.0587 15.9955 46.7249 16.0421C46.4959 16.0732 46.2707 16.1081 46.0417 16.1391C45.5915 16.1974 45.1412 16.2556 44.6948 16.3177C44.5939 16.3332 44.4969 16.3681 44.3999 16.3876C44.1359 16.4458 43.9341 16.2828 43.709 16.2012C43.1772 16.0149 42.6494 15.8053 42.1021 15.6734C41.5043 15.5298 40.8872 15.5492 40.2817 15.6617C40.0566 15.7044 39.9518 15.8325 39.9518 16.0693C39.9479 16.4108 39.9479 16.7524 39.9518 17.0901C39.9557 17.2259 39.9013 17.2725 39.7694 17.3036C39.2531 17.42 38.7408 17.5597 38.2284 17.6878C38.1702 17.7034 38.1042 17.6995 38.046 17.715C37.9101 17.7499 37.8442 17.812 37.8053 17.9789C37.6889 18.4641 37.8752 18.9376 37.8247 19.4151C37.8092 19.5509 37.8869 19.6169 38.0266 19.6014C38.5234 19.5509 39.0202 19.5004 39.5171 19.4461C39.7461 19.4228 39.9712 19.3879 40.2002 19.3607C40.4952 19.3258 40.7901 19.3064 41.0851 19.2637C41.3452 19.2287 41.6014 19.1705 41.8576 19.124C42.0361 19.0929 42.2147 19.0657 42.3971 19.0386C42.7425 18.9842 43.0879 18.8949 43.4334 18.8911C43.6313 18.8911 43.8332 19.023 44.0273 19.1201C45.0248 19.6052 45.9486 20.2069 46.8025 20.9133C47.6253 21.5925 48.3745 22.3455 49.0731 23.1567C49.8222 24.0301 50.5092 24.9499 51.0837 25.9397C51.5999 26.8324 52.054 27.764 52.4849 28.7033C52.7139 29.2001 52.8381 29.7474 53.005 30.2753C53.2301 30.9933 53.2844 31.7347 53.2456 32.476C53.2262 32.8642 53.1602 33.2523 53.0942 33.6366C53.0244 34.0402 52.9468 34.4478 52.8303 34.8437C52.7022 35.2745 52.5353 35.6937 52.3684 36.109C52.1821 36.5709 51.9919 37.0289 51.7746 37.4753C51.6465 37.7353 51.4834 37.9876 51.301 38.2127C51.0565 38.5155 50.7305 38.5038 50.5597 38.0769C50.4471 37.7974 50.3966 37.4986 50.3035 37.2113C50.1832 36.8465 50.0628 36.4777 49.9153 36.1245C49.7329 35.6898 49.5466 35.2551 49.3176 34.8475C48.9334 34.1722 48.4094 33.6288 47.6952 33.2911C47.6292 33.2795 47.5865 33.2523 47.5788 33.2484Z" fill="#E30D16"/>
<path id="Vector_19" d="M27.073 18.9397C27.073 18.831 27.0691 18.7534 27.073 18.6757C27.0963 18.2333 27.1429 17.7869 27.1312 17.3444C27.1273 17.1736 27.0381 16.999 26.8945 16.8592C26.0212 16.0131 25.1711 15.1437 24.2901 14.3014C23.7311 13.7696 23.1528 13.2573 22.5551 12.7682C21.8719 12.2054 21.1151 11.7474 20.2961 11.4059C19.8575 11.2234 19.3956 11.0798 18.9104 11.0565C18.4718 11.0371 18.0332 10.9828 17.5946 10.9906C17.2958 10.9944 16.9969 11.0643 16.7058 11.1342C16.3215 11.2273 15.9295 11.3205 15.5685 11.4757C15.1222 11.6659 14.6836 11.891 14.2799 12.1588C13.7365 12.5198 13.2397 12.9507 12.8632 13.4941C12.6652 13.7774 12.475 14.0724 12.3198 14.379C12.2577 14.4993 12.2848 14.674 12.3042 14.8215C12.3469 15.132 12.4129 15.4386 12.475 15.788C12.6148 15.625 12.739 15.4891 12.8593 15.3455C13.5036 14.6003 14.2682 14.0103 15.1726 13.6183C15.6461 13.4125 16.143 13.2146 16.6475 13.1408C17.2957 13.0438 17.9595 13.0322 18.6154 13.0516C19.054 13.0671 19.4926 13.1719 19.9196 13.2883C20.8666 13.5484 21.7477 13.9598 22.5434 14.5459C23.6108 15.3338 24.5191 16.2926 25.4157 17.259C25.5787 17.4337 25.7417 17.6045 25.9125 17.7714C26.0018 17.8568 26.0211 17.9305 25.8969 17.9887C25.5515 18.1479 25.2099 18.3264 24.849 18.4545C24.4802 18.5865 24.096 18.6757 23.7156 18.7689C23.5254 18.8155 23.3313 18.8504 23.1373 18.8582C22.198 18.8931 21.2626 18.9242 20.3233 18.9358C19.9079 18.9397 19.4965 18.8931 19.0812 18.8621C18.3903 18.8116 17.7033 18.7573 17.0124 18.6952C16.5622 18.6525 16.108 18.6175 15.6656 18.5321C15.1338 18.4312 14.6137 18.2837 14.0897 18.144C13.4143 17.9655 12.7855 17.686 12.1994 17.3056C11.757 17.0145 11.3766 16.6574 11.0971 16.2033C11.0622 16.1451 11.0583 16.0636 11.0583 15.9898C11.0544 15.6832 11.0583 15.3765 11.0544 15.0699C11.0505 14.7904 11.0311 14.771 10.709 14.7439C10.7362 14.5343 10.7556 14.3247 10.7866 14.119C10.8138 13.9404 10.8448 13.7619 10.8875 13.5872C11.0195 13.0477 11.1282 12.5004 11.299 11.9725C11.5241 11.27 11.757 10.5636 12.0558 9.89211C12.4323 9.04596 12.8865 8.23086 13.3872 7.44682C14.1906 6.197 15.1338 5.05975 16.1546 3.9846C16.8688 3.23161 17.68 2.57952 18.6465 2.15645C19.0152 1.99343 19.3917 1.82265 19.8109 1.87699C19.9894 1.90028 20.1641 1.96238 20.331 2.02449C20.4475 2.06718 20.4552 2.13704 20.3349 2.20302C19.6168 2.60281 18.9492 3.07634 18.3321 3.61974C17.6218 4.24077 16.9697 4.92002 16.3914 5.66137C16.0382 6.11161 15.6772 6.56186 15.3628 7.04315C14.9397 7.69911 14.5361 8.37059 14.1634 9.0576C13.8917 9.56607 13.6589 10.0978 13.4609 10.6412C13.3794 10.8625 13.4298 11.138 13.4376 11.3903C13.4454 11.5844 13.4842 11.7746 13.5114 11.9687C13.5153 11.992 13.523 12.0152 13.5308 12.0502C13.8607 11.4486 14.1712 10.8625 14.505 10.2919C14.7068 9.94645 14.932 9.61265 15.1726 9.29437C15.5918 8.7471 16.0032 8.18817 16.4651 7.6797C17.024 7.06644 17.6062 6.47258 18.2234 5.92142C19.0812 5.1529 20.0244 4.4853 21.084 4.01177C21.3712 3.88368 21.6701 3.79052 21.9573 3.6702C22.1126 3.60422 22.1902 3.69737 22.2601 3.7944C22.5434 4.20583 22.8268 4.61727 23.0907 5.04034C23.3857 5.51387 23.6807 5.99129 23.9446 6.48811C24.2862 7.13243 24.5967 7.79227 24.915 8.44822C25.1323 8.89459 25.338 9.34483 25.5437 9.79507C25.7728 10.2919 25.9785 10.8042 26.2269 11.2894C26.5413 11.9066 26.8595 12.5315 27.236 13.1137C27.5931 13.6571 28.0201 14.1578 28.4354 14.6624C28.6101 14.8758 28.4354 15.0272 28.3966 15.2019C28.3112 15.5784 28.1948 15.9471 28.1055 16.3197C27.9619 16.9291 27.9929 17.5463 28.024 18.1634C28.0317 18.3264 27.9929 18.4157 27.8299 18.4894C27.5892 18.6059 27.3486 18.7767 27.073 18.9397Z" fill="#E30D16"/>
<path id="Vector_20" d="M17.7699 31.4664C17.5332 31.6023 17.308 31.7071 17.1062 31.8429C16.3648 32.3475 15.6235 32.8521 14.8977 33.3838C14.1408 33.9389 13.4771 34.6026 12.8289 35.2818C12.6387 35.4798 12.4718 35.6971 12.2894 35.9029C12.2389 35.9572 12.1651 35.9921 12.0992 36.0387C12.0759 36.0232 12.0526 36.0115 12.0293 35.996C12.072 35.7127 12.1031 35.4293 12.1535 35.1499C12.1846 34.983 12.2583 34.8238 12.2894 34.6569C12.3748 34.1834 12.5261 33.737 12.7551 33.3101C13.3994 32.1107 14.1796 30.9968 14.9365 29.8711C15.5264 28.9901 16.1281 28.1168 16.7569 27.2667C18.0067 25.5667 19.3729 23.9636 20.9565 22.5624C21.76 21.8521 22.61 21.2001 23.5377 20.6567C23.5843 20.6295 23.6308 20.5984 23.6813 20.5946C24.3683 20.5208 25.0281 20.3578 25.6375 20.0279C25.6647 20.0124 25.7035 20.024 25.7773 20.0201C25.7385 20.0939 25.7191 20.1443 25.688 20.1831C25.2727 20.6606 24.8302 21.1147 24.446 21.6154C23.8948 22.3373 23.3941 23.0903 22.8662 23.8317C22.3422 24.5691 21.9075 25.3609 21.5388 26.1838C21.2709 26.7893 21.0342 27.4142 20.8246 28.043C20.6615 28.5398 20.5373 29.0522 20.4442 29.5645C20.3239 30.2244 20.2889 30.8958 20.3976 31.5751C20.4558 31.3267 20.5102 31.0744 20.58 30.826C20.7004 30.3874 20.8129 29.9449 20.9604 29.5179C21.267 28.6369 21.6668 27.7946 22.1442 26.9911C22.5246 26.3507 22.9205 25.7258 23.332 25.1048C23.6386 24.639 23.9607 24.181 24.2984 23.7385C24.6361 23.2999 25.001 22.8846 25.362 22.4654C26.0373 21.6852 26.833 21.0487 27.7296 20.5402C27.8616 20.4665 28.0091 20.4121 28.1488 20.35C28.1643 20.3694 28.176 20.385 28.1915 20.4044C28.0867 20.5596 27.9819 20.7188 27.8732 20.874C27.2328 21.8017 26.639 22.7526 26.1538 23.7696C25.851 24.4061 25.5521 25.0504 25.2727 25.6986C25.0786 26.1489 24.9311 26.6185 24.7565 27.0765C24.574 27.5656 24.3799 28.0508 24.2014 28.5398C24.05 28.9551 23.9219 29.3782 23.7706 29.7935C23.6192 30.2088 23.4484 30.6125 23.3009 31.0278C23.1457 31.4664 23.0137 31.9089 22.8701 32.3475C22.742 32.7356 22.5984 33.1199 22.4781 33.5119C22.3772 33.8341 22.3034 34.1679 22.2102 34.4939C22.1132 34.8432 22.0006 35.1926 21.9075 35.5419C21.8376 35.8058 21.7833 36.0736 21.7212 36.3376C21.6513 36.6364 21.5776 36.9314 21.5077 37.2303C21.4728 37.3778 21.4301 37.5292 21.4029 37.6805C21.3136 38.1735 21.2438 38.6742 21.1428 39.1671C21.0536 39.6135 20.9527 40.0598 20.8168 40.4907C20.7082 40.8284 20.4908 40.875 20.2424 40.6227C20.0095 40.382 19.7844 40.122 19.6175 39.8347C19.1983 39.1205 18.7946 38.3947 18.4259 37.6534C18.1425 37.0906 17.9446 36.4889 17.8631 35.8563C17.801 35.3866 17.7233 34.917 17.7117 34.4473C17.7039 34.1135 17.8009 33.7797 17.8553 33.4459C17.8592 33.4343 17.8631 33.4188 17.8631 33.4071C17.8747 32.7706 17.9291 32.1379 17.7699 31.4664Z" fill="#E30D16"/>
<path id="Vector_21" d="M34.3477 10.9713C34.3981 10.8975 34.4214 10.8471 34.4563 10.8083C35.3296 9.87284 36.2069 8.93742 37.0841 8.002C37.9807 7.05105 38.8501 6.07294 39.7855 5.1608C40.3561 4.60576 41.0159 4.13999 41.6603 3.66646C42.161 3.30161 42.747 3.08813 43.3681 3.04544C43.8882 3.0105 44.3656 3.18516 44.7964 3.48015C45.2544 3.79455 45.5843 4.21762 45.8949 4.66398C45.9686 4.76878 45.9531 4.83476 45.8483 4.91627C45.235 5.39757 44.6295 5.89438 44.0162 6.37568C43.3642 6.88414 42.7043 7.38873 42.0406 7.88167C41.536 8.26205 41.0198 8.63078 40.5036 8.99563C40.0145 9.34108 39.5138 9.66713 39.0248 10.0126C38.6677 10.2649 38.3222 10.5288 37.9729 10.7889C37.5925 11.0761 37.2083 11.3594 36.8318 11.6505C36.7503 11.7126 36.7114 11.7126 36.6687 11.6117C36.5601 11.34 36.3893 11.1149 36.0982 11.0217C35.9351 10.9674 35.7644 10.9053 35.5975 10.9053C35.2831 10.9053 34.9648 10.948 34.6504 10.9713C34.565 10.979 34.4796 10.9713 34.3477 10.9713Z" fill="#E30D16"/>
<path id="Vector_22" d="M23.5837 3.8457C24.0378 4.09799 24.4337 4.42015 24.7714 4.8277C25.3614 5.54188 25.8077 6.34146 26.2075 7.1682C26.4637 7.69995 26.681 8.25111 26.9062 8.79839C27.1779 9.45823 27.4457 10.1181 27.7096 10.7818C27.993 11.5037 28.2647 12.2296 28.5519 12.9476C28.6528 13.2038 28.7887 13.4483 28.9051 13.7006C28.9245 13.7433 28.9362 13.7938 28.9517 13.8365C28.9362 13.8481 28.9245 13.8559 28.909 13.8675C28.8663 13.8326 28.8119 13.8093 28.777 13.7666C28.1676 13.0485 27.6437 12.2761 27.2322 11.4261C26.9023 10.7469 26.5763 10.0637 26.2696 9.37284C25.9475 8.64702 25.6835 7.89402 25.3342 7.17984C24.9266 6.3531 24.457 5.55741 24.0106 4.75007C23.8787 4.51331 23.7273 4.28819 23.5915 4.05531C23.5604 4.00097 23.5565 3.93497 23.5371 3.87287C23.5488 3.86511 23.5643 3.85347 23.5837 3.8457Z" fill="#E30D16"/>
</g>
</g>
</svg>
