<svg width="193" height="128" viewBox="0 0 193 128" fill="none" xmlns="http://www.w3.org/2000/svg">
<g id="Group 217">
<line id="Line 14" x1="90.5" y1="84.4131" x2="192.5" y2="84.4131" stroke="#EB0002" stroke-linecap="round" stroke-linejoin="round"/>
<g id="Group 216">
<g id="chic me, please">
<path d="M94.6409 99.585C95.8366 99.585 96.8443 99.0746 97.4085 98.1107L96.6965 97.6004C96.2128 98.3517 95.4604 98.6919 94.6409 98.6919C93.0959 98.6919 91.9673 97.5436 91.9673 95.7858C91.9673 94.0422 93.0959 92.8798 94.6409 92.8798C95.4604 92.8798 96.2128 93.2342 96.6965 93.9855L97.4085 93.4752C96.8443 92.497 95.8366 92.0009 94.6409 92.0009C92.5316 92.0009 91 93.5602 91 95.7858C91 98.0114 92.5316 99.585 94.6409 99.585Z" fill="#818181"/>
<path d="M102.778 92.0009C101.582 92.0009 100.655 92.497 100.131 93.3618V88.9956H99.1774V99.5141H100.131V95.6016C100.131 93.9005 101.085 92.9081 102.603 92.9081C103.947 92.9081 104.726 93.7162 104.726 95.2897V99.5141H105.68V95.1905C105.68 93.0499 104.498 92.0009 102.778 92.0009Z" fill="#818181"/>
<path d="M108.753 90.4274C109.156 90.4274 109.452 90.1013 109.452 89.6902C109.452 89.3075 109.143 88.9956 108.753 88.9956C108.364 88.9956 108.055 89.3217 108.055 89.7044C108.055 90.1013 108.364 90.4274 108.753 90.4274ZM108.27 99.5141H109.224V92.0576H108.27V99.5141Z" fill="#818181"/>
<path d="M114.807 99.585C116.002 99.585 117.01 99.0746 117.574 98.1107L116.862 97.6004C116.379 98.3517 115.626 98.6919 114.807 98.6919C113.262 98.6919 112.133 97.5436 112.133 95.7858C112.133 94.0422 113.262 92.8798 114.807 92.8798C115.626 92.8798 116.379 93.2342 116.862 93.9855L117.574 93.4752C117.01 92.497 116.002 92.0009 114.807 92.0009C112.697 92.0009 111.166 93.5602 111.166 95.7858C111.166 98.0114 112.697 99.585 114.807 99.585Z" fill="#818181"/>
<path d="M131.778 92.0009C130.501 92.0009 129.494 92.6104 128.983 93.5744C128.553 92.5254 127.64 92.0009 126.471 92.0009C125.289 92.0009 124.375 92.5254 123.878 93.4185V92.0576H122.964V99.5141H123.918V95.6016C123.918 93.9005 124.845 92.9081 126.283 92.9081C127.573 92.9081 128.325 93.7162 128.325 95.2897V99.5141H129.279V95.6016C129.279 93.9005 130.192 92.9081 131.643 92.9081C132.92 92.9081 133.672 93.7162 133.672 95.2897V99.5141H134.626V95.1905C134.626 93.0499 133.497 92.0009 131.778 92.0009Z" fill="#818181"/>
<path d="M143.406 95.7858C143.406 93.5461 141.968 92.0009 139.98 92.0009C137.991 92.0009 136.527 93.5744 136.527 95.7858C136.527 97.9973 138.032 99.585 140.235 99.585C141.35 99.585 142.331 99.1597 142.962 98.3658L142.425 97.7138C141.888 98.3658 141.122 98.6919 140.262 98.6919C138.717 98.6919 137.588 97.6571 137.481 96.0977H143.392C143.392 95.9843 143.406 95.8709 143.406 95.7858ZM139.98 92.8656C141.364 92.8656 142.371 93.8863 142.492 95.3464H137.481C137.602 93.8863 138.609 92.8656 139.98 92.8656Z" fill="#818181"/>
<path d="M145.455 98.0398C145.052 98.0398 144.743 98.3658 144.743 98.8053C144.743 99.1739 144.944 99.4432 145.226 99.5283L144.77 101.584H145.414L145.979 99.6275C146.113 99.2306 146.167 99.0463 146.167 98.8053C146.167 98.38 145.871 98.0398 145.455 98.0398Z" fill="#818181"/>
<path d="M155.352 92.0009C154.183 92.0009 153.202 92.5396 152.624 93.5319V92.0576H151.711V102.264H152.664V98.1107C153.256 99.0746 154.223 99.585 155.352 99.585C157.367 99.585 158.871 98.054 158.871 95.7858C158.871 93.5319 157.367 92.0009 155.352 92.0009ZM155.284 98.6919C153.78 98.6919 152.651 97.5295 152.651 95.7858C152.651 94.0564 153.78 92.8798 155.284 92.8798C156.776 92.8798 157.918 94.0564 157.918 95.7858C157.918 97.5295 156.776 98.6919 155.284 98.6919Z" fill="#818181"/>
<path d="M160.816 99.5141H161.77V88.9956H160.816V99.5141Z" fill="#818181"/>
<path d="M170.591 95.7858C170.591 93.5461 169.153 92.0009 167.165 92.0009C165.176 92.0009 163.712 93.5744 163.712 95.7858C163.712 97.9973 165.217 99.585 167.42 99.585C168.535 99.585 169.516 99.1597 170.147 98.3658L169.61 97.7138C169.073 98.3658 168.307 98.6919 167.447 98.6919C165.902 98.6919 164.773 97.6571 164.666 96.0977H170.577C170.577 95.9843 170.591 95.8709 170.591 95.7858ZM167.165 92.8656C168.549 92.8656 169.556 93.8863 169.677 95.3464H164.666C164.787 93.8863 165.794 92.8656 167.165 92.8656Z" fill="#818181"/>
<path d="M174.808 92.0009C173.692 92.0009 172.645 92.3695 171.932 93.0074L172.362 93.7587C172.94 93.22 173.8 92.8798 174.714 92.8798C176.03 92.8798 176.715 93.5744 176.715 94.8502V95.3039H174.472C172.443 95.3039 171.744 96.2678 171.744 97.4161C171.744 98.7061 172.725 99.585 174.324 99.585C175.493 99.585 176.326 99.1172 176.756 98.3517V99.5141H177.669V94.8928C177.669 92.9648 176.635 92.0009 174.808 92.0009ZM174.472 98.7911C173.343 98.7911 172.685 98.2524 172.685 97.3877C172.685 96.6222 173.128 96.0552 174.499 96.0552H176.715V97.2743C176.339 98.2524 175.546 98.7911 174.472 98.7911Z" fill="#818181"/>
<path d="M182.154 99.585C183.995 99.585 185.07 98.7486 185.07 97.4586C185.07 94.5951 180.489 96.1119 180.489 94.0989C180.489 93.3901 181.053 92.8656 182.329 92.8656C183.055 92.8656 183.794 93.0499 184.412 93.5035L184.828 92.6955C184.237 92.2702 183.243 92.0009 182.329 92.0009C180.529 92.0009 179.535 92.9081 179.535 94.1273C179.535 97.0758 184.116 95.5449 184.116 97.4869C184.116 98.2241 183.565 98.7061 182.222 98.7061C181.227 98.7061 180.274 98.3375 179.709 97.8697L179.279 98.6635C179.857 99.188 180.986 99.585 182.154 99.585Z" fill="#818181"/>
<path d="M193 95.7858C193 93.5461 191.562 92.0009 189.574 92.0009C187.586 92.0009 186.121 93.5744 186.121 95.7858C186.121 97.9973 187.626 99.585 189.829 99.585C190.944 99.585 191.925 99.1597 192.557 98.3658L192.019 97.7138C191.482 98.3658 190.716 98.6919 189.856 98.6919C188.311 98.6919 187.183 97.6571 187.075 96.0977H192.987C192.987 95.9843 193 95.8709 193 95.7858ZM189.574 92.8656C190.958 92.8656 191.965 93.8863 192.086 95.3464H187.075C187.196 93.8863 188.204 92.8656 189.574 92.8656Z" fill="#818181"/>
</g>
<path id="Vector" d="M36.7202 63.5388C36.7775 63.0947 38.0429 60.8271 38.2891 60.5524C38.5353 60.2661 39.1995 59.8219 39.3885 59.7109C39.5775 59.5998 39.7492 59.7459 40.3963 59.8686C41.0376 60.0031 41.4613 59.9154 41.9766 59.6524C42.4919 59.3894 43.2535 59.4596 43.7116 59.6524C44.1696 59.8453 46.0191 62.0018 46.2023 62.2414C46.5058 62.6505 46.1107 63.1297 46.0764 63.1882C46.042 63.2466 45.8645 63.1999 45.7385 63.2232C45.6126 63.2349 45.7843 63.8252 45.7843 63.8252C45.7843 63.8252 45.9275 64.3746 45.9847 64.7837C46.042 65.1927 45.4923 65.6135 45.4923 65.6135C45.4923 65.6135 44.6277 65.3155 44.37 65.1109C44.1124 64.9064 43.5627 64.8129 43.3279 64.8129C43.0817 64.8129 42.721 65.1226 42.7668 65.4967C42.8126 65.8707 42.9672 66.3499 42.9672 66.3499C42.9672 66.3499 41.4785 66.385 41.0261 66.4317C40.5795 66.4785 39.2454 66.8291 38.73 66.6947C38.2147 66.5603 37.9456 65.748 37.9685 65.4967C37.9799 65.2453 37.8654 64.8129 37.8253 64.7661C37.791 64.7194 37.6249 64.6609 37.2298 64.5849C36.8233 64.5265 36.663 63.983 36.7202 63.5388ZM42.7611 63.9362C42.8527 64.281 43.3222 64.281 43.3222 64.281C43.66 64.6317 43.7173 64.0648 43.3795 63.72L43.2363 63.5739C42.6408 63.083 42.6637 63.5797 42.7611 63.9362ZM42.9557 61.5401C43.013 61.6628 43.0588 60.9148 43.1905 60.9674C43.6371 61.1369 43.7975 60.3771 43.3566 60.2251C43.2306 60.1784 43.1218 60.1433 42.9844 60.1316C42.5148 60.0615 42.7611 61.1544 42.9557 61.5401ZM41.0948 64.6317L41.238 64.4856C41.1693 63.8135 41.0261 63.6323 40.6883 63.983L40.5451 64.1291C40.2073 64.4739 40.757 64.9824 41.0948 64.6317ZM40.4421 61.2245C40.8028 61.5343 40.7341 61.2011 40.4421 60.8154C40.1042 60.3713 39.6691 60.1784 39.1423 60.6342C38.7815 60.944 39.0392 61.3998 39.3999 61.0901C39.6691 60.868 40.15 60.9732 40.4421 61.2245ZM39.3541 64.6668C39.6347 64.3921 39.6576 63.5622 39.3198 63.9129C38.8274 64.3921 39.0163 65.0057 39.3541 64.6668Z" fill="#EB0002"/>
<path id="Vector_2" d="M36.3141 56.5544C35.5525 57.4193 35.2605 59.155 36.6519 59.5524C36.7664 59.5875 36.8752 59.5291 36.9325 59.4356C37.1558 59.1141 36.5374 58.968 36.3942 58.8219C35.7758 58.1732 36.148 57.3375 36.4171 56.6128C36.4572 56.5544 36.3656 56.5018 36.3141 56.5544ZM37.6768 57.4251C37.5508 57.6764 37.4421 57.9862 37.5508 58.2667C37.6196 58.4479 37.8658 58.5648 38.0204 58.4011C38.0318 58.3894 38.0433 58.3778 38.0547 58.3544C38.0662 58.4245 38.1005 58.5005 38.1692 58.5355C38.5185 58.7518 38.9193 58.5005 39.0339 58.1264C39.1598 57.729 38.9537 57.4544 38.696 57.2148C38.7762 56.9985 38.5529 56.7005 38.3124 56.8524C38.1349 56.9576 37.986 57.0686 37.8429 57.2031C37.7971 57.2381 37.7513 57.2732 37.7398 57.3492C37.7226 57.3667 37.6997 57.3901 37.6768 57.4251ZM18.1057 85.641C18.1171 85.6176 18.1057 85.5826 18.0713 85.606C13.857 88.4988 10.0779 92.4788 6.65956 96.2775C3.642 99.6496 1.03099 103.355 0.0117753 107.878C-0.102743 108.381 0.653077 108.597 0.76187 108.094C2.97207 98.1535 12.1049 92.9229 18.1057 85.641ZM37.9574 52.7615C37.9001 52.668 37.757 52.6913 37.7684 52.8199C37.7913 53.3342 37.9803 53.7199 37.8601 54.2342C37.7169 54.8478 37.7169 55.2394 38.0376 55.7829C38.0719 55.8414 38.1521 55.7946 38.1177 55.7245C37.8257 55.0875 38.175 54.5849 38.2322 53.9478C38.2723 53.5446 38.1406 53.1004 37.9574 52.7615ZM23.3162 45.6549C23.2933 45.7016 23.3391 45.7367 23.3735 45.7016C24.5072 44.7315 25.5837 44.1529 26.7919 43.8549C27.4332 43.8081 28.0802 43.7497 28.7329 43.6971C30.0442 43.662 31.3325 43.7789 32.6094 44.2698C32.8556 44.3633 33.0904 44.077 33.0217 43.849C32.9873 43.7263 32.9415 43.6445 32.8957 43.5393C33.2221 43.7555 33.3996 43.8899 33.6458 44.1997C33.6916 44.2581 33.5198 44.3049 33.5198 44.3575C33.5198 44.5386 34.247 44.2873 34.0695 44.0594C33.8576 43.7847 33.7546 43.5685 33.4855 43.3523C33.2278 43.1477 33.0388 43.0659 32.7468 42.9198C32.701 42.8964 32.701 42.9549 32.7354 42.9899C32.89 43.0951 33.0388 43.2412 33.182 43.399C33.0675 43.3406 32.9358 43.2938 32.7983 43.2763C32.7869 43.2763 32.7869 43.2763 32.7754 43.288C32.472 42.762 31.991 42.4698 31.2867 42.3529C29.861 42.1016 27.8454 42.1951 26.4884 42.686C26.3223 42.7445 26.2536 42.9607 26.2994 43.1068C26.1448 43.1536 25.9845 43.1886 25.8299 43.2529C25.7039 43.2997 25.7268 43.4808 25.8643 43.4925C25.8757 43.4925 25.8986 43.4925 25.9101 43.4925C24.8107 43.8549 23.843 44.5153 23.3162 45.6549ZM40.1561 49.7166C40.179 49.8861 39.9443 49.8861 39.887 49.7517C39.6408 49.1147 39.721 48.5419 39.9901 48.0393C39.9557 48.0393 39.9214 48.0276 39.887 48.0043C38.696 47.1627 37.631 47.8465 36.4114 48.127C36.9496 48.6062 37.4306 49.1731 37.5337 49.8919C37.5909 50.266 37.0412 50.4413 36.9725 50.0497C36.795 49.103 35.8961 48.0686 34.8654 47.4023C34.9685 47.7647 34.8539 48.1328 35.249 48.3491C36.1881 48.8634 36.7378 50.0147 36.5717 51.0959C36.5259 51.4173 36.4171 51.7329 36.2911 52.0309C35.0486 55.1342 32.3345 57.5946 29.1624 58.4479C28.4982 58.6291 27.8053 58.594 27.1011 58.5823C24.8451 58.5355 20.4762 53.0537 20.2529 50.7394C20.1842 50.0205 20.0868 49.2257 20.5334 48.6647C20.8026 48.314 21.2263 48.1153 21.6328 47.9458C22.5203 47.5601 23.7743 46.964 27.8111 46.7361C29.4487 46.6426 30.6912 46.2101 32.7125 46.5198C32.7125 46.5198 32.7125 46.5082 32.7239 46.5082C33.8576 46.3737 34.6306 46.6893 35.5353 47.4198C35.7815 47.6127 36.0392 47.8173 36.2854 48.0335C36.3885 47.94 36.4973 47.8406 36.6118 47.7705C35.6155 47.04 34.7394 46.2568 33.5713 45.7776C32.3403 45.275 31.1149 45.2049 29.8151 45.0003C29.7808 45.0003 29.7922 44.9419 29.8151 44.9419C32.1341 44.2231 35.564 45.5146 36.921 47.5893C37.9288 47.0166 39.2285 46.9172 40.1619 47.6711C40.1848 47.6828 40.1962 47.7062 40.2077 47.7296C40.849 46.8413 42.0228 46.1692 42.8416 45.7133C42.9447 45.6549 43.0649 45.7952 42.9676 45.8945C41.8854 46.9231 39.9672 47.8932 40.1561 49.7166ZM26.6602 51.0257C26.5342 50.8446 26.2594 50.7043 26.0418 50.7978C25.996 50.8212 25.9616 50.8446 25.9158 50.8679C25.8929 50.8562 25.8814 50.8446 25.8585 50.8446C25.7326 50.8095 25.6238 50.8095 25.5207 50.8329C25.0397 50.7744 24.5588 50.979 24.3125 51.4816C23.9862 52.177 24.324 53.1004 25.0054 53.4219C25.578 53.6965 26.2708 53.492 26.6659 53.0011C27.1526 52.4283 27.0839 51.6218 26.6602 51.0257ZM41.8739 54.9823C41.7594 54.6199 41.9197 54.3102 41.4502 53.6732C41.2269 53.3634 40.9234 53.1121 40.7001 52.7848C40.2764 52.1712 39.8927 51.464 39.8011 50.7218C39.7897 50.6751 39.8584 50.6634 39.8813 50.6985C39.8927 50.7101 39.9042 50.7335 39.9042 50.7452C39.7782 50.4822 39.6465 50.2192 39.5435 49.927C39.5435 49.9153 39.5435 49.9153 39.5435 49.9036C37.0985 50.2777 37.1901 52.8316 36.4057 54.6258C35.9476 55.6719 35.2605 56.607 34.4302 57.3609C33.0617 58.6057 31.281 59.4005 29.4315 59.7219C27.2786 60.5109 24.9596 60.8382 22.9498 59.4706C22.0737 58.8687 21.4152 58.0914 20.9114 57.2031C20.4418 56.6888 19.9723 56.1979 19.4971 55.8472C19.394 56.3147 19.1478 56.6362 18.8157 56.9985C18.9187 56.9284 19.0161 56.8407 19.1191 56.7706C19.1993 56.7238 19.2966 56.7238 19.3654 56.7589C19.3997 56.7005 19.4913 56.7005 19.5085 56.7706C19.6001 57.1563 19.5658 57.5245 19.4741 57.8868C19.4741 58.0446 19.4512 58.1849 19.4169 58.3427C19.5314 58.1849 19.6746 58.0563 19.8406 57.9687C19.8864 57.7524 19.9322 57.5479 19.9838 57.3433C20.0067 57.2498 20.1613 57.2849 20.1384 57.3901C20.0467 57.8226 20.0467 58.2433 20.0811 58.6641C20.104 58.6524 20.1269 58.6407 20.1498 58.6758C21.169 60.1485 21.3694 61.9603 20.7797 63.6901C20.7338 63.8246 20.4991 63.8713 20.4762 63.6901C20.2529 62.1064 20.6193 60.394 20.104 58.857C20.1727 59.5408 20.3159 60.2012 20.3273 60.9083C20.3273 61.0661 20.1269 61.1129 20.0467 60.9784C19.9208 60.7739 19.8463 60.5693 19.7776 60.3531C19.7662 60.4583 19.7433 60.581 19.6975 60.6745C19.8234 61.1187 20.0009 61.6096 19.8234 61.9719C19.7204 62.1882 19.4283 62.3343 19.3768 62.5622C19.3081 62.872 19.7032 63.4155 19.812 63.7252C19.8807 63.9531 19.5772 64.2044 19.4169 64.035C19.3253 63.9298 19.1592 63.5207 19.1592 63.5207C18.9817 63.1349 18.787 62.7317 18.8787 62.3343C17.8709 62.7784 17.7907 61.6973 17.1723 61.3408C17.0807 61.3057 16.9261 61.0427 16.8803 60.9434C16.4451 63.3278 16.6341 65.7648 17.4529 68.0792C17.5102 68.2369 17.2983 68.3305 17.2067 68.2253C14.5613 65.648 15.8038 61.0895 16.7601 57.2381C16.949 55.0699 17.075 52.8374 17.2754 50.6166C17.1609 50.5816 17.0635 50.4939 17.0406 50.3536C16.2562 46.2043 17.3327 41.9964 18.5408 38.0516C18.5637 37.9697 18.684 38.0048 18.6553 38.0866C18.0484 40.7107 17.9511 43.3172 17.9052 45.9413C17.9854 45.4971 18.0828 45.0646 18.1858 44.6205C19.039 41.0964 21.3694 37.812 23.3964 34.8957C25.7497 31.5236 28.9563 28.6716 31.802 25.5917C31.8364 25.5099 31.8822 25.4105 31.9681 25.3287C32.2487 25.019 32.5292 24.7151 32.8442 24.4287C35.0544 21.8865 36.9382 19.1514 37.8543 15.8435C24.4042 18.1579 18.495 33.9139 12.8836 44.825C12.8035 44.9945 12.5229 44.8718 12.5802 44.6906C14.2636 39.6529 17.0979 34.8957 19.8578 30.4073C22.36 26.3398 24.8221 22.3014 28.5325 19.2566C31.7505 16.6208 34.5848 16.1124 38.3525 15.0955C41.1983 14.3299 40.6486 11.3084 39.8298 8.7662C39.114 8.19347 38.5529 7.46879 37.7341 7.00125C36.795 6.46358 34.8425 5.76812 33.8233 6.32916C33.7775 6.35254 33.7317 6.2941 33.766 6.25903C35.438 4.85642 37.8486 5.82656 39.3259 7.34021C39.303 7.28177 39.2801 7.2058 39.2572 7.14735C39.2457 7.11229 39.2915 7.08891 39.3144 7.12398C39.3831 7.25839 39.4404 7.39865 39.5148 7.54476C39.8298 7.88957 40.0874 8.2636 40.2878 8.63763C40.3451 8.76036 40.2764 8.90062 40.1733 8.94737C41.0036 10.8292 41.622 12.7753 41.0265 14.1253C42.3492 15.5864 43.8952 16.9656 45.3782 18.3916C45.1663 17.2169 44.9831 16.0189 44.7827 14.8208C44.5937 14.5111 44.4334 14.1838 44.3017 13.839C44.2559 13.6929 44.4448 13.5994 44.5365 13.6929C44.5594 13.7163 44.5823 13.7279 44.5937 13.7513C44.3475 12.3487 44.0669 10.9578 43.6719 9.61361C42.3263 5.06681 38.0547 0.403129 33.0217 1.54275C34.6249 2.72913 35.1975 4.722 33.4683 6.36423C31.9566 7.77853 28.8475 8.28113 26.9865 9.06426C23.7571 10.4201 20.688 12.0857 18.8386 15.2533C18.7241 15.4578 18.4149 15.2767 18.5236 15.0604C19.9838 12.3604 22.2569 10.7415 24.9481 9.44998C26.9636 8.47984 33.7717 7.11229 34.0752 4.5233C34.3443 2.27912 31.0233 1.30898 29.4773 1.36742C27.9084 1.42587 26.3052 2.10964 25.0054 2.93952C23.1731 4.11421 21.5355 5.66292 20.1441 7.38697C17.1265 11.1273 15.5347 15.7442 13.8227 20.2033C13.7883 20.3085 13.6223 20.2618 13.6566 20.1566C15.0537 15.4461 16.949 10.5428 19.9437 6.60969C14.8991 7.08891 9.67711 10.4084 8.0166 15.4695C7.45546 17.1585 7.4211 18.9001 6.48206 20.4488C5.21663 22.5586 4.03709 24.1306 3.62483 26.6963C3.57902 26.9709 3.1553 26.9476 3.09804 26.6963C2.63997 24.5748 3.05223 22.991 4.42073 21.3371C4.47799 21.267 4.60968 21.3605 4.5467 21.4423C3.78515 22.3189 3.40151 23.3125 3.39006 24.4404C3.18966 25.6852 3.18966 25.8664 3.39006 25.0131C3.63628 24.569 3.71644 23.9319 3.9283 23.4644C4.46653 22.243 5.35405 21.3313 6.02398 20.2033C6.71682 19.0403 7.03174 17.7838 7.35812 16.5215C3.85959 19.2098 0.824855 22.5527 1.83262 27.3976C2.30787 29.6534 3.02933 31.4534 2.70295 33.8028C2.45674 35.5795 1.78108 37.2801 1.68374 39.0802C1.56922 41.1899 2.19907 43.1945 2.93772 45.1231C4.2375 48.5653 5.81785 51.9608 7.54707 55.1985C7.77039 53.3868 7.8849 51.5751 7.58143 49.816C7.56998 49.7575 7.65014 49.7342 7.66159 49.7926C8.76097 53.1998 7.58143 56.3498 7.65014 59.8388C7.71885 63.0531 8.08531 64.9817 10.6562 67.2843C11.475 68.0032 12.4026 68.6285 13.2902 69.2772C12.4256 67.1441 11.5953 64.97 10.7021 62.8486C10.6791 62.8018 10.7364 62.7668 10.7708 62.8135C11.7671 64.4674 12.6431 66.209 13.4276 67.9681C14.2693 69.8733 15.0079 73.0058 17.5617 73.0526C17.9625 73.0643 17.9625 73.6662 17.5617 73.6896C15.9241 73.7831 14.9965 73.2805 14.3208 71.7493C14.1319 71.3168 13.9601 70.8844 13.7711 70.4519C13.691 70.4636 13.6051 70.4636 13.5249 70.4052C11.4636 68.9207 7.96507 67.2025 7.27796 64.5317C6.57367 61.7966 7.03174 58.9797 7.40393 56.1745C7.24933 56.2095 7.10045 56.1511 7.00884 55.9816C4.98187 52.2413 3.02933 48.238 1.70665 44.1705C0.372508 40.0795 1.64939 37.134 1.96431 33.0548C2.26778 29.2034 -0.108469 25.954 1.67229 22.2021C2.85183 19.7066 5.10211 17.7195 7.40965 16.3403C7.75893 14.9377 8.13684 13.5468 9.01291 12.2727C11.6583 8.44477 16.0443 6.25319 20.5277 5.90254C20.7167 5.67461 20.8884 5.435 21.0889 5.21876C23.7457 2.24406 28.3207 -0.900131 32.3632 1.17457C32.4777 1.23301 32.5865 1.29729 32.6896 1.36742C32.6781 1.29729 32.6896 1.20963 32.7697 1.1395C35.438 -1.17481 38.5071 1.23301 40.6257 3.47719C46.9242 4.93824 52.2149 8.11749 54.74 14.5111C57.4885 21.4774 56.3891 29.5015 53.9327 36.386C53.9098 36.4327 53.8869 36.4678 53.864 36.5204C54.0415 36.9061 54.2476 37.286 54.5339 37.6951C54.9805 38.3555 55.1523 38.9808 55.3413 39.7464C55.576 40.6581 56.3834 42.7562 55.702 43.6094C55.5989 43.7555 55.3298 43.6679 55.3069 43.5042C55.0263 41.8971 55.1294 40.2432 54.4194 38.7061C53.6807 37.134 52.0202 35.8775 52.4898 33.984C52.4898 29.0807 52.9822 24.4287 50.0448 20.1449C48.8366 18.3916 46.7352 17.2052 45.3724 15.5864C45.4641 16.5799 45.527 17.591 45.5958 18.5728C47.199 20.1332 48.7336 21.7521 49.7986 23.6339C51.5908 26.7781 51.7168 30.1443 51.0869 33.5866C51.2644 34.1885 51.4133 34.7963 51.4992 35.445C51.5335 35.6963 51.1842 35.9243 51.0525 35.6379C50.2337 33.8496 49.6382 31.9444 48.5618 30.2905C47.5769 28.7651 46.197 27.6781 44.8285 26.5385C43.1451 25.1359 41.5533 23.5638 39.4805 22.8099C38.3582 22.4008 37.6081 22.2956 36.755 21.4189C36.6404 21.2962 36.7893 21.1092 36.9325 21.191C38.7247 22.1962 40.7574 22.2079 42.5152 23.3475C43.8723 24.2358 45.0919 25.4105 46.3172 26.4625C48.4816 28.3443 50.1822 30.6469 51.0354 33.3703C51.6767 28.6599 49.8902 24.2475 46.6493 20.9222C44.6338 18.8592 42.2461 17.1468 40.7745 14.6163C40.3165 15.189 39.532 15.6098 38.3181 15.7909C38.3067 15.7909 38.2838 15.8026 38.2723 15.8026C38.2952 15.8377 38.3181 15.8728 38.3181 15.9254C38.4212 18.7773 36.9496 21.2728 34.9799 23.5521C35.9877 23.5754 36.9324 24.1131 37.9402 24.2943C38.1177 24.2242 38.278 24.2592 38.4097 24.341C38.5758 24.3527 38.7361 24.341 38.9022 24.341C39.114 24.1832 39.3946 24.2066 39.6065 24.341C39.7954 24.3527 39.9672 24.3878 40.1561 24.4638C40.2478 24.4988 40.3336 24.5982 40.3795 24.7034C40.4367 24.6683 40.494 24.6332 40.557 24.6099C40.9578 24.4287 41.4101 24.7794 41.3529 25.1475C41.5647 25.2703 41.7136 25.4105 41.9483 25.8196C42.9905 26.1703 44.1357 27.608 44.8285 28.1573C45.9508 29.069 47.3422 29.7645 48.1037 30.9625C48.1266 30.9625 48.1381 30.9742 48.161 30.9742C48.5217 31.0677 48.5961 31.4301 48.4644 31.6931C48.4759 31.7281 48.4873 31.7632 48.4988 31.7866C48.5217 31.8333 48.5561 31.8801 48.579 31.9327C48.5904 31.9444 48.5904 31.9444 48.5904 31.9561C48.6019 31.9677 48.6019 31.9794 48.6133 31.9911C48.8939 31.9561 49.2088 32.0963 49.3405 32.3535C49.936 33.4697 49.936 34.8606 50.2395 36.0938C50.709 38.0223 51.1785 39.9568 51.6538 41.8854C51.6767 41.8737 51.6996 41.8737 51.7225 41.8737C51.7912 42.1951 51.8885 42.5341 51.9572 42.8555C52.0031 43.0601 51.9114 43.2529 51.7568 43.3464C52.2035 43.3581 52.6444 43.3815 53.0795 43.4166C53.1253 43.4166 53.1253 43.4867 53.0795 43.4867C51.0296 43.6328 48.9969 43.8607 46.9585 44.0477C47.0272 44.0477 47.0845 44.036 47.1589 44.036C47.1818 44.036 47.1818 44.0711 47.1589 44.0711C46.0367 44.2289 44.8628 44.3458 43.7749 44.6438C42.2976 45.0413 41.3185 46.14 40.1332 47.04C40.0416 47.1101 39.9099 46.9698 39.9672 46.8705C40.2592 46.3796 40.597 45.9822 40.9635 45.6607C40.8604 45.7192 40.7516 45.7835 40.6486 45.8536C40.4711 45.9763 40.2878 45.7075 40.4253 45.5672C41.6907 44.2932 43.5745 43.5042 45.3495 43.7321C45.4068 43.7438 45.4297 43.8257 45.361 43.8373C45.3037 43.849 45.2465 43.8724 45.172 43.8958C46.2485 43.6445 47.3708 43.4867 48.5217 43.4049C48.1724 43.0718 47.7716 42.8029 47.3307 42.6276C47.262 42.6743 47.1761 42.686 47.073 42.6743C45.716 42.4698 44.4506 42.5282 43.1164 42.8438C42.9905 42.8672 42.8931 42.8321 42.8244 42.7737C42.7443 42.7854 42.6584 42.762 42.6011 42.7269C42.4122 42.9315 42.2404 43.136 42.1316 43.2412C41.9655 43.4107 41.7193 43.3231 41.6392 43.1477C41.4044 43.399 41.1696 43.662 40.9349 43.9133C40.7803 44.0828 40.4997 43.9133 40.5627 43.6971C40.8203 42.8088 41.1811 42.125 41.9312 41.5873C41.9655 41.5639 42.0228 41.6107 41.9999 41.6575C41.788 41.9438 41.5991 42.2185 41.4387 42.5224C41.8338 42.0549 42.2575 41.6224 42.75 41.225C42.9618 41.0438 43.2081 41.1899 43.2424 41.3945C43.5001 41.26 43.7577 41.2016 44.004 41.2717C44.1185 41.3068 44.17 41.3769 44.2044 41.4763C45.0919 41.1256 45.9221 41.0789 46.8841 41.3711C47.1188 41.4412 47.1647 41.6574 47.0845 41.8269C47.6342 41.9847 48.0923 42.201 48.4988 42.5107C48.4072 42.1367 48.3843 41.7334 48.3556 41.3243C48.4988 41.4062 48.6477 41.4821 48.7908 41.5523C48.7908 41.5289 48.7794 41.5172 48.7794 41.4938C48.2182 39.8399 47.7029 38.1626 47.1876 36.4912C46.0424 35.0418 44.8113 33.8554 43.2653 32.8561C43.1222 32.7626 43.0649 32.6164 43.0535 32.4587C42.9389 32.3359 42.8759 32.1606 42.9103 32.0028C42.8301 32.0729 42.7443 32.1372 42.6641 32.2074C42.6183 32.2541 42.561 32.2658 42.5095 32.2658C42.1488 32.5288 41.4903 32.2424 41.6678 31.6931C41.8796 31.021 42.2175 30.4366 42.687 29.9164C42.4179 30.1443 42.0342 30.4775 41.7479 30.7814C41.6334 31.1028 41.5361 31.4184 41.4559 31.6814C41.3529 32.0554 40.786 32.1723 40.6028 31.7866C40.4997 31.5586 40.4768 31.3307 40.5226 31.1028C40.4539 31.2372 40.368 31.3658 40.3107 31.5119C40.1103 31.921 39.5492 31.6171 39.6179 31.2138C39.6981 30.8047 39.8069 30.4249 39.9214 30.0508C39.5206 30.5301 39.1255 31.0093 38.7418 31.5119C38.4498 31.8976 37.923 31.4067 38.112 31.021C38.7647 29.6885 39.4576 28.2859 40.3966 27.1229C39.0396 28.3326 37.8429 29.6885 36.8008 31.2255C36.5545 31.5879 36.148 31.4534 36.0278 31.1437C35.7586 31.3015 35.4781 31.4184 35.1631 31.4944C34.894 31.5528 34.6364 31.4009 34.5333 31.1846C34.3787 31.3307 34.1726 31.3541 33.9836 31.2898C33.7374 31.6638 33.2106 31.5177 33.0732 31.1203C33.0503 31.2021 33.0159 31.2781 32.9816 31.3483C32.7926 31.9385 31.9624 31.8275 31.9395 31.2021C31.9166 30.5067 32.0196 29.8814 32.22 29.3086C31.928 29.7177 31.636 30.1502 31.3669 30.606C31.2523 30.8573 31.1665 30.9918 30.8172 31.4944C30.6511 31.734 30.2446 31.8801 30.0327 31.5996C30.0098 31.5762 29.9984 31.5528 29.9869 31.5294C29.672 31.7573 29.1338 31.6112 29.1567 31.1437C28.9104 31.4534 28.6528 31.769 28.3608 32.0788C27.9771 32.4996 27.3874 31.9561 27.6221 31.4885C27.8798 30.9742 28.1718 30.4716 28.4867 29.9749C28.1604 30.308 27.8454 30.6469 27.5649 30.9801C25.5035 33.3762 23.5166 36.0295 21.8561 38.823C21.0488 40.9561 20.6651 42.4932 19.4226 43.849C19.3883 43.9718 19.3425 44.0886 19.3081 44.2114C20.0467 43.6094 20.7224 42.7971 21.169 41.9672C21.1805 41.9555 21.2034 41.9672 21.2034 41.9789C20.9572 42.9256 20.6193 43.7555 19.9265 44.4627C19.7833 44.6088 19.6345 44.7257 19.4799 44.8484C19.5257 44.8367 19.56 44.8133 19.6058 44.8016C19.9551 44.6964 20.1326 45.1874 19.8406 45.3744C19.5028 45.6023 19.1478 45.8185 18.8099 46.0465C18.787 46.1517 18.7641 46.2627 18.7527 46.3679C19.1249 46.2218 19.6287 46.0932 19.8864 45.8536C19.9437 45.7952 20.0296 45.877 19.9666 45.9354C19.7776 46.1516 19.5715 46.4146 19.3253 46.5724C19.102 46.7069 18.8672 46.8004 18.6439 46.9231C18.6095 47.1276 18.5752 47.3439 18.5408 47.5601H18.5523C18.7183 47.3439 18.9645 47.151 19.3138 46.9698C21.7244 45.7601 25.6925 45.3276 28.3722 45.3861C28.3837 45.3861 28.3951 45.4094 28.3722 45.4094C26.3968 45.9588 24.3125 46.1516 22.297 46.6075C21.1404 46.8705 19.0447 46.9698 18.8443 48.6471C18.787 49.1147 19.1936 50.0381 19.3253 50.4822C20.5048 54.4972 22.7665 58.3953 26.9579 59.3537C31.1836 58.6933 34.5906 57.7232 36.2854 53.2407C36.9897 51.3939 37.4077 49.0796 39.7381 49.7751C39.8298 49.7984 39.8069 49.9329 39.7152 49.9445C39.7038 49.9445 39.7038 49.9445 39.6923 49.9445C40.9005 52.5803 43.042 55.0056 45.6015 56.2855C46.9929 56.981 48.7851 57.5303 50.3425 57.4485C52.3695 57.3258 53.7266 56.4667 54.8374 55.029C55.8108 53.0595 56.4635 51.3238 56.6296 49.0679C56.6868 48.238 56.83 47.2211 56.6983 46.403C56.475 45.0237 55.4329 44.2464 54.2877 43.6796C54.2648 43.6679 54.2762 43.6328 54.2991 43.6328C57.059 43.8724 57.2594 44.6497 57.3281 47.303C57.3969 49.5939 57.2022 52.1712 56.0971 54.2342C56.0971 54.281 56.0856 54.3394 56.0513 54.4037C55.7134 54.9764 55.3355 55.4849 54.9519 55.929C54.4709 58.4011 54.4022 61.1713 53.4632 63.4505C53.32 65.2739 53.3486 66.209 52.4669 68.4649C52.3008 68.8973 51.774 68.5467 51.9401 68.1259C52.6444 66.3259 52.6444 65.607 52.7932 63.7603C52.7932 63.7369 52.7818 63.7252 52.7932 63.6901C52.7932 63.6785 52.7932 63.6785 52.8047 63.6668C52.8161 63.2577 52.8276 62.8427 52.8047 62.3927C52.7589 61.2882 52.6902 60.2362 52.7131 59.1667C52.6444 59.1901 52.5699 59.2135 52.5012 59.1901C51.4591 58.9972 50.4971 58.6758 49.518 58.2784C49.4607 58.255 49.4035 58.2083 49.3749 58.144C49.3634 58.144 49.352 58.144 49.352 58.144C49.3176 58.144 49.2947 58.1089 49.2947 58.0739C48.6419 57.992 47.9377 57.8109 47.2219 57.5596C45.1835 56.8407 43.5459 55.7362 42.2232 54.2868C42.2346 54.4797 42.2117 54.7193 42.2461 54.9238C42.2919 55.1751 42.5152 55.2569 42.7156 55.4264C42.8301 55.5199 42.8931 55.6193 42.9733 55.7011C43.2653 55.9875 43.3856 56.566 43.4085 56.9342C43.4314 57.5596 43.3054 58.1674 42.8244 58.5881C42.7786 58.6349 42.7099 58.5765 42.7328 58.518C42.9676 58.0622 43.168 57.5479 43.105 57.0219C43.0821 56.7706 42.9275 56.5076 42.8473 56.268C42.7672 56.0518 42.7672 56.0518 42.6469 55.9582C42.458 55.7654 42.4351 55.742 42.2633 55.5375C42.2404 55.5024 42.0629 55.2979 42.04 55.2745L41.8739 54.9823ZM53.3315 61.6388C53.7666 59.8154 54.0816 57.957 54.6427 56.192C54.2705 56.566 53.8926 56.8992 53.4861 57.1622C53.2513 58.6875 53.2971 60.1719 53.3315 61.6388ZM17.9568 54.1056C17.9682 54.24 17.9797 54.3803 17.9797 54.5147C18.1228 54.3569 18.2603 54.205 18.392 54.0472C18.4034 54.0121 18.4034 53.9654 18.4149 53.9245C18.4263 53.7316 18.5695 53.6264 18.7069 53.603C18.7756 53.4978 18.8328 53.3868 18.8844 53.2699C18.5408 53.5212 18.2374 53.8076 17.9568 54.1056ZM18.3061 48.9277C18.2259 49.6348 18.1515 50.3536 18.0942 51.0725C18.2717 50.8212 18.4435 50.5699 18.6439 50.3186C18.6439 50.3069 18.6439 50.2952 18.6324 50.2952C18.5065 49.7868 18.3748 49.3426 18.3061 48.9277ZM44.9545 43.9484C44.4964 44.0828 44.0555 44.2231 43.6203 44.3809C44.0555 44.2873 44.4849 44.2231 44.943 44.1763C44.8743 44.1179 44.8743 43.9951 44.9545 43.9484ZM41.267 27.1755C41.2441 27.1638 41.2097 27.1638 41.1868 27.1521C41.0952 27.2982 40.9864 27.4385 40.8948 27.5846C41.0093 27.4385 41.141 27.3041 41.267 27.1755ZM43.0477 28.5255C43.0363 28.5255 43.0363 28.5138 43.0248 28.5138C43.0019 28.5372 42.979 28.5489 42.9561 28.5723C42.9905 28.5547 43.0248 28.5372 43.0477 28.5255ZM44.9545 30.1093C44.6968 29.9164 44.462 29.7469 44.2616 29.595C44.0383 29.7995 43.8265 30.0275 43.6547 30.2086C43.4085 30.4716 43.1966 30.7697 43.0363 31.097C43.6089 30.5885 44.2387 30.2671 44.9545 30.1093ZM47.9491 34.4398H47.9377C47.9377 34.4515 47.9377 34.4632 47.9491 34.4749C47.9491 34.4749 47.9491 34.4749 47.9606 34.4749C47.9491 34.4632 47.9491 34.4515 47.9491 34.4398ZM41.0322 3.83953C41.267 4.10252 41.4903 4.35382 41.7021 4.59343C44.0669 7.36359 44.8628 10.8175 45.2465 14.3533C47.6571 16.691 50.4055 18.5962 51.8599 21.7988C53.5204 25.469 53.7666 30.0391 52.9249 33.9606C53.0795 34.4048 53.2169 34.8256 53.3486 35.2171C55.0092 28.8645 56.5895 22.3131 54.4824 15.8377C53.3257 12.2786 51.1728 8.95322 48.0235 6.94281C45.8534 5.56357 43.3512 4.89149 41.0322 3.83953ZM41.6162 56.6829C41.4731 56.6829 41.3815 56.7764 41.3013 56.8875C41.2555 56.8992 41.2212 56.9109 41.2097 56.9693C41.1754 57.092 41.1639 57.1972 41.1525 57.32C41.0093 57.5829 40.8604 57.8576 40.8833 58.1381C40.8948 58.1966 40.9406 58.22 40.9864 58.1849C41.1754 58.0271 41.2555 57.7875 41.3128 57.5479C41.3471 57.7174 41.4273 57.8985 41.559 58.0271C41.9598 58.4713 42.6813 57.8927 42.3663 57.3901C42.2175 57.1388 41.9598 56.6712 41.6162 56.6829ZM41.2326 50.7101C41.0322 49.9329 41.1295 48.9569 41.4216 48.2497C41.4216 48.2497 42.8588 46.3679 43.9753 45.7659C45.0862 45.164 48.1781 44.4568 50.4227 44.4101C52.6787 44.3516 54.7171 45.6081 55.3355 46.327C55.9539 47.0458 55.639 47.6945 55.5817 49.2199C55.5245 50.7452 54.8431 51.7504 54.282 53.4394C53.7323 55.1284 52.3638 56.1862 50.125 56.3031C47.8918 56.4258 46.0653 55.4849 44.5651 54.5264C43.0706 53.5797 41.433 51.4933 41.2326 50.7101ZM50.7491 52.4868C50.9838 50.7335 50.7491 49.7166 50.9838 47.9634C51.064 47.3147 50.3025 47.5309 50.2223 48.1796C49.9875 49.9329 50.1994 51.2478 49.9646 53.0011C49.8673 53.6615 50.6632 53.1355 50.7491 52.4868ZM42.2289 50.1725C42.1946 50.8329 42.5095 51.5985 43.105 51.8965C44.0269 52.3641 44.8972 51.6218 44.9316 50.6517C44.9659 49.8335 44.3132 48.5653 43.3512 48.8634C43.2825 48.8867 43.2252 48.9218 43.1622 48.9569C43.0076 48.9686 42.8588 49.0153 42.7156 49.1147C42.3892 49.3601 42.2518 49.7634 42.2289 50.1725ZM17.2983 98.0775C17.0635 97.3704 16.3363 97.2476 15.695 97.1074C14.8075 96.9145 13.9372 96.745 13.0382 96.9613C12.9924 96.973 12.981 97.0431 13.0268 97.0665C14.3151 97.6567 15.7752 97.7736 17.0979 98.2645C17.2181 98.3288 17.3327 98.2002 17.2983 98.0775ZM35.73 97.873C36.1995 98.3171 36.6175 98.7613 37.1329 99.147C37.5451 99.4451 38.0948 100.047 38.6216 100.012C38.7361 100 38.8106 99.8775 38.7476 99.7723C38.5243 99.3165 37.8257 99.1119 37.4134 98.849C36.8637 98.5041 36.2797 98.2002 35.7529 97.8438C35.73 97.8262 35.7071 97.8613 35.73 97.873ZM37.3333 118.982C31.7161 110.204 25.5837 98.3464 14.6415 96.0905C14.5842 96.0788 14.5613 96.1606 14.6186 96.184C26.0761 99.3632 29.483 111.414 36.9954 119.245C37.1615 119.409 37.465 119.187 37.3333 118.982ZM49.5982 87.4294C49.81 87.3242 49.7012 86.9735 49.4837 86.9735C45.235 86.9969 47.5884 95.7866 43.2596 96.1139C43.105 96.1255 43.0821 96.3184 43.2252 96.3768C44.7369 96.9554 45.7275 95.3366 46.2943 94.1093C47.3078 91.8768 47.2334 88.6683 49.5982 87.4294ZM41.8167 88.3878C42.2633 86.8975 42.9389 85.4482 43.1164 83.8761C43.1393 83.6365 42.7672 83.5371 42.6698 83.7533C42.04 85.1793 41.8968 86.7865 41.5246 88.3001C41.4674 88.4988 41.7594 88.5807 41.8167 88.3878ZM37.8142 91.3508C37.6482 91.0411 37.1329 91.2573 37.2531 91.5904C38.4097 94.9625 38.6674 98.4399 41.6048 100.778C41.685 100.848 41.8052 100.742 41.7308 100.643C40.4081 99.0944 39.4862 97.4639 38.9938 95.4651C38.6445 94.0742 38.4727 92.6482 37.8142 91.3508ZM49.81 71.2993C47.8689 70.1831 45.842 68.7571 44.0498 67.524C43.815 67.3545 43.5802 67.1908 43.4085 66.998C43.4085 67.0097 43.4085 67.0213 43.397 67.033C43.3741 67.1265 43.2825 67.2376 43.1737 67.261C42.4694 67.3837 41.7365 67.1032 41.0208 67.1675C40.5283 67.2025 39.9443 67.4889 39.4862 67.261C39.406 67.3077 39.3087 67.3545 39.2171 67.4071C38.7819 67.5882 38.4785 67.4071 38.1292 67.1324C37.8371 66.9045 37.5566 66.5304 37.5108 66.1389C37.4993 66.0045 37.5108 65.8525 37.5566 65.7181C37.6253 65.5252 37.7799 65.4551 37.8715 65.2856C37.9288 65.1804 38.0719 65.3441 37.9517 65.3908C37.7054 65.4726 37.8085 65.9811 37.883 66.133C37.986 66.3726 38.2093 66.5187 38.4212 66.6473C38.633 66.7817 38.8048 66.8869 39.051 66.8051C39.1312 66.7817 39.2285 66.735 39.3202 66.6882C39.3431 66.6415 39.3774 66.6064 39.4232 66.5655C39.1541 66.3843 38.9422 66.1096 38.7934 65.8116C38.7705 65.7765 38.8163 65.7415 38.8506 65.7648C39.3774 66.3317 39.8126 66.3376 40.5226 66.1856C40.7459 66.1389 40.9692 66.1038 41.1639 66.0045C41.3185 65.9343 41.3872 65.835 41.559 65.8467C41.5819 65.8467 41.5819 65.87 41.6048 65.87C41.8281 65.9519 42.0514 66.0395 42.2862 66.0746C42.0514 65.7006 42.0056 65.2973 42.4751 64.9583C42.8989 64.6486 43.3512 64.9116 43.7635 65.1161C43.9982 65.233 44.2215 65.3558 44.4448 65.4785C44.4448 65.4668 44.4449 65.4668 44.4563 65.4551C44.6453 65.2272 44.9945 64.9993 44.8686 64.6369C44.8571 64.6135 44.9029 64.6018 44.9029 64.6252C45.0289 64.8765 45.0919 64.9993 45.0575 65.2973C45.0346 65.4668 44.9659 65.6187 44.8342 65.7298C44.88 65.7532 44.9258 65.7882 44.9602 65.8116C44.9716 65.7999 44.9716 65.7882 44.9831 65.7765C45.298 65.4668 45.4984 65.0577 45.4641 64.6018C45.4526 64.3856 45.3495 64.2278 45.298 64.0408C45.2751 63.9356 45.2522 63.9473 45.2866 63.8246C45.2866 63.8129 45.298 63.8129 45.3095 63.8012C45.1434 63.696 45.006 63.5031 44.9144 63.322C44.4907 63.62 44.0498 63.4272 43.6604 63.1759C43.3684 63.2694 43.0305 63.246 42.75 63.1057C42.7271 63.1291 42.7156 63.1525 42.6927 63.1642C42.8702 63.1875 43.042 63.246 43.1737 63.3103C43.5573 63.4798 43.878 63.7661 44.0269 64.1752C44.0841 64.333 43.8723 64.4148 43.7692 64.333C43.5115 64.1051 43.2539 63.8772 42.9389 63.7194C42.75 63.6259 42.5152 63.5966 42.332 63.5031C42.1545 63.696 41.9483 63.8012 41.7021 63.8538C41.9369 64.2629 41.9713 64.9116 41.8911 65.2681C41.8796 65.3265 41.7766 65.3499 41.7365 65.2915C41.6105 64.9934 41.559 64.6661 41.433 64.3681C41.3643 64.1869 41.2555 64.035 41.1525 63.8772C41.0379 63.8655 40.9177 63.8421 40.8032 63.807C40.557 63.8538 40.3336 63.9005 40.1504 64.1168C39.9844 64.3096 39.8469 64.5259 39.5893 64.5609C39.5549 64.5609 39.5091 64.5492 39.5091 64.5142C39.4633 64.1518 39.7324 63.9239 40.0015 63.7603C39.6523 63.7018 39.4404 63.5791 39.0396 63.7018C39.0052 63.7135 38.9823 63.7018 38.9594 63.6785C38.9251 63.7018 38.8907 63.7252 38.8564 63.7486C38.7018 63.8947 38.5987 64.07 38.3983 64.1577C38.3639 64.1694 38.3296 64.1694 38.2952 64.1811C38.1922 64.2629 38.049 64.3622 38.0147 64.5025C37.9574 64.707 38.0605 64.9233 37.9917 65.1278C37.9688 65.198 37.8887 65.2447 37.8142 65.198C37.7799 65.1746 37.7455 65.1278 37.7226 65.0928C37.7684 65.3207 37.5967 65.5019 37.3619 65.4668C36.9783 65.4083 36.3312 65.2155 36.1537 64.7947C36.0106 64.4324 36.2453 64.0291 36.3656 63.7018C36.5889 63.0882 36.8351 62.5271 37.1729 61.9778C37.4879 61.4869 37.757 60.8966 38.2723 60.6102C38.3181 60.5869 38.3868 60.6219 38.3639 60.6804C38.2494 60.9784 38.0834 61.1713 37.883 61.4226C37.5566 61.8434 37.3218 62.2758 37.0871 62.7551C36.8981 63.1525 36.5259 63.7369 36.5488 64.1927C36.5603 64.5259 36.5946 64.6837 36.984 64.7421C37.3218 64.7889 37.3848 64.707 37.5566 64.4441C37.568 64.3505 37.6024 64.2512 37.6367 64.1811C37.6596 64.146 37.6825 64.1109 37.7055 64.0876H37.694C37.6138 64.0525 37.6138 63.9064 37.7169 63.9064C38.0318 63.9181 38.4097 63.7895 38.6388 63.6083C38.7533 63.5148 38.9079 63.4622 39.011 63.3687C39.0682 63.322 39.114 63.2635 39.177 63.1992C38.9193 63.0181 38.6846 62.7668 38.5357 62.6265C38.5128 62.6031 38.5472 62.5797 38.5701 62.5914C38.8392 62.831 39.2629 62.9362 39.6236 62.9362C39.6236 62.9012 39.6236 62.8544 39.6351 62.7901C39.6122 62.6966 39.5893 62.5973 39.5664 62.4921C39.532 62.3343 39.532 62.2992 39.5549 62.1707C39.5091 62.0538 39.4633 61.9427 39.4003 61.8375C39.3774 61.7908 39.4461 61.7148 39.4805 61.7674C39.784 62.1531 40.1733 62.872 40.6715 62.8836C40.9177 62.8836 41.1754 62.8252 41.4216 62.8135C41.6792 62.8018 41.6563 62.7551 41.6907 62.4745C41.7021 62.3284 41.7136 62.1999 41.7365 62.0538C41.7365 62.0421 41.7479 62.0304 41.7479 62.0304C41.7823 61.744 41.9025 61.4577 42.1087 61.2999C42.1659 61.2648 42.2232 61.3232 42.2117 61.3817C42.1659 61.5862 42.0686 61.7674 42.0342 61.9661C42.0113 62.0888 41.9999 62.2057 41.977 62.3168C41.9999 62.4746 42.0228 62.6557 42.0228 62.8077C42.1144 62.8194 42.2232 62.831 42.3034 62.796C42.458 62.7258 42.6183 62.4862 42.6984 62.3518C42.8759 62.0655 43.0134 61.8025 43.2481 61.5629C43.271 61.5395 43.2939 61.5745 43.2825 61.5979C42.9905 61.9077 43.0363 62.3635 42.9447 62.7492C43.1451 62.8077 43.3283 62.872 43.5287 62.796C43.7749 62.7142 43.941 62.5914 44.0555 62.3518C44.0669 62.3284 44.1013 62.3401 44.0898 62.3635C44.044 62.533 44.044 62.7083 44.0097 62.8544C44.2559 63.0005 44.5479 63.1057 44.7827 62.8661C44.9831 62.6733 45.0632 62.3986 45.1949 62.1707C45.2178 62.1356 45.2866 62.1356 45.298 62.1823C45.3782 62.5155 45.3095 62.8895 45.0862 63.1525C45.132 63.1875 45.1778 63.2109 45.2293 63.246C45.2866 63.3044 45.3438 63.3512 45.4183 63.3921C45.487 63.4973 45.5442 63.4856 45.5614 63.3687C46.3 63.0824 45.2121 61.9895 44.943 61.7382C44.3704 61.1771 43.8207 60.6336 43.1737 60.1544C43.1508 60.1661 43.1164 60.1778 43.0821 60.1661C42.2289 59.9732 41.6907 60.5401 40.9062 60.5986C40.0073 60.6687 39.406 59.7979 38.53 60.5986C38.4842 60.6336 38.4269 60.5869 38.4498 60.5401C38.9422 59.7219 39.5263 59.9031 40.2993 60.0609C41.2498 60.2421 42.3492 59.1492 43.168 59.8797C43.1794 59.8797 43.1794 59.8797 43.1909 59.8797C43.8608 60.1193 44.4334 60.5635 44.9258 61.0661C45.1949 61.3408 45.4068 61.6155 45.6301 61.931C45.8191 62.2057 46.0882 62.422 46.134 62.7609C46.1798 63.0823 46.0653 63.696 45.7103 63.8538C45.6416 63.8888 45.5671 63.8889 45.4984 63.8772C45.5328 64.0583 45.779 64.2395 45.8477 64.4031C45.9164 64.5843 45.9622 64.8473 45.9622 65.0402C45.9622 65.4843 45.716 65.8525 45.4125 66.1564C45.59 66.2908 52.1748 70.5337 52.0489 70.7383C51.9229 70.9545 51.2644 70.487 49.9417 69.6571C48.3843 68.687 46.8726 67.6408 46.6665 67.5006C46.4317 67.3428 45.9622 67.0214 45.6129 66.7817C45.5671 66.7701 44.8285 66.2207 44.7941 66.1798C44.4334 65.9986 44.2788 65.8584 43.9181 65.6772C43.9066 65.6889 43.9066 65.7006 43.8952 65.7006C43.4371 66.022 43.3798 66.3376 43.523 66.6239C43.5459 66.6356 43.5688 66.6473 43.5917 66.6707C43.626 66.7058 43.6375 66.7525 43.6375 66.8168C44.0383 67.3194 44.9487 67.7168 45.2407 67.8863C45.9336 68.2954 46.6207 68.6986 47.3021 69.1194C48.4358 69.8149 49.7127 70.4168 50.7204 71.2993C51.5393 70.5571 52.6615 69.9551 53.5433 69.4642C53.612 69.4292 53.6865 69.4642 53.7323 69.5227C53.8353 69.4993 53.9556 69.4993 54.0587 69.5227C54.4194 69.6045 54.7 69.885 54.9691 70.148C55.3527 70.5454 55.7535 70.9253 56.1372 71.3227C56.9102 72.1 57.7977 72.9182 58.8856 72.9299C59.0402 72.9299 59.2005 72.9182 59.3551 72.9415C59.3437 72.8597 59.3437 72.7604 59.3551 72.6786C58.6852 72.5734 58.1355 72.2461 57.6832 71.685C57.3568 71.2876 57.0533 70.9545 56.641 70.6272C56.3719 70.4227 56.1372 70.2298 55.9997 69.9084C55.9883 69.8967 56.0112 69.8733 56.0226 69.885L56.0341 69.8967V69.885C56.0112 69.0902 56.3032 67.9389 57.2423 67.9915C58.1069 68.0266 59.1375 68.5292 59.8304 69.1194C60.1224 69.1077 60.4144 69.1194 60.7179 69.1779C61.8631 69.4175 63.0254 70.7967 63.9817 71.9714C65.1039 72.1876 66.524 71.8253 67.526 72.4623C68.3334 72.1 69.9022 72.3162 70.555 72.8247C70.9673 73.1461 71.0131 73.7597 71.1047 74.239C71.2249 74.876 71.3509 75.5598 71.2478 76.1909C71.2478 76.2143 71.2249 76.226 71.2135 76.2377C71.9865 76.0448 72.7595 76.8279 73.063 77.4825C73.8245 79.1364 72.6163 81.4858 70.6867 81.1059C70.4748 81.0708 70.2744 80.7845 70.3832 80.6033C70.4176 80.5449 70.3947 80.4689 70.3947 80.4104V80.3988C70.3947 80.3988 70.4405 80.3988 70.4176 80.3988C70.263 80.3754 70.2515 80.2644 70.2401 80.1358C69.7934 80.4105 68.883 79.6449 68.4021 79.3059C68.4937 80.0715 68.9403 80.7786 69.8278 80.7436C70.0168 80.7319 70.1427 80.9247 70.0969 81.1059C70.3202 81.4273 70.555 81.7546 70.7783 82.0644C70.8814 82.0994 71.0589 82.1462 71.1276 82.1462C71.4654 82.1812 71.5971 82.0001 71.6658 81.6903C71.7231 81.4157 72.1812 81.4741 72.1582 81.7605C72.101 82.3098 71.8662 82.6838 71.3051 82.7306C71.2707 82.7306 71.2478 82.7306 71.2135 82.7306C71.2478 83.2449 71.3051 83.7533 71.391 84.2559C71.4024 84.3261 71.3795 84.3904 71.3452 84.4371C72.3071 87.1956 69.4843 89.019 67.9497 91.0586C67.9383 91.0703 67.9268 91.0703 67.9154 91.082C67.3199 92.0171 66.7358 92.9521 66.1575 93.8989C65.1726 95.5294 64.4168 97.3528 63.3633 98.9483C63.6324 99.5853 63.6782 100.257 63.598 100.953C63.5293 101.526 63.3862 102.092 63.3633 102.665C63.3404 103.232 63.4549 103.735 63.3633 104.272C63.3404 104.418 63.1628 104.407 63.0941 104.307C63.0025 104.173 62.9281 104.033 62.8708 103.887C62.8479 103.898 62.8365 103.91 62.8021 103.922C62.6704 103.968 62.5674 103.799 62.6246 103.694C62.6704 103.624 62.7162 103.559 62.7678 103.524C62.6876 103.022 62.7563 102.484 62.8136 101.987C62.9395 101.041 63.0941 100.211 63.0827 99.2756C62.9624 99.299 62.8365 99.2171 62.8823 99.071C63.6438 96.371 65.3043 93.6359 67.1538 91.2748C66.9878 91.193 66.8618 90.9885 66.9649 90.7606C67.0107 90.667 67.0679 90.5911 67.1309 90.5093C66.8618 90.5677 66.7415 90.1469 66.9649 89.995C67.2912 89.7553 67.6348 89.4807 67.8982 89.1651C67.8295 88.9722 67.9211 88.6859 68.1902 88.6742C68.2017 88.6742 68.2017 88.6742 68.2131 88.6742C68.11 88.5514 68.1673 88.3294 68.3792 88.3001C68.5108 88.2885 68.6254 88.2651 68.7513 88.23C68.5166 88.2066 68.4822 87.891 68.7055 87.8092C68.8201 87.7625 68.9632 87.7157 69.0949 87.6631C69.0033 87.6164 68.9174 87.5696 68.8372 87.4819C68.8143 87.4586 68.8143 87.4001 68.8601 87.3884C69.1751 87.3417 69.49 87.3417 69.7935 87.2306C70.0626 87.1371 70.2973 86.8683 70.5894 86.8566C70.8699 86.4125 71.0474 85.9566 71.036 85.2962C71.036 84.9748 71.0016 84.7352 71.0245 84.4546C71.0016 84.4313 70.9787 84.3962 70.9673 84.3494C70.8012 83.9287 70.7783 83.4027 70.5951 83.0053C70.4061 82.6196 70.2458 82.5261 69.9881 82.2397C69.8736 82.1053 69.7992 81.965 69.7534 81.8306C69.2838 81.9007 68.843 81.7196 68.4421 81.4566C68.2188 81.3105 68.007 81.1351 67.7722 81.0007C67.6348 80.9189 67.4802 80.878 67.337 80.8312C67.4516 82.0527 67.5718 83.2916 67.7722 84.478C67.7951 84.5949 67.6348 84.6475 67.5833 84.5248C67.0107 82.8709 66.6499 81.2169 66.4152 79.4754C66.0659 76.8279 65.8769 74.8584 63.9358 72.8539C63.2545 72.1584 62.6017 71.2935 61.8287 70.6974C60.9756 70.037 60.3056 70.0603 59.3952 69.9785C58.4103 69.8967 57.9465 70.0136 56.9502 69.5461C56.6697 69.4116 56.8701 68.9616 57.1621 69.0434C57.9007 69.2597 58.5764 69.1779 59.2578 69.1019C58.9314 68.985 58.5993 68.8506 58.2615 68.7279C58.0153 68.646 57.6774 68.4649 57.4198 68.4649C56.5781 68.4532 56.601 69.2188 56.5666 69.8324C56.5666 69.9551 56.4979 70.0253 56.412 70.0603C56.8243 70.2883 57.2423 70.4577 57.5915 70.7909C58.2729 71.4513 58.6107 72.1234 59.6758 72.0708C60.0021 72.0591 60.0365 72.5383 59.7903 72.6435C60.025 73.2922 60.4201 73.7597 60.7637 74.3851C61.1817 75.1623 61.2218 75.9221 62.1322 76.2903C62.2639 76.3487 62.2982 76.5182 62.1665 76.6C62.1551 76.6117 62.1436 76.6117 62.1322 76.6234C62.1436 77.9909 62.6704 79.2884 62.6246 80.6618C62.5788 82.1637 62.2639 83.5897 62.2982 85.0975C62.2982 85.267 62.0864 85.3137 62.0062 85.1793C61.1874 83.9053 61.8688 82.3624 61.9833 80.9598C62.0062 80.7436 62.0062 80.5156 61.9948 80.2994C61.6054 80.4338 61.1531 80.4046 60.861 80.1416C60.6377 80.276 60.4259 80.3695 60.2312 80.4163C59.3895 80.6208 58.6165 80.3111 58.1584 79.5747C58.1355 79.5513 58.1699 79.5163 58.2042 79.528C58.7883 79.902 59.6185 80.054 60.277 79.8027C60.9927 79.528 61.1416 78.7098 61.7772 78.4117C61.7886 78.4 61.8001 78.4 61.823 78.4C61.7657 77.8273 61.7428 77.2604 61.8459 76.7111C61.4393 76.7578 61.0958 76.413 60.861 76.0039C60.8267 76.1383 60.7809 76.2786 60.695 76.413C60.088 77.3948 59.315 78.2715 58.4333 79.002C58.376 79.0488 58.2958 79.1072 58.2099 79.1072C58.1527 79.1072 58.1069 79.0721 58.0553 79.0487C57.2938 78.5812 56.5437 78.1254 55.7822 77.6578C55.6562 77.576 55.513 77.4883 55.4443 77.3598C55.4443 77.3481 55.4443 77.3364 55.4329 77.3247C55.3527 78.1896 55.0321 79.0488 54.3908 79.8436C54.3679 79.8786 54.3335 79.8786 54.2991 79.8903C54.2877 79.9488 54.2762 80.013 54.2419 80.0949C54.2075 80.4806 54.1961 80.8721 54.2304 81.2695C54.2419 81.9533 54.2762 82.6254 54.3106 83.3092C55.3069 84.2092 56.1715 85.7462 57.54 85.9215C57.8549 85.9683 61.5195 85.8982 61.4966 85.9683C61.5424 85.8222 61.6856 85.7404 61.8344 85.7754C61.8459 85.7754 61.8573 85.7871 61.8802 85.7871C62.1265 85.8456 62.2181 86.278 61.9604 86.3891C61.3993 86.6404 60.6263 86.4592 60.0308 86.4592C59.1089 86.4475 57.832 86.6988 56.9502 86.4125C56.4807 86.2547 55.9768 85.8514 55.513 85.343C55.8051 85.7404 56.0971 86.1202 56.4349 86.4592C57.2079 87.2365 58.2958 87.8034 58.7424 88.8553C58.7883 88.9489 58.6737 89.0716 58.5878 88.9781C57.0991 87.4703 54.5053 86.1378 54.0243 83.8469C53.9327 83.8118 53.8468 83.7417 53.8353 83.6072C53.6578 82.0351 53.8124 80.504 54.0128 78.9319C54.0357 78.739 54.3392 78.6572 54.3736 78.8851C54.3736 78.8968 54.3736 78.9085 54.385 78.9202C55.4844 76.9039 54.7572 74.8175 53.3773 73.0584C53.154 72.924 52.9192 72.8071 52.6959 72.6727C52.5184 72.5675 52.3466 72.4565 52.1577 72.398C52.1691 72.4448 52.1462 72.5032 52.0889 72.5208C50.9781 72.737 51.4705 74.0812 51.5622 74.7766C51.6423 75.402 51.774 76.0331 51.8084 76.6585C51.8198 76.9215 51.4247 76.9682 51.3617 76.7169C51.1842 76.0331 50.4227 72.0415 51.9 72.2695C52.0031 71.9597 52.3924 71.8136 52.7302 71.7435C53.091 71.6733 53.5261 71.5389 53.6063 71.1707C53.6865 70.7617 53.2799 70.4052 53.2799 70.0077C52.3065 70.7149 51.127 71.422 50.5773 72.4039C49.9933 73.4441 49.8387 76.7344 50.6918 77.8624C50.7834 77.7572 50.8693 77.6461 50.9724 77.5526C51.064 77.4591 51.1957 77.576 51.1499 77.687C50.1307 80.1358 50.5888 81.9183 50.9724 84.4021C51.1842 85.7579 51.253 87.0904 51.064 88.4521C51.4362 90.6612 52.4669 92.6482 53.028 94.8573C53.5777 97.0372 53.9785 99.3399 54.0701 101.596C54.2705 101.619 54.4652 101.619 54.6771 101.596C54.7458 101.584 54.7687 101.678 54.7229 101.73C53.9499 102.519 54.5969 101.742 53.5777 102.139C52.7703 101.818 52.0431 102.081 51.4247 102.928C51.3102 103.554 51.2014 104.161 51.0869 104.787C51.0182 105.722 51.19 106.645 51.2014 107.58C51.2129 108.638 51.0239 109.199 50.6174 110.122C50.125 111.204 49.5638 111.887 49.9131 113.144C50.228 114.272 51.001 115.289 51.8542 116.048C51.9343 116.048 52.0202 116.084 52.0088 116.183C52.0317 116.206 52.066 116.23 52.0889 116.253C52.3581 116.469 52.1577 116.791 51.9 116.867C51.8084 117.334 51.6996 117.802 51.5622 118.258C51.5622 118.316 51.5507 118.363 51.5163 118.427C51.2243 119.432 50.8636 120.42 50.5544 121.413V121.425C50.5658 121.484 50.5658 121.56 50.52 121.618C50.5086 121.63 50.5086 121.63 50.4971 121.641C49.9245 123.582 49.6325 125.598 49.0485 127.532C48.9683 127.795 48.5904 127.749 48.579 127.474C48.5217 126.288 48.745 125.089 49.0485 123.926C46.5921 126.434 41.4273 125.148 38.7476 127.404C38.4555 127.655 38.0204 127.246 38.3124 126.96C41.3815 124.008 46.071 125.727 49.2661 123.085C49.3119 122.915 49.3577 122.763 49.4092 122.606C48.5904 123.108 47.6285 123.371 46.6722 123.506C43.9581 123.88 41.2784 123.699 38.5758 124.394C38.5414 124.406 38.53 124.347 38.5643 124.336C40.2707 123.64 41.9025 123.231 43.7348 123.102C46.008 122.933 47.7945 122.647 49.7299 121.589C49.999 120.724 50.2566 119.824 50.5487 118.953C49.3806 119.467 48.1839 119.841 46.8955 119.987C44.588 120.25 42.5667 119.292 40.305 119.374C37.8486 119.473 36.211 121.7 34.3615 123.067C32.9816 124.084 31.5157 124.949 29.9239 125.563C29.8209 125.598 29.7693 125.446 29.8552 125.393C31.7276 124.172 33.6458 123.044 35.3349 121.554C36.1881 120.8 36.9725 119.672 37.9574 119.058C35.4666 114.611 32.7754 110.35 29.7293 106.265C25.8929 101.111 21.7702 97.4171 15.8382 94.91C15.8153 94.8983 15.8267 94.8749 15.8496 94.8749C21.5584 95.7398 26.0303 100.392 29.4487 104.816C32.7354 109.082 36.4572 113.752 38.5643 118.784C39.721 118.386 41.1983 118.772 42.3434 118.953C44.004 119.216 45.5499 119.274 47.073 119.076C47.0043 118.982 46.97 118.871 46.907 118.743C46.7638 118.433 46.615 118.129 46.426 117.854C46.0309 117.282 45.487 116.703 44.9144 116.329C44.8113 116.259 44.9029 116.101 45.006 116.16C45.6874 116.504 46.2485 116.878 46.7409 117.504C46.8669 117.673 47.0559 117.901 47.2219 118.152C47.2334 118.152 47.2334 118.152 47.2448 118.152C47.199 118.071 47.1647 117.995 47.1017 117.913C46.8784 117.539 46.6207 117.206 46.3516 116.873C45.8362 116.271 45.2293 115.768 44.6453 115.242C44.588 115.195 44.6453 115.084 44.714 115.108C45.2064 115.277 45.6358 115.552 46.0481 115.861C45.7675 115.528 45.4755 115.201 45.1491 114.903C44.4563 114.266 43.6719 113.606 42.7843 113.284C42.2003 113.068 41.6735 113.009 41.1696 112.612C41.1467 112.589 41.1582 112.53 41.1925 112.554C41.9083 112.84 42.6927 112.735 43.4142 112.998C44.2902 113.319 45.0976 113.898 45.8019 114.523C46.2485 114.921 46.7524 115.435 47.1818 116.008C47.0559 115.277 46.9929 114.523 46.9814 113.728C46.9814 113.635 47.1074 113.647 47.1246 113.728C47.2505 115.371 47.8747 117.001 48.6362 118.427C48.7049 118.561 48.6706 118.678 48.6133 118.766C49.3863 118.561 50.1593 118.287 50.9438 117.901C51.0984 117.504 51.2701 117.106 51.4591 116.738C50.2395 115.721 48.8366 113.787 48.7565 112.133C48.7336 111.619 48.8366 111.379 49.0027 110.935C49.4722 109.655 50.417 108.813 50.4628 107.265C50.5086 105.681 50.0276 103.39 51.127 102.022C51.5507 101.508 52.0031 101.374 52.4726 101.397C52.4382 101.35 52.4039 101.292 52.4039 101.204C52.066 98.0717 48.4587 95.8684 49.0313 92.5956C49.0428 92.5372 49.1344 92.5372 49.1458 92.5956C49.8272 95.8216 52.8562 97.8963 53.1597 101.204C53.1711 101.321 53.1368 101.409 53.0795 101.467C53.2055 101.491 53.3372 101.514 53.4803 101.549C52.9306 98.6444 52.7875 95.6755 51.8084 92.8528C51.2701 91.3158 50.3196 89.9015 50.4628 88.341C50.4742 86.0151 50.0906 83.8176 49.81 81.515C49.6669 80.3403 49.7757 79.2241 50.3712 78.289C49.0027 77.763 49.5638 74.8468 49.6783 73.7539C49.747 73.1402 49.8215 72.626 50.0505 72.1234L50.3425 71.6441C50.3025 71.65 49.9417 71.3753 49.81 71.2993ZM48.6305 73.187C47.7315 73.8591 46.97 74.2799 45.905 74.724C45.9164 74.7591 45.9279 74.7942 45.9279 74.8468C45.882 77.8332 45.8477 80.8312 45.4469 83.7826C46.3974 84.18 47.9033 84.8404 48.7679 84.8404C47.7487 85.1267 47.5597 85.0332 46.9184 84.9339C46.4375 84.8637 45.6988 84.5891 45.3495 84.443C45.2694 85.0215 45.1606 85.5943 45.0461 86.1553C44.1586 90.3982 41.8739 94.419 43.4886 98.7963C43.5001 98.8431 43.4314 98.8665 43.4085 98.8314C41.5933 95.7749 42.498 92.4612 43.4428 89.2528C44.8228 84.5657 45.1033 79.8728 45.1491 75.0045C44.9945 75.0513 44.8571 75.1097 44.714 75.1623C41.8567 77.465 36.9897 77.4533 33.6916 76.7227C33.6229 76.7111 33.6343 76.5883 33.703 76.5883C35.7987 76.6468 38.1177 76.6117 40.2821 76.1325C37.7398 76.4715 35.1803 76.4948 32.9701 76.3838C30.7256 76.2786 27.9599 75.402 26.2307 73.8766C24.908 72.7136 23.9747 70.9604 23.2246 69.1779C23.4136 69.7915 23.5052 70.4519 23.5395 71.048C23.9003 72.0298 24.2324 73.0409 24.5129 74.0695C24.616 74.3325 24.7019 74.6071 24.7592 74.8584C24.7706 74.9169 24.7706 74.9812 24.7592 75.0396C25.744 78.9494 26.2078 83.0637 26.3052 86.9501C26.3052 87.1196 26.0246 87.1664 26.0017 86.9852C25.8585 85.98 25.7097 84.9689 25.5436 83.9754C25.5207 84.3845 25.4864 84.7936 25.4176 85.1735C25.3604 85.5125 24.8794 85.3663 24.9252 85.0274C25.2401 82.83 24.7706 81.0592 24.1751 79.0312C24.0835 79.2358 23.9633 79.4403 23.8602 79.6449L23.6598 79.9897C23.0528 80.9481 22.2569 81.8014 21.3408 82.5319C21.0259 82.7832 20.5678 82.339 20.8827 82.0644C22.3715 80.8312 23.4937 79.2825 24.3583 77.5585C24.3469 77.4767 24.324 77.4007 24.3125 77.3189C24.2782 77.3189 24.2324 77.3305 24.198 77.3189C23.4479 77.1377 22.8295 76.7169 22.234 76.2377C21.9535 76.0098 21.6156 75.7585 21.3923 75.4604C21.169 75.1507 21.0774 74.7649 20.8541 74.4669C20.8083 74.3968 20.8884 74.3091 20.9572 74.3325C21.2835 74.4377 21.65 74.4552 21.9649 74.5955C22.234 74.7182 22.4573 74.9286 22.7036 75.1097C23.1387 75.4312 23.5567 75.6883 24.0377 75.8403C23.9919 75.624 23.9575 75.4078 23.9117 75.1916C23.8545 74.8701 23.6541 73.8941 23.6083 73.6545C23.5968 73.5961 23.5854 73.5201 23.5739 73.4617C23.3048 72.9357 22.9899 72.4331 22.589 71.9772C21.9191 71.2 21.043 70.7558 20.3044 70.072C20.293 70.0603 20.2815 70.037 20.2815 70.0253C20.2357 70.0136 20.1899 70.0136 20.1384 70.0019C19.9952 69.9668 19.9723 69.7155 20.1384 69.6922C21.4381 69.4876 21.7302 67.5123 21.0144 66.5889C20.6422 66.098 20.1269 65.9402 19.5371 65.8584C18.7527 65.7356 18.3175 66.0045 17.8766 66.6649C17.911 66.6999 17.9453 66.735 17.9797 66.7584C18.0369 66.8168 18.0598 66.8752 18.0598 66.9512C18.6782 66.2441 19.8406 66.0395 20.4361 66.8811C20.4819 66.9395 20.4705 67.0038 20.4476 67.0623C20.7968 67.6233 20.9629 68.4298 20.7968 68.8973C20.6193 69.4233 20.1154 69.7506 19.5543 69.8909C19.5429 70.1539 19.5543 70.3701 19.6459 70.6214C19.6574 70.6565 19.6574 70.6915 19.6574 70.7441C20.4189 70.9136 21.3293 71.761 20.9572 72.5792C20.9114 72.6727 20.8312 72.7136 20.7568 72.7136C20.6537 73.2162 20.2872 73.6604 19.7833 73.8416C19.6803 73.8766 19.5829 73.9 19.4799 73.9117C19.5028 73.9234 19.5257 73.9234 19.56 73.9351C19.6058 73.9584 19.6058 74.0403 19.56 74.0695C18.6095 74.5253 17.8652 74.7883 17.2525 75.7468C17.0521 76.0565 16.9032 76.3838 16.7486 76.7052C17.0406 76.3429 17.367 76.0098 17.7335 75.7117C18.5981 74.9929 19.5257 74.537 20.4705 75.3903C21.3122 76.1442 21.5813 77.3306 21.3351 78.4234C21.3007 78.5578 21.0889 78.5286 21.1003 78.3884C21.169 76.8163 20.4075 74.8409 18.2202 76.2201C17.6018 76.6176 17.0635 77.4533 16.7085 78.0786C16.0042 79.3 15.6092 81.2579 16.0157 82.7774C16.1817 83.1514 16.3077 83.4845 16.5425 83.8469C17.012 84.5423 17.2926 84.817 18.1457 84.817C19.2108 84.817 19.6345 84.3494 19.9608 83.2449C20.0639 82.8709 20.1154 82.5027 20.1384 82.117C19.9036 82.5962 19.6345 83.0637 19.2966 83.4378C19.2852 83.4962 19.2508 83.5429 19.1821 83.5722C18.9245 83.8352 18.621 84.0514 18.2431 84.2092C18.1629 84.2443 18.077 84.1274 18.1286 84.0514C18.2431 83.8585 18.3748 83.6774 18.5007 83.502C17.7965 83.2741 17.2582 82.602 17.0235 81.8598C16.8345 81.2988 16.8001 80.6734 16.9433 80.0949C17.012 79.8085 17.1322 79.5455 17.2468 79.265C17.5388 78.5578 17.659 77.9676 17.7506 77.202C17.7506 77.1786 17.7736 77.1669 17.7965 77.1903C17.8881 77.2896 17.9511 77.3831 17.9969 77.4883C18.2316 77.0208 18.5809 76.5883 19.0733 76.1909C19.1649 76.1208 19.3081 76.1442 19.4112 76.1909C20.4991 76.7812 20.1956 79.0078 19.9952 80.0306C19.9952 80.054 19.9723 80.054 19.9608 80.054C19.915 80.1767 19.8692 80.2819 19.7948 80.3929C19.6287 80.6442 19.3825 80.7786 19.1306 80.5741C18.8844 80.3812 18.7699 79.9838 18.7355 79.6858C18.7126 79.4929 18.7241 79.3117 18.7699 79.1247C18.8157 78.9085 18.9245 78.8384 19.039 78.6572C19.0733 78.5987 19.1821 78.6338 19.1535 78.7039C19.0619 78.9669 19.0848 79.8319 19.3768 80.0832C19.52 79.8786 19.5772 79.4695 19.6345 79.2942C19.6688 79.1715 19.7891 79.1364 19.8921 79.1715C19.8807 78.9436 19.8692 78.7039 19.8463 78.476C20.0467 77.8039 19.9036 77.4591 19.3997 77.4182C19.0848 77.2254 18.8958 77.3481 18.85 77.7922C18.3003 78.4293 18.3461 79.5221 18.5465 80.2877C18.6611 80.7319 19.0962 82.1345 19.9036 81.6553C20.0067 81.5968 20.1154 81.6202 20.1842 81.6903C20.1956 80.6442 20.1269 79.604 20.688 78.6806C20.814 78.476 21.1232 78.6104 21.0602 78.85C20.7338 80.3754 20.8713 82.1111 20.3674 83.5722C20.0754 84.4137 19.457 85.2144 18.5523 85.3956C16.846 85.7462 15.3572 83.6715 15.4488 82.0468C15.1912 81.328 15.111 80.6092 15.3343 79.6507C15.4488 79.1598 15.6149 78.6806 15.8382 78.2247C15.8382 77.1318 16.6341 75.7877 17.2181 74.9987C17.5903 74.4844 18.1915 73.9409 18.8328 73.8474C18.3404 73.6662 17.9568 73.2221 17.8938 72.6493C17.8251 71.8604 18.3633 70.9604 19.1363 70.7792C19.0218 70.5396 18.9703 70.2649 19.0791 70.0253C18.7641 70.0603 18.4607 70.0487 18.203 69.9902C17.1265 69.7506 17.4529 67.9973 17.8881 67.2434C17.8194 67.2668 17.7449 67.2668 17.6762 67.2201C17.6304 67.185 17.5731 67.1499 17.5216 67.0973C17.4987 66.9162 17.4644 66.735 17.4071 66.548C17.3155 66.285 17.2067 66.0337 17.1036 65.7824C17.1151 65.7707 17.1265 65.759 17.1265 65.7473C17.2525 65.8934 17.3613 66.0571 17.4644 66.2149C17.5674 66.3726 17.6877 66.4895 17.8136 66.6239C18.2832 65.0869 20.585 65.1863 21.4553 66.3259C21.5011 66.3843 21.5469 66.4603 21.5813 66.5421C21.4668 66.1973 21.3465 65.8584 21.232 65.5135C21.1976 65.4317 21.3122 65.3674 21.3751 65.4317C21.4668 65.5252 21.5527 65.6246 21.6328 65.7181C21.713 65.683 21.8218 65.7064 21.8676 65.7999C21.9935 66.0746 22.1252 66.3668 22.2398 66.6532C22.297 66.7584 22.3428 66.8694 22.3944 66.9863C22.2512 66.5772 22.1138 66.1856 21.9706 65.8116C21.9706 65.7999 21.9821 65.7999 21.9935 65.7999C23.3506 68.009 24.1808 70.75 25.87 72.7195C27.7424 74.9169 31.3382 75.7877 34.1096 75.7175C37.6768 75.624 41.3529 75.4078 44.7025 74.2799C44.7483 74.2448 44.7827 74.2214 44.8285 74.1864C44.9086 74.1279 45.006 74.1162 45.0862 74.1396C46.2771 73.7071 47.1933 73.2747 48.2812 72.5558C48.2812 72.5558 48.5732 72.4097 48.808 72.6493C49.0599 72.848 48.6305 73.187 48.6305 73.187ZM61.8516 79.1306C61.7199 79.3936 61.5252 79.6449 61.279 79.8494C61.5023 79.8611 61.7142 79.826 61.9261 79.715C61.9031 79.528 61.8802 79.3234 61.8516 79.1306ZM72.3186 79.6741C72.4503 79.4695 72.5533 79.2416 72.5992 79.002C72.6908 78.5695 72.645 78.1254 72.4617 77.7396C72.1754 78.3533 72.1182 79.0137 72.3186 79.6741ZM70.9329 77.1318C70.6982 77.4065 70.6294 77.8273 70.5206 78.2247C70.5435 78.2364 70.5665 78.2364 70.5894 78.2481C70.8356 78.3825 71.1161 78.4994 71.3624 78.6572C71.4196 78.4176 71.4654 78.1896 71.5055 78.0786C71.6315 77.7338 71.809 77.4182 72.0208 77.1202C71.7174 76.8279 71.3223 76.6994 70.9329 77.1318ZM70.7955 76.0624C69.553 76.4247 69.5759 77.9559 68.78 78.8091C69.2724 79.1598 69.7648 79.6156 70.3718 79.5514C70.4634 79.5397 70.5378 79.6449 70.5264 79.7325C70.5607 79.7208 70.8642 79.7091 70.91 79.7091C70.9444 79.7091 71.3108 79.7208 71.3108 79.7208C71.3108 79.7559 71.3452 79.5864 71.4482 79.3351C71.391 79.265 71.1333 79.2007 71.099 79.1656C70.91 79.0195 70.5378 78.926 70.326 78.8208H70.2916C70.1542 78.9903 69.9423 79.1072 69.6102 79.1072C69.4957 79.1072 69.4556 78.9611 69.553 78.891C70.3832 78.2656 70.0683 76.7929 71.0016 76.3137C70.9329 76.2903 70.8585 76.2552 70.8356 76.1675C70.8241 76.1325 70.8241 76.0974 70.8127 76.0624C70.8069 76.0507 70.8069 76.0624 70.7955 76.0624ZM67.9497 72.7896C67.9497 72.8013 67.9612 72.8013 67.9497 72.7896C68.8029 73.7597 69.1693 75.5013 69.3068 76.7344C69.3068 76.7461 69.3068 76.7461 69.3068 76.7578C69.6331 76.2085 70.0454 75.7877 70.7726 75.8812C70.6409 74.9929 70.784 73.6019 70.0225 73.1227C69.427 72.7312 68.654 72.848 67.9497 72.7896ZM64.0904 72.0824C64.4283 72.5032 64.7432 72.9006 65.0238 73.187C65.854 74.0753 66.3808 74.7007 66.6385 75.9338C66.942 77.3364 67.0965 78.7974 67.234 80.2643C67.4916 80.276 67.7493 80.4455 67.9841 80.5858C68.5223 80.9247 68.9689 81.328 69.5988 81.4273C69.5873 81.3923 69.5873 81.3455 69.5759 81.3105C68.0986 81.252 67.0965 78.926 68.2303 77.8332C68.4192 77.652 68.6655 77.8799 68.5567 78.0961V78.1078C68.7914 77.7689 68.9804 77.3656 69.1865 76.9916C69.0548 77.0383 68.8601 76.9916 68.7971 76.8338C68.3162 75.624 68.3849 73.8357 67.3084 72.9591C66.3923 72.1643 65.0982 72.6902 64.0904 72.0824ZM54.0358 73.5201C54.4308 73.976 54.7629 74.4786 54.9977 75.0221C55.639 75.3318 56.2746 75.6474 56.9159 75.9572C56.6582 76.2786 56.8243 76.7695 57.0819 77.0851C57.3396 77.4065 57.666 77.687 57.7748 78.0903C57.8435 78.3533 57.9179 78.739 58.1699 78.7039C58.4275 78.6689 58.3932 78.2715 58.2729 78.0202C57.9809 77.3948 57.7003 76.7753 57.4083 76.15C57.9924 75.3961 58.4962 74.5779 58.9085 73.7013C58.0897 73.713 57.3167 74.2916 57.0476 75.0805C56.0284 74.6013 55.0206 74.0695 54.0358 73.5201ZM43.689 65.5077C43.5745 65.4376 43.397 65.3265 43.3168 65.3382C43.0935 65.5428 42.8588 65.759 42.6355 65.9636L42.8817 66.1681C42.9275 66.1915 42.9618 66.2149 43.0076 66.2382C43.0363 65.9752 43.231 65.7356 43.689 65.5077ZM19.3367 82.4325C18.7527 82.3098 18.2488 81.4624 18.0255 80.8838C17.848 80.4514 17.7335 80.0306 17.6877 79.6098C17.5216 80.2234 17.43 80.8721 17.5846 81.4799C17.785 82.2455 18.2889 82.6663 18.8729 83.0403C19.0218 82.8475 19.1821 82.6312 19.3367 82.4325ZM19.2394 71.387C19.0275 71.4454 18.8557 71.6383 18.7241 71.8779C18.9588 72.0941 19.2165 72.287 19.5314 72.1409C19.7776 72.0357 20.0582 72.2636 19.915 72.5383C19.7375 72.8597 19.3539 72.924 19.039 72.7896C18.7928 72.6961 18.6668 72.5149 18.5695 72.2987C18.5351 72.4565 18.5351 72.5967 18.5695 72.7195C18.7355 73.2571 19.3768 73.3915 19.812 73.0935C20.2471 72.7838 20.2815 72.2285 20.2357 71.7376C19.9437 71.4922 19.4971 71.3285 19.2394 71.387ZM18.2717 69.4292C18.6324 69.8266 19.6402 69.4292 19.9895 69.1896C20.4819 68.8389 20.3903 68.2662 20.1784 67.7753C20.0009 67.3779 19.7833 67.1149 19.3367 67.0798C19.2795 67.0798 19.2222 67.0564 19.1821 67.033C18.9588 67.1032 18.7584 67.2376 18.5981 67.4421C18.2946 67.8103 17.8594 68.9967 18.2717 69.4292ZM24.5187 78.2422C24.4614 78.4234 24.3927 78.5929 24.3183 78.7565C24.4843 78.9845 24.6332 79.2358 24.7649 79.4871C24.6847 79.0838 24.5988 78.663 24.5187 78.2422ZM22.9154 68.3655C22.7895 68.0441 22.6692 67.7168 22.5547 67.3954C22.6463 67.6467 22.7322 67.898 22.7894 68.161C22.8353 68.2311 22.8811 68.2896 22.9154 68.3655ZM65.9514 88.7735C65.9056 88.7969 65.8941 88.8787 65.9514 88.8962C66.7015 89.0424 67.5775 88.8729 68.0814 88.2475C68.2933 87.9729 68.4307 87.6748 68.465 87.3125C68.4994 86.9268 68.4078 86.7105 68.2303 86.3891C68.173 86.2839 68.0413 86.3657 68.0528 86.4592C68.1215 86.9501 67.9211 87.6573 67.6062 88.0196C67.1653 88.5339 66.524 88.5573 65.9514 88.7735ZM68.9117 118.848C64.205 118.287 58.9543 119.906 54.4251 118.187C54.0987 118.065 53.9785 118.532 54.2018 118.713C54.4251 118.895 54.6713 119.035 54.9404 119.158C54.8717 119.134 54.7973 119.216 54.8717 119.274C55.4329 119.742 55.8795 120.151 56.5666 120.426C56.8815 120.549 57.2079 120.642 57.54 120.7C56.7785 120.94 55.9711 121.022 55.1752 120.893C54.929 120.858 54.8603 121.168 55.0836 121.267C56.3948 121.828 57.8206 121.735 58.9829 120.823C59.2291 120.63 59.1719 120.186 58.8169 120.186C57.5858 120.198 56.0914 119.812 55.0034 119.181C56.5151 119.865 58.5249 119.707 60.0709 119.672C63.0312 119.602 65.98 119.216 68.9288 119.058C69.0491 119.052 69.0376 118.86 68.9117 118.848ZM80.2261 113.103C77.3116 110.572 74.1967 108.591 70.6065 107.212C66.5469 105.652 62.0978 105.558 58.1069 103.828C58.0496 103.805 58.0153 103.898 58.0611 103.933C61.3878 105.757 65.2127 106.055 68.7456 107.253C72.7709 108.62 76.6245 110.754 80.0142 113.354C80.1803 113.477 80.3692 113.226 80.2261 113.103ZM56.7155 116.668C58.4962 117.363 60.4488 117.661 62.2181 117.171C62.4872 117.1 62.4185 116.715 62.1608 116.691C59.1891 116.463 56.7556 116.247 54.1445 114.582C53.8983 114.424 53.5949 114.739 53.7495 114.991C54.0415 115.482 54.4194 115.797 54.8259 116.06C54.2075 115.774 53.5949 115.388 53.091 115.102C53.0566 115.078 53.0223 115.137 53.0566 115.16C54.1445 115.967 55.0721 116.925 56.4521 117.019C56.6697 117.024 56.7498 116.843 56.7155 116.668ZM52.4669 77.8273C51.8828 77.8974 51.1671 77.8156 51.0984 76.9974C51.0984 76.9507 51.0296 76.9507 51.0296 76.9974C51.0526 78.1604 52.3867 78.6163 53.3028 78.1137C53.8983 77.7922 53.9441 77.2137 53.9957 76.5766C54.0529 75.7877 54.1732 75.1039 53.7266 74.4084C53.6807 74.3383 53.549 74.3851 53.5719 74.4669C53.7838 75.0688 53.5949 75.963 53.5032 76.565C53.3944 77.3481 53.2513 77.728 52.4669 77.8273ZM55.8738 91.2339C56.0627 91.1638 56.0398 90.8833 55.828 90.8716C54.7515 90.7898 53.7895 90.5619 52.8791 89.9365C52.8448 89.9131 52.799 89.9599 52.8219 89.995C53.383 91.0645 54.7286 91.7015 55.8738 91.2339ZM9.05871 112.91C8.89266 112.203 8.27427 111.578 7.94789 110.917C7.5528 110.128 7.17489 109.217 6.94013 108.352C6.90577 108.229 6.71682 108.258 6.72827 108.375C6.80843 109.298 6.94013 110.093 7.30086 110.952C7.60433 111.683 8.0166 112.764 8.74952 113.15C8.90984 113.237 9.10452 113.091 9.05871 112.91ZM16.6455 98.2587C15.4889 97.9957 13.9315 97.5282 12.7863 98.0191C12.7748 98.0308 12.7748 98.0424 12.7977 98.0424C13.4677 97.8262 14.2006 98.1886 14.8591 98.3171C15.4202 98.434 15.9928 98.5451 16.5539 98.6269C16.7715 98.6678 16.8746 98.3171 16.6455 98.2587ZM22.3314 85.6936C21.0316 87.0962 19.686 88.7385 18.7985 90.4567C18.4149 91.1989 17.3498 93.069 18.1171 93.7879C18.2717 93.9223 18.5122 93.8697 18.5637 93.6651C18.9359 92.2275 19.268 90.9417 20.0238 89.6385C20.7854 88.3294 21.6958 87.0962 22.423 85.7637C22.4573 85.717 22.3772 85.641 22.3314 85.6936ZM27.771 87.8735C26.6945 85.3663 26.8319 82.7657 26.3223 80.1533C26.3109 80.1182 26.2651 80.1299 26.2651 80.165C26.0647 82.7189 26.1391 85.8105 27.4732 88.0664C27.5992 88.2592 27.8683 88.0781 27.771 87.8735ZM23.4078 84.2793C23.8888 83.6774 24.1007 82.6371 23.9804 81.8832C23.9575 81.7137 23.7228 81.7371 23.677 81.8832C23.5739 82.2806 23.551 82.7131 23.4537 83.1046C23.3735 83.467 23.2533 83.8235 23.2303 84.1975C23.2303 84.3027 23.362 84.3494 23.4078 84.2793ZM10.5016 113.454C10.4215 113.36 10.3012 113.477 10.347 113.576C11.4121 115.914 13.5994 117.58 15.8726 118.591C16.3306 118.795 16.5768 118.147 16.1302 117.954C13.8341 116.966 12.1622 115.3 10.5016 113.454ZM11.9159 96.2775C12.208 96.1665 12.1049 95.7281 11.79 95.7983C6.08124 97.084 1.57495 103.308 1.26575 109.146C1.2543 109.328 1.52342 109.351 1.55777 109.182C2.85755 103.355 6.36754 98.4282 11.9159 96.2775ZM22.1081 96.1372C24.7878 96.6398 27.479 96.5346 30.1587 96.6866C30.1587 96.6165 30.1816 96.5288 30.2389 96.4587C30.989 95.547 31.1894 94.4307 30.9202 93.2794C30.9088 93.2327 30.9661 93.2093 30.989 93.2443C31.5615 94.1794 31.5615 95.319 31.1035 96.2892C31.5386 95.7749 31.8536 95.1613 31.9795 94.4892C32.0024 94.384 32.1799 94.4073 32.1799 94.5125C32.1685 94.6937 32.1456 94.8574 32.1227 95.0268C32.1914 95.0268 32.2773 95.0502 32.3231 95.097C32.7697 95.5762 32.6495 96.3593 32.2658 96.8502C32.7239 96.9087 33.1877 96.9846 33.6458 97.0781C34.1955 97.1833 33.9607 98.0249 33.411 97.9314C29.6434 97.236 25.641 97.7502 22.0565 96.1898C22.0279 96.1957 22.0623 96.1255 22.1081 96.1372ZM31.447 96.7859C31.5615 96.7976 31.6818 96.8093 31.7849 96.821C31.9853 96.4996 32.054 96.1372 31.9624 95.7515C31.8478 96.1255 31.6818 96.4587 31.447 96.7859ZM6.45915 109.257C6.24729 108.024 6.33318 106.75 6.6023 105.529C6.6252 105.424 6.48778 105.383 6.43625 105.482C5.64035 107.51 5.47429 110.567 6.98594 112.314C7.15199 112.495 7.44401 112.302 7.38102 112.074C7.11763 111.128 6.6252 110.263 6.45915 109.257ZM13.9143 117.568C12.2881 116.463 10.8337 115.096 9.51106 113.623C9.4309 113.541 9.28775 113.647 9.34501 113.758C9.57977 114.12 9.82599 114.476 10.1066 114.839C9.61413 114.406 9.11025 113.985 8.59492 113.606C8.54911 113.571 8.49185 113.641 8.52621 113.676C9.2992 114.874 10.2841 115.856 11.372 116.767C11.5266 116.89 11.6984 116.849 11.8186 116.744C13.7482 118.626 16.1817 120.174 18.621 120.391C18.7985 120.402 18.8443 120.151 18.7011 120.063C17.1322 119.123 15.4374 118.585 13.9143 117.568ZM4.27185 103.25C3.52176 103.764 3.24119 104.594 2.97207 105.43C2.77166 106.055 2.64569 106.686 2.47964 107.311C2.30214 107.972 2.01012 108.574 1.8727 109.228C1.82689 109.433 2.0731 109.602 2.22198 109.433C2.90336 108.714 2.99498 107.609 3.14385 106.651C3.35571 105.377 3.68208 104.407 4.31193 103.291C4.34056 103.273 4.30621 103.22 4.27185 103.25ZM8.20555 110.309C8.39451 111.116 8.67508 111.963 9.38509 112.431C9.59695 112.577 9.90042 112.285 9.74582 112.057C9.31065 111.443 8.74952 110.941 8.4804 110.222C8.41741 110.058 8.15975 110.128 8.20555 110.309Z" fill="#333333"/>
<g id="Group 215">
<path id="Vector_3" d="M106.118 47.3682C107.899 47.3682 109.33 47.8591 110.418 48.8351C111.506 49.811 112.05 51.0968 112.05 52.6981C112.05 54.0013 111.689 55.3163 110.974 56.6429C110.258 57.9462 109.285 59.0975 108.065 60.0968C106.868 61.102 105.54 61.8033 104.08 62.2124L103.484 61.1546C104.624 60.6111 105.54 59.7871 106.233 58.6767C106.948 57.5371 107.309 56.3156 107.309 55.0182C107.309 53.4754 106.897 52.2422 106.072 51.3188C105.248 50.3721 104.171 49.8929 102.849 49.8929C101.44 49.8929 100.112 50.4773 98.8634 51.6403C97.6438 52.7799 96.6589 54.3228 95.9145 56.2747C95.1988 58.1975 94.8381 60.2722 94.8381 62.4988C94.8381 64.778 95.1816 66.7943 95.8745 68.5592C96.5673 70.295 97.5235 71.6508 98.7431 72.6268C99.9914 73.6028 101.411 74.0937 103.003 74.0937C104.143 74.0937 105.288 73.8073 106.427 73.2404C107.595 72.6443 108.723 71.7911 109.811 70.6807L110.888 71.6976C109.64 73.3515 108.088 74.7366 106.227 75.847C104.395 76.934 102.471 77.4716 100.449 77.4716C98.2736 77.4716 96.3612 76.9574 94.7121 75.9288C93.0917 74.9002 91.8434 73.4742 90.9674 71.6567C90.0913 69.8099 89.6504 67.7118 89.6504 65.3508C89.6504 62.043 90.3833 59.0215 91.8434 56.2806C93.3322 53.5163 95.3248 51.3481 97.8155 49.776C100.358 48.1688 103.118 47.3682 106.118 47.3682Z" fill="#404040"/>
<path id="Vector_4" d="M120.557 66.9692H120.717C121.301 64.3393 122.257 61.914 123.586 59.6873C124.914 57.4665 126.546 56.3503 128.487 56.3503C129.392 56.3503 130.056 56.6367 130.48 57.2035C130.932 57.7704 131.213 58.4484 131.316 59.2373C131.419 59.9971 131.476 60.9322 131.476 62.0426V73.3102C131.476 73.6375 131.568 73.9472 131.757 74.2453C131.968 74.5141 132.26 74.6544 132.633 74.6544C133.268 74.6544 133.932 74.181 134.625 73.2342L135.301 74.0057C134.849 74.9291 134.196 75.7122 133.348 76.3609C132.501 77.0096 131.568 77.3369 130.56 77.3369C128.035 77.3369 126.775 75.9167 126.775 73.0647V62.4107C126.775 62.0601 126.706 61.7445 126.575 61.4757C126.466 61.1776 126.271 61.0257 125.979 61.0257C124.863 61.0257 123.895 61.9724 123.07 63.8718C122.274 65.7712 121.65 67.9686 121.198 70.4582C120.774 72.9537 120.562 74.97 120.562 76.5187L115.781 77.5765V41.1904L120.562 39.4839V66.9692H120.557Z" fill="#404040"/>
<path id="Vector_5" d="M142.626 52.4522L140.118 53.2645L138.486 44.767L144.023 42.856L142.626 52.4522ZM143.903 73.316C143.903 73.7251 143.995 74.0465 144.184 74.292C144.373 74.5374 144.625 74.6602 144.939 74.6602C145.604 74.6602 146.279 74.1868 146.972 73.24L147.688 74.0114C147.104 75.0926 146.348 75.9225 145.415 76.4894C144.51 77.0563 143.611 77.3427 142.706 77.3427C140.29 77.3427 139.082 75.9225 139.082 73.0705V58.4308L143.903 56.7243V73.316Z" fill="#404040"/>
<path id="Vector_6" d="M182.521 56.7241C183.93 56.7241 185.229 57.0105 186.426 57.5774C187.646 58.1443 188.55 59.0267 189.134 60.219L185.269 61.8437C184.897 61.1365 184.382 60.5579 183.718 60.0962C183.054 59.6345 182.349 59.4066 181.605 59.4066C179.824 59.4066 178.416 60.1664 177.379 61.6859C176.343 63.2054 175.827 65.0989 175.827 67.3781C175.827 69.4645 176.131 71.1886 176.744 72.5444C177.356 73.871 178.324 74.5373 179.652 74.5373C181.513 74.5373 182.784 73.6548 183.477 71.8957C184.17 70.1074 184.514 68.1671 184.514 66.0807V64.2924L189.175 62.5859V73.1581C189.175 73.5379 189.255 73.8769 189.415 74.1749C189.604 74.4438 189.867 74.584 190.211 74.584C190.875 74.584 191.551 74.1107 192.244 73.1581L192.999 73.9295C192.599 74.8763 191.963 75.6944 191.087 76.3724C190.24 77.0211 189.323 77.3484 188.339 77.3484C187.062 77.3484 186.134 76.9159 185.55 76.0451C184.966 75.1509 184.674 74.0113 184.674 72.6262H184.514C183.878 74.0931 183.025 75.2853 181.966 76.2029C180.901 77.0971 179.67 77.5471 178.261 77.5471C176.137 77.5471 174.488 76.7581 173.319 75.186C172.18 73.5847 171.607 71.51 171.607 68.9619C171.607 66.7937 172.06 64.7716 172.964 62.9015C173.892 61.0313 175.18 59.541 176.829 58.4306C178.501 57.291 180.397 56.7241 182.521 56.7241Z" fill="#404040"/>
<path id="Vector_7" d="M165.829 74.349C165.129 74.349 164.387 73.9061 163.594 73.0261C162.826 72.1173 161.944 70.9151 160.959 69.4254C160.741 69.1608 160.528 68.8502 160.311 68.5051C161.924 67.4352 162.676 66.722 163.972 65.3013C165.051 64.1221 165.549 63.5182 166.052 62.7417C166.545 61.9882 167.401 60.5157 167.712 59.7219C168.438 57.8698 169.081 54.9996 169.014 54.6947C166.887 55.3041 166.135 55.6492 164.397 56.2244C163.671 59.8884 162.505 63.1903 159.704 66.3251C158.599 67.556 158.485 67.8206 156.436 69.5002L156.286 69.598C156.255 69.6152 156.224 69.6382 156.193 69.6612L155.456 70.1386L155.466 64.1394V39.8433L151.172 41.5228V77.3458L155.466 76.3047C155.492 75.5052 155.549 74.5561 155.648 73.4632C155.767 72.3704 155.902 71.5421 156.047 70.9842L156.374 70.7829C156.592 70.9957 157.095 71.6341 157.889 72.704C158.921 74.142 159.849 75.2636 160.669 76.0631C161.509 76.8626 162.448 77.2653 163.485 77.2653C164.543 77.2653 165.554 76.9432 166.514 76.3047C167.479 75.6662 168.22 74.861 168.749 73.9004L168.101 73.1009C167.479 73.9349 166.721 74.349 165.829 74.349Z" fill="#404040"/>
</g>
</g>
</g>
</svg>
