<svg width="96" height="36" viewBox="0 0 96 36" fill="none" xmlns="http://www.w3.org/2000/svg">
<g id="Group">
<g id="Group_2">
<g id="Group_3">
<g id="Group_4">
<path id="Vector" d="M17.4731 30.6949C17.4621 30.6949 17.4475 30.6949 17.4365 30.6912L17.3926 30.6803C17.3048 30.6583 17.2207 30.64 17.1475 30.6327C16.8256 30.6071 16.4965 30.5779 16.1782 30.5486C15.2309 30.4645 14.2543 30.3767 13.2886 30.3438C11.767 30.2926 10.783 29.4551 10.3734 27.8605C10.0478 26.5987 10.271 25.5893 11.0427 24.8578C11.361 24.5579 11.756 24.3385 12.1437 24.13C12.2791 24.0568 12.4144 23.98 12.5461 23.9032C13.4422 23.3766 14.3311 22.8609 15.2748 22.316C15.6552 22.0965 16.0429 21.8698 16.4343 21.643L16.4452 21.6357L17.0085 21.4528C18.062 21.1456 19.0861 20.864 20.0737 20.597C21.0503 20.33 22.0599 20.0557 23.0877 19.7558L23.8266 19.54L23.1792 19.9533C23.0731 20.0191 22.8975 20.1069 22.7439 20.1837C22.6598 20.2276 22.5829 20.2642 22.5427 20.2861L22.5354 20.2898C22.0233 20.5275 21.6429 20.7104 21.2771 20.8859C20.937 21.0505 20.5858 21.2188 20.1286 21.4309C20.22 21.5589 20.3115 21.6869 20.3993 21.8112C20.6553 22.1697 20.9004 22.5098 21.1235 22.8755C21.8843 24.119 22.2172 25.4539 22.1184 26.8437C22.0965 27.1473 21.9648 27.3046 21.6539 27.3923C20.8126 27.6374 19.9859 27.8897 19.1117 28.1567C18.8447 28.2372 18.5777 28.3213 18.307 28.4018L19.2727 29.7001L19.1008 29.733C18.8191 29.7842 18.5741 29.8757 18.3107 29.9708C18.0839 30.0549 17.8498 30.139 17.5901 30.1975L17.645 30.4828C17.6596 30.5376 17.645 30.5962 17.6084 30.64C17.5645 30.6766 17.5206 30.6949 17.4731 30.6949ZM16.5294 21.8442C16.138 22.0709 15.7576 22.294 15.3772 22.5098C14.4371 23.0547 13.5483 23.5704 12.6522 24.0971C12.5168 24.1775 12.3778 24.2507 12.2425 24.3275C11.8694 24.5286 11.4853 24.7408 11.1891 25.0224C10.4721 25.7026 10.271 26.617 10.5819 27.8129C10.9659 29.3051 11.8804 30.0841 13.2923 30.1317C14.2616 30.1646 15.2418 30.2524 16.1929 30.3365C16.5111 30.3657 16.8366 30.395 17.1622 30.4206C17.2426 30.4279 17.3268 30.4462 17.4072 30.4645L17.3231 30.0329L17.4328 30.011C17.7181 29.9598 17.9632 29.8683 18.2266 29.7733C18.4351 29.6965 18.6472 29.6196 18.8813 29.5648L17.9376 28.2957L18.0876 28.2518C18.4095 28.1531 18.7277 28.058 19.0422 27.9592C19.9164 27.6922 20.7431 27.4362 21.588 27.1912C21.8112 27.1253 21.8807 27.0485 21.8953 26.8364C21.994 25.4942 21.6685 24.2031 20.9333 22.9999C20.7138 22.6415 20.4724 22.305 20.22 21.9502C20.1067 21.793 19.9896 21.6284 19.8726 21.4601L19.7994 21.3541L19.9164 21.2992C20.4322 21.0578 20.8126 20.875 21.182 20.6994C21.4417 20.5751 21.7087 20.4471 22.0233 20.3008C21.3832 20.48 20.7541 20.6519 20.1359 20.8201C19.1483 21.0907 18.1278 21.3687 17.078 21.6759L16.5294 21.8442Z" fill="#333333"/>
</g>
<g id="Group_5">
<path id="Vector_2" d="M15.413 25.7409C17.3333 24.9985 18.833 24.4133 20.7753 23.6635C20.629 23.4331 20.5156 23.2539 20.3949 23.0674C18.5002 23.9086 17.059 24.5779 15.1789 25.4117C15.274 25.5471 15.3362 25.6312 15.413 25.7409ZM11.7516 29.0544C12.3844 29.8079 13.5366 29.7201 14.0633 28.8899C14.7546 27.8 14.4876 26.2017 13.4744 25.3898C12.5563 24.6547 11.2798 25.0679 11.0566 26.1907C11.1115 26.0993 11.1517 26.0262 11.1956 25.953C11.6894 25.1667 12.4502 25.0277 13.1635 25.6239C13.7743 26.1322 13.9938 26.8344 14.0194 27.6061C14.0377 28.0889 13.9097 28.5424 13.6207 28.9301C13.2037 29.5043 12.5307 29.5372 11.7516 29.0544Z" fill="#333333"/>
</g>
</g>
<g id="Group_6">
<path id="Vector_3" d="M16.3541 20.986C16.2736 20.3569 16.2004 19.7644 16.1236 19.1573C15.82 19.1427 15.5384 19.128 15.2677 19.1134C15.2677 18.5429 15.2677 18.0235 15.2677 17.4786C15.8822 17.3871 16.4784 17.325 17.0637 17.2006C18.4829 16.9007 19.9021 16.5935 21.314 16.257C24.6389 15.4634 27.9089 14.4869 31.146 13.397C31.2887 13.3494 31.5118 13.3933 31.6398 13.4811C32.0312 13.7481 32.4006 14.0517 32.7664 14.3552C33.0005 14.5527 33.2455 14.6259 33.5565 14.582C34.5953 14.4284 35.6414 14.304 36.6838 14.1541C40.6525 13.5835 44.5626 12.7204 48.4252 11.6451C51.5489 10.7783 54.6397 9.80914 57.6574 8.62051C59.7277 7.80493 61.765 6.90156 63.8207 6.05672C64.0401 5.96529 64.3072 5.93969 64.5449 5.95432C65.7556 6.03112 66.9627 6.22496 68.1697 6.21033C70.1486 6.18473 72.1274 6.07866 74.099 5.91774C75.8583 5.77511 77.5994 5.44595 79.282 4.89003C79.7648 4.72911 80.3135 4.6267 80.5476 4.06347L80.5366 4.0781C80.6061 3.88061 80.7195 3.8038 80.9463 3.84038C81.7363 3.96473 82.5301 4.07445 83.3275 4.18051C84.7796 4.37435 86.2317 4.55356 87.6838 4.75105C88.3532 4.84249 89.0153 4.96318 89.681 5.06924C89.1543 5.36914 88.6202 5.61784 88.0789 5.83362C86.1256 6.61264 84.1797 7.40628 82.2119 8.14506C79.6112 9.12157 77.0032 10.0725 74.3806 10.9868C71.9226 11.8426 69.6146 12.9983 67.3541 14.2674C66.6737 14.6515 66.0775 15.2074 65.2618 15.3354C64.8302 15.4049 64.4023 15.5109 63.9706 15.5804C63.0782 15.7231 62.1857 15.8511 61.2895 15.9864C62.2588 16.0742 63.2208 16.0778 64.1865 16.0705C64.4096 16.0705 64.5157 16.129 64.5413 16.3814C64.5815 16.8056 64.6803 17.2226 64.7424 17.6432C65.1119 20.1557 65.4813 22.672 65.8471 25.1846C66.0007 26.2342 66.1507 27.2839 66.308 28.3555C64.9692 28.7944 63.6524 29.2223 62.3393 29.6538C62.3466 29.6758 62.3539 29.6977 62.3612 29.7197C63.8353 29.4088 65.313 29.0943 66.8237 28.7761C66.703 27.4924 66.5859 26.2233 66.4652 24.9468C66.5969 24.8993 66.6993 24.8591 66.8054 24.8262C69.3329 24.0179 71.8458 23.1657 74.216 21.9551C75.2658 21.4212 76.2936 20.847 77.1312 19.9948C77.6653 19.4535 77.8225 19.2268 76.8423 18.8793C76.1473 18.6306 75.3828 18.5063 74.644 18.4697C72.442 18.3563 70.2693 18.6891 68.1003 19.0147C67.3833 19.1207 66.6737 19.2597 65.9166 19.3914C65.869 18.9269 65.8288 18.5136 65.7886 18.1113C66.0739 18.0345 66.3043 17.9796 66.5347 17.9138C69.289 17.1019 71.9738 16.118 74.5708 14.8928C75.0902 14.6478 75.3901 14.2601 75.5108 13.7115C75.6535 13.0569 75.584 12.4241 75.328 11.7987C75.4121 11.7658 75.467 11.7402 75.5255 11.7183C77.0361 11.188 78.5614 10.6942 80.0538 10.1164C83.0166 8.97527 85.9757 7.82321 88.9128 6.61264C90.2516 6.06038 91.5318 5.36548 92.8413 4.74008C92.9729 4.67791 93.1193 4.63036 93.2656 4.6011C93.9093 4.46578 94.5568 4.34143 95.2042 4.21342C95.0579 4.16222 94.9262 4.17685 94.7908 4.19148C94.1215 4.26828 93.4411 4.45115 92.7791 4.40361C91.2831 4.29389 89.7944 4.06713 88.302 3.89889C86.1732 3.65385 84.048 3.40881 81.9156 3.1784C81.3011 3.11257 80.6939 3.07234 80.2513 2.56031C80.1891 2.48716 80.0904 2.44328 80.0062 2.38842C77.8262 0.962055 75.4194 0.738958 72.9248 1.11201C70.7119 1.44482 68.6635 2.29332 66.7103 3.36492C66.3592 3.55876 66.03 3.79649 65.6898 4.01227C65.7008 4.03056 65.7117 4.04884 65.7227 4.06713C66.5494 3.68311 67.3724 3.29909 68.2063 2.91141C68.1332 3.33932 68.071 3.69774 68.0015 4.09273C68.4916 3.96473 68.9488 3.84403 69.4061 3.727C70.2217 3.52585 70.2986 3.54048 70.7594 4.24268C71.0265 4.64865 71.3118 5.06193 71.3703 5.5703C71.3081 5.59224 71.2861 5.60687 71.2642 5.60687C69.0549 5.61784 66.8566 5.51909 64.6693 5.19359C64.3474 5.14604 63.9816 5.10581 63.6927 5.21553C62.2442 5.76413 60.825 6.3932 59.3729 6.94179C55.0969 8.55468 50.7296 9.88595 46.2964 10.9941C45.6636 11.1514 45.0308 11.2721 44.3688 11.2172C43.5933 11.1514 42.8179 11.1331 42.0388 11.1038C38.1433 10.9502 34.2478 10.8039 30.3559 10.6394C30.1255 10.6284 29.8694 10.5187 29.6866 10.3797C28.2893 9.32272 26.9103 8.24015 25.5167 7.17586C23.2782 5.46789 21.036 3.76357 18.7901 2.06291C18.1427 1.57283 17.5172 1.03886 16.8222 0.618266C15.692 -0.0875993 14.4484 -0.120515 13.1901 0.204987C11.193 0.720671 9.1995 1.25098 7.20602 1.77398C6.8622 1.86542 6.51471 1.94222 6.11601 2.03731C8.81909 6.15547 11.4856 10.2224 14.1557 14.293C14.1923 14.2711 14.2289 14.2491 14.2618 14.2272C11.9648 10.3321 9.66769 6.44074 7.35965 2.53471C7.43281 2.51276 7.48036 2.49814 7.52791 2.48716C9.52138 2.01537 11.5149 1.52528 13.5193 1.0864C14.5544 0.85965 15.5932 0.925482 16.4674 1.59477C18.5304 3.18206 20.5641 4.80957 22.6125 6.41514C24.7705 8.10848 26.9323 9.79086 29.094 11.4805C29.6244 11.8938 30.1547 12.3108 30.74 12.7716C25.4948 14.6112 20.2569 16.1692 14.8544 17.1019C14.8544 17.9357 14.8544 18.7294 14.8544 19.5523C15.1726 19.5523 15.4579 19.5523 15.7761 19.5523C15.831 19.9363 15.8822 20.302 15.9371 20.6897C15.7066 20.7117 15.5201 20.7373 15.3335 20.7482C12.945 20.9092 10.5565 21.0628 8.16801 21.2273C7.7364 21.2566 7.27918 21.2676 6.88049 21.4175C5.88558 21.7906 4.91627 22.2331 3.93965 22.6537C3.58485 22.8036 3.23371 22.9609 2.87891 23.1109C2.88622 23.1401 2.89354 23.1657 2.90085 23.195C4.12254 23.3705 5.34057 23.5497 6.56226 23.7253C6.56592 23.696 6.56958 23.6704 6.57323 23.6412C5.52712 23.4656 4.48466 23.2937 3.3471 23.1035C3.50438 23.0194 3.56656 22.9792 3.6324 22.9499C4.41882 22.6244 5.20158 22.2953 5.99531 21.9844C6.43424 21.8125 6.87683 21.5602 7.33405 21.5272C10.0847 21.348 12.839 21.22 15.5932 21.0774C15.7176 21.0701 15.842 21.0774 16.0505 21.0774L16.3541 20.986ZM48.1253 18.4295C48.1106 18.3856 48.0997 18.338 48.085 18.2942C40.1441 20.986 32.2031 23.6741 24.2621 26.3659C24.2694 26.3878 24.2804 26.4134 24.2877 26.4354C27.3017 25.8539 30.312 25.2687 33.337 24.6835C33.3443 24.7859 33.3516 24.8115 33.348 24.8335C32.7883 27.6569 32.2177 30.4767 31.6764 33.3039C31.6069 33.6659 31.4459 33.8269 31.1241 33.9439C30.0962 34.306 29.0794 34.6863 28.0589 35.0667C27.5212 35.2642 26.9871 35.4727 26.4531 35.6775C26.5226 35.7323 26.5702 35.736 26.6177 35.7213C28.2344 35.2386 29.8475 34.7448 31.4715 34.2767C31.7568 34.1926 31.8702 34.0499 31.9361 33.7793C32.2653 32.3529 32.6676 30.9412 32.9273 29.5039C33.0919 28.6042 33.3919 27.9641 34.3794 27.8471C34.4051 27.8435 34.427 27.8288 34.4489 27.8215C36.1864 27.1851 37.9238 26.5524 39.6978 25.9014C39.9758 26.4829 40.2538 27.0535 40.5172 27.6313C40.5537 27.7118 40.5391 27.8288 40.5208 27.9239C40.4038 28.5749 40.2831 29.2296 40.1441 29.8769C40.1258 29.9611 40.0014 30.0781 39.9136 30.0891C38.7249 30.2536 37.5324 30.3999 36.34 30.5535C35.5353 30.6559 34.7342 30.7583 33.9295 30.8608C34.5477 30.9046 35.1586 30.8754 35.7694 30.8498C37.2471 30.784 38.7212 30.7145 40.1989 30.6559C40.4367 30.6486 40.5098 30.5572 40.5537 30.3341C40.8829 28.7029 41.2377 27.0791 41.5596 25.4442C41.6145 25.159 41.7535 25.0493 42.0059 24.9798C42.6569 24.7969 43.3117 24.6287 43.9408 24.3873C44.6943 24.0983 45.4185 23.963 46.1464 24.4312C46.2159 24.4751 46.3147 24.4787 46.3952 24.508C46.9109 24.6981 47.423 24.8883 48.0375 25.1151C47.6425 25.2431 47.3535 25.3236 47.0755 25.4223C45.66 25.916 45.1771 26.6951 45.488 27.9568C45.6453 28.5896 46.044 28.9845 46.6841 29.0321C47.1889 29.0687 47.7083 29.0284 48.2131 28.9626C50.1992 28.7029 52.1854 28.4396 54.1642 28.136C55.1445 27.9861 56.0882 27.9093 57.0026 28.403C57.2623 28.5457 57.5623 28.6188 57.8439 28.7212C58.4109 28.9297 58.9815 29.1308 59.5521 29.3393C59.5631 29.3137 59.5704 29.2918 59.5813 29.2662C53.8533 26.8048 48.1253 24.3397 42.3314 21.8527C44.2993 20.6934 46.2123 19.5596 48.1253 18.4295Z" fill="white"/>
</g>
<g id="Group_7">
<path id="Vector_4" d="M16.0505 21.0794C15.842 21.0794 15.7176 21.0721 15.5932 21.0794C12.839 21.2221 10.0847 21.3501 7.33405 21.5293C6.88049 21.5585 6.43424 21.8109 5.99531 21.9865C5.20524 22.2973 4.41882 22.6301 3.6324 22.952C3.56656 22.9812 3.50438 23.0215 3.3471 23.1056C4.48466 23.2958 5.52712 23.4713 6.57323 23.6432C6.56958 23.6725 6.56592 23.6981 6.56226 23.7273C5.34057 23.5518 4.12254 23.3726 2.90085 23.197C2.89354 23.1678 2.88622 23.1422 2.87891 23.1129C3.23371 22.9593 3.58485 22.8057 3.93965 22.6557C4.91993 22.2388 5.88558 21.7926 6.88049 21.4196C7.27918 21.2696 7.7364 21.2586 8.16801 21.2294C10.5565 21.0611 12.945 20.9075 15.3335 20.7503C15.5201 20.7393 15.703 20.7137 15.9371 20.6918C15.8822 20.3041 15.831 19.942 15.7761 19.5543C15.4579 19.5543 15.1726 19.5543 14.8544 19.5543C14.8544 18.7314 14.8544 17.9378 14.8544 17.1039C20.2532 16.1713 25.4948 14.6133 30.74 12.7736C30.1511 12.3128 29.6244 11.8959 29.094 11.4826C26.9323 9.7929 24.7705 8.10687 22.6125 6.41719C20.5641 4.81162 18.5304 3.18045 16.4674 1.59682C15.5969 0.927529 14.5544 0.861697 13.5193 1.08845C11.5149 1.52733 9.52504 2.01741 7.52791 2.48921C7.48036 2.50018 7.43646 2.51481 7.35965 2.53676C9.66769 6.43913 11.9648 10.3305 14.2618 14.2256C14.2252 14.2475 14.1887 14.2695 14.1557 14.2914C11.4856 10.2208 8.81909 6.15386 6.11601 2.0357C6.51105 1.94061 6.8622 1.86381 7.20602 1.77237C9.20316 1.24937 11.193 0.719061 13.1901 0.19972C14.4484 -0.125783 15.692 -0.0928667 16.8222 0.594712C17.5136 1.01531 18.139 1.54928 18.7901 2.03936C21.0323 3.74002 23.2782 5.44434 25.5167 7.15231C26.9103 8.21659 28.2893 9.29917 29.6866 10.3561C29.8731 10.4951 30.1291 10.6048 30.3559 10.6158C34.2514 10.7804 38.1469 10.9267 42.0388 11.0803C42.8142 11.1095 43.5933 11.1278 44.3688 11.1937C45.0308 11.2485 45.6636 11.1278 46.2964 10.9706C50.7296 9.86239 55.0969 8.53113 59.3729 6.91824C60.825 6.36964 62.2442 5.74058 63.6927 5.19198C63.9816 5.08226 64.3511 5.12249 64.6693 5.17004C66.8566 5.49554 69.0549 5.59429 71.2642 5.58331C71.2861 5.58331 71.3118 5.56869 71.3703 5.54674C71.3081 5.04203 71.0265 4.62875 70.7594 4.21913C70.2986 3.51692 70.2217 3.50229 69.4061 3.70344C68.9488 3.81682 68.4916 3.94117 68.0015 4.06918C68.071 3.67419 68.1332 3.31577 68.2063 2.88786C67.3724 3.27554 66.5457 3.65956 65.7227 4.04358C65.7117 4.02529 65.7008 4.007 65.6898 3.98872C66.03 3.77293 66.3592 3.53521 66.7103 3.34137C68.6635 2.26977 70.7082 1.42127 72.9248 1.08845C75.4194 0.711747 77.8262 0.938501 80.0062 2.36486C80.0904 2.41972 80.1855 2.46361 80.2513 2.53676C80.6975 3.04513 81.3011 3.08901 81.9156 3.15484C84.0444 3.3816 86.1732 3.6303 88.302 3.87534C89.7944 4.04723 91.2831 4.27399 92.7791 4.38005C93.4411 4.4276 94.1178 4.24473 94.7908 4.16793C94.9262 4.1533 95.0579 4.13867 95.2042 4.18987C94.5568 4.31788 93.913 4.44223 93.2656 4.57755C93.1193 4.60681 92.9729 4.65435 92.8413 4.71653C91.5318 5.34193 90.2552 6.03682 88.9128 6.58908C85.9757 7.796 83.0166 8.95172 80.0538 10.0928C78.5614 10.667 77.0361 11.1607 75.5255 11.6947C75.467 11.7167 75.4121 11.7386 75.328 11.7752C75.584 12.4006 75.6535 13.0333 75.5108 13.688C75.3901 14.2366 75.0902 14.6242 74.5708 14.8693C71.9738 16.0945 69.2854 17.0783 66.5347 17.8902C66.308 17.9561 66.0775 18.0146 65.7886 18.0877C65.8288 18.4937 65.869 18.907 65.9166 19.3678C66.6737 19.2361 67.3833 19.1008 68.1003 18.9911C70.2693 18.6656 72.442 18.3364 74.644 18.4462C75.3828 18.4827 76.1473 18.6071 76.8423 18.8558C77.8225 19.2069 77.6616 19.43 77.1312 19.9713C76.2936 20.8198 75.2658 21.394 74.216 21.9316C71.8458 23.1422 69.3329 23.9943 66.8054 24.8026C66.6993 24.8355 66.5969 24.8757 66.4652 24.9233C66.5859 26.1997 66.703 27.4688 66.8237 28.7525C65.313 29.0707 63.839 29.3852 62.3612 29.6961C62.3539 29.6742 62.3466 29.6522 62.3393 29.6303C63.6561 29.1987 64.9692 28.7708 66.308 28.3319C66.1543 27.264 66.0007 26.2107 65.8471 25.161C65.4776 22.6484 65.1119 20.1322 64.7424 17.6196C64.6803 17.199 64.5815 16.7821 64.5413 16.3578C64.5157 16.1055 64.4132 16.0469 64.1865 16.0469C63.2208 16.0543 62.2552 16.0506 61.2895 15.9628C62.182 15.8275 63.0782 15.6995 63.9706 15.5569C64.4023 15.4874 64.8302 15.3777 65.2618 15.3118C66.0775 15.1838 66.6701 14.6279 67.3541 14.2439C69.6146 12.9748 71.9226 11.8191 74.3806 10.9633C77.0032 10.0489 79.6112 9.09801 82.2119 8.1215C84.1797 7.38272 86.1256 6.58908 88.0789 5.81007C88.6239 5.59429 89.1543 5.34559 89.681 5.04569C89.0153 4.93962 88.3495 4.81893 87.6838 4.7275C86.2317 4.53 84.7796 4.35079 83.3275 4.15695C82.5337 4.05089 81.74 3.94483 80.9463 3.81682C80.7195 3.78025 80.6061 3.86071 80.5366 4.05455C80.5256 3.95946 80.5476 3.82779 80.4927 3.77659C80.1452 3.4584 79.838 3.07073 79.3332 2.99026C78.7041 2.88786 78.0786 2.74157 77.4458 2.70499C75.7742 2.6099 74.1172 2.79643 72.4713 3.08901C71.8641 3.19873 71.2605 3.31211 70.7338 3.4072C71.074 4.05821 71.4105 4.66532 71.7104 5.29073C71.8092 5.49554 71.908 5.56137 72.1274 5.55406C74.3221 5.48457 76.5058 5.30901 78.6565 4.84819C79.3332 4.70555 80.0391 4.58486 80.5476 4.03626C80.3171 4.59949 79.7648 4.70555 79.282 4.86282C77.5994 5.41873 75.8583 5.74789 74.099 5.89053C72.1274 6.05145 70.1486 6.15752 68.1697 6.18312C66.9627 6.19775 65.752 6.00757 64.5449 5.9271C64.3035 5.91247 64.0401 5.93808 63.8207 6.02951C61.7614 6.87801 59.7277 7.77771 57.6574 8.5933C54.6397 9.78193 51.5489 10.7475 48.4252 11.6179C44.5626 12.6932 40.6562 13.5563 36.6838 14.1268C35.6414 14.2768 34.5989 14.4011 33.5565 14.5548C33.2455 14.6023 33.0041 14.5255 32.7664 14.328C32.4006 14.0244 32.0312 13.7209 31.6398 13.4539C31.5118 13.3661 31.2887 13.3222 31.146 13.3698C27.9089 14.4597 24.6389 15.4362 21.314 16.2298C19.9021 16.5663 18.4865 16.8772 17.0637 17.1734C16.4784 17.2978 15.8822 17.3563 15.2677 17.4514C15.2677 17.9963 15.2677 18.5193 15.2677 19.0862C15.5384 19.1008 15.8164 19.1154 16.1236 19.1301C16.2004 19.7372 16.2809 20.4284 16.3614 21.0575L16.0505 21.0794ZM77.08 19.4153C76.9337 19.3422 76.835 19.2617 76.7252 19.2435C76.012 19.1264 75.2987 18.9362 74.5854 18.9253C72.7419 18.8997 70.9167 19.1593 69.1061 19.4848C68.0783 19.6714 67.0541 19.8835 65.9934 20.092C66.0885 21.1014 66.1799 22.0559 66.2714 23.0068C67.804 23.0251 75.8583 20.3626 77.08 19.4153ZM42.7118 11.8081C42.7081 11.7752 42.7008 11.7423 42.6972 11.7093C38.5383 11.3729 34.3794 11.0364 30.2169 10.6963C31.2521 11.574 32.3092 12.3896 33.3772 13.1906C33.4687 13.2601 33.6369 13.2747 33.7613 13.2564C35.5572 13.004 37.3532 12.7627 39.1418 12.4774C40.3379 12.2872 41.523 12.0349 42.7118 11.8081ZM67.6942 16.5955C67.7198 16.6431 67.7454 16.6906 67.7747 16.7382C68.0015 16.7382 68.2392 16.7784 68.455 16.7309C70.5327 16.2774 72.4749 15.4545 74.3696 14.5145C75.1853 14.1086 75.4157 12.8358 74.8159 12.0751C74.1538 12.4408 73.4771 12.7883 72.8261 13.1833C71.352 14.0756 69.8816 14.979 68.4258 15.9007C68.1441 16.0799 67.9356 16.3615 67.6942 16.5955ZM69.1866 2.5331C69.5816 2.76717 69.9438 2.99758 70.3242 3.19873C70.4632 3.27188 70.646 3.31943 70.796 3.29382C71.7946 3.12193 72.7822 2.89883 73.7844 2.75254C75.2841 2.5331 76.7911 2.36852 78.3127 2.5587C78.4114 2.56967 78.5102 2.58796 78.609 2.59893C78.6931 2.6099 78.7772 2.61722 78.8614 2.62453C75.6389 0.916557 72.4127 1.43224 69.1866 2.5331ZM69.9767 3.49498C69.9913 3.45109 70.0023 3.41086 70.0169 3.36697C69.706 3.21702 69.4061 3.03415 69.0805 2.93906C68.9488 2.89883 68.6928 3.00489 68.6123 3.12193C68.4843 3.31211 68.4551 3.56812 68.3599 3.88265C68.9744 3.73636 69.4756 3.61567 69.9767 3.49498Z" fill="#333333"/>
</g>
<g id="Group_8">
<path id="Vector_5" d="M48.1268 18.428C46.2138 19.5582 44.3008 20.6919 42.333 21.855C48.1232 24.3456 53.8512 26.807 59.5829 29.2684C59.5719 29.294 59.5646 29.3159 59.5536 29.3415C58.983 29.1367 58.4161 28.9319 57.8455 28.7234C57.5638 28.621 57.2675 28.5442 57.0042 28.4053C56.0897 27.9079 55.146 27.9883 54.1658 28.1383C52.1869 28.4418 50.2008 28.7052 48.2146 28.9648C47.7098 29.0307 47.1904 29.0746 46.6857 29.0343C46.0456 28.9868 45.6469 28.5918 45.4896 27.9591C45.1787 26.6973 45.6615 25.9183 47.0771 25.4245C47.3587 25.3258 47.644 25.2417 48.039 25.1173C47.4245 24.8906 46.9125 24.6967 46.3967 24.5102C46.3162 24.4809 46.2175 24.4773 46.148 24.4334C45.4201 23.9653 44.6959 24.0969 43.9424 24.3895C43.3132 24.6309 42.6548 24.7991 42.0074 24.982C41.755 25.0551 41.616 25.1612 41.5612 25.4465C41.2393 27.0776 40.8845 28.7052 40.5553 30.3363C40.5114 30.5594 40.4382 30.6509 40.2005 30.6582C38.7228 30.713 37.2487 30.7862 35.771 30.852C35.1601 30.8776 34.5456 30.9069 33.9311 30.863C34.7358 30.7606 35.5369 30.6582 36.3416 30.5558C37.534 30.4022 38.7228 30.2559 39.9152 30.0913C40.003 30.0803 40.1273 29.9669 40.1456 29.8792C40.2846 29.2318 40.4017 28.5772 40.5224 27.9262C40.5407 27.8311 40.5553 27.714 40.5187 27.6336C40.2553 27.0557 39.9774 26.4852 39.6994 25.9036C37.9254 26.5547 36.1879 27.1874 34.4505 27.8237C34.4286 27.8311 34.403 27.8457 34.381 27.8493C33.3934 27.9627 33.0935 28.6064 32.9289 29.5061C32.6692 30.9435 32.2668 32.3552 31.9376 33.7815C31.8754 34.0522 31.7621 34.1985 31.4731 34.2789C29.8527 34.7471 28.236 35.2408 26.6193 35.7236C26.5754 35.7382 26.5242 35.7346 26.4547 35.6797C26.9887 35.4749 27.5227 35.2701 28.0604 35.0689C29.0809 34.6922 30.0978 34.3082 31.1256 33.9461C31.4511 33.8327 31.6084 33.6682 31.6779 33.3061C32.2193 30.479 32.7899 27.6592 33.3495 24.8357C33.3532 24.8138 33.3459 24.7882 33.3385 24.6858C30.3172 25.2709 27.3033 25.8524 24.2893 26.4376C24.282 26.4157 24.271 26.3901 24.2637 26.3681C32.2046 23.6763 40.1456 20.9882 48.0866 18.2964C48.1012 18.3366 48.1122 18.3805 48.1268 18.428ZM46.0858 28.6503C46.5174 28.6869 46.6747 28.4565 46.7735 28.1931C47.0149 27.5604 46.9271 26.9533 46.4991 26.4303C46.3931 26.3023 46.1736 26.2694 46.0053 26.1962C45.9907 26.2291 45.9797 26.2621 45.9651 26.2913C46.3784 26.3316 46.6125 26.6424 46.6893 27.2605C46.7844 28.0139 46.6125 28.4528 46.0858 28.6503Z" fill="#333333"/>
</g>
<g id="Group_9">
<path id="Vector_6" d="M77.0806 19.4155C75.8589 20.3627 67.8045 23.0253 66.2682 23.0106C66.1768 22.0597 66.0853 21.1052 65.9902 20.0957C67.051 19.8873 68.0752 19.6715 69.103 19.4886C70.9136 19.1631 72.7388 18.9071 74.5823 18.929C75.2956 18.94 76.0088 19.1265 76.7221 19.2472C76.8318 19.2619 76.9343 19.3423 77.0806 19.4155Z" fill="white"/>
</g>
<g id="Group_10">
<path id="Vector_7" d="M80.5481 4.06213C80.0397 4.61438 79.3301 4.73142 78.657 4.87406C76.5063 5.33488 74.3226 5.51043 72.128 5.57992C71.9085 5.58724 71.8097 5.51775 71.711 5.31659C71.4111 4.69119 71.0745 4.08407 70.7344 3.43307C71.2611 3.33798 71.8683 3.2246 72.4718 3.11488C74.1178 2.81863 75.7747 2.63577 77.4463 2.73086C78.0791 2.76743 78.7046 2.91372 79.3337 3.01613C79.8385 3.10025 80.1457 3.48427 80.4932 3.80246C80.5481 3.85366 80.5261 3.98532 80.5371 4.08041C80.5371 4.07676 80.5481 4.06213 80.5481 4.06213Z" fill="white"/>
</g>
<g id="Group_11">
<path id="Vector_8" d="M42.7136 11.8086C41.5248 12.0354 40.3397 12.2877 39.1436 12.4779C37.355 12.7632 35.5554 13.0046 33.7631 13.2569C33.6387 13.2752 33.4741 13.2606 33.379 13.1911C32.311 12.3901 31.2539 11.5745 30.2188 10.6968C34.3776 11.0333 38.5365 11.3697 42.699 11.7099C42.7026 11.7428 42.7099 11.7757 42.7136 11.8086Z" fill="white"/>
</g>
<g id="Group_12">
<path id="Vector_9" d="M67.6953 16.5954C67.9367 16.3614 68.1452 16.0797 68.4232 15.9042C69.879 14.9825 71.3457 14.0792 72.8235 13.1868C73.4746 12.7918 74.1512 12.4443 74.8133 12.0786C75.4132 12.8393 75.1827 14.1121 74.367 14.5181C72.4723 15.458 70.5301 16.2772 68.4525 16.7344C68.2367 16.7819 67.9989 16.7417 67.7721 16.7417C67.7465 16.6905 67.7209 16.643 67.6953 16.5954Z" fill="white"/>
</g>
<g id="Group_13">
<path id="Vector_10" d="M69.1875 2.53333C72.4136 1.43613 75.6398 0.920446 78.8623 2.6211C78.7781 2.61379 78.694 2.60648 78.6099 2.5955C78.5111 2.58453 78.4123 2.5699 78.3136 2.55527C76.792 2.36509 75.285 2.52967 73.7853 2.74911C72.7831 2.8954 71.7955 3.12216 70.7969 3.2904C70.6469 3.316 70.4641 3.26479 70.3251 3.19531C69.9483 2.99781 69.5825 2.7674 69.1875 2.53333Z" fill="white"/>
</g>
<g id="Group_14">
<path id="Vector_11" d="M69.978 3.4938C69.4769 3.61449 68.9758 3.73519 68.3613 3.88148C68.4564 3.57061 68.4857 3.31094 68.6137 3.12075C68.6942 3.00372 68.9502 2.89766 69.0819 2.93789C69.4074 3.03298 69.7074 3.21584 70.0183 3.3658C70.0037 3.40968 69.9927 3.44991 69.978 3.4938Z" fill="white"/>
</g>
<g id="Group_15">
<path id="Vector_12" d="M46.0858 28.6494C46.6089 28.4555 46.7844 28.013 46.693 27.2596C46.6162 26.6452 46.3821 26.3306 45.9688 26.2904C45.9834 26.2575 45.9944 26.2246 46.009 26.1953C46.1772 26.2721 46.3967 26.3014 46.5028 26.4294C46.9307 26.9524 47.0185 27.5558 46.7771 28.1922C46.6747 28.4555 46.5174 28.6823 46.0858 28.6494Z" fill="white"/>
</g>
<g id="Group_16">
<path id="Vector_13" d="M17.5247 30.0981C19.5108 31.989 21.4494 33.8396 23.388 35.6865C23.3734 35.7048 23.3551 35.7231 23.3405 35.7414C22.8357 35.3025 22.331 34.8636 21.8298 34.4211C20.4692 33.2178 19.1158 32.0073 17.7515 30.8113C17.6527 30.7272 17.4808 30.6979 17.3418 30.6943L17.5247 30.0981Z" fill="#333333"/>
</g>
<g id="Group_17">
<path id="Vector_14" d="M19.993 21.462L18.5957 21.1219L23.5812 19.6479L19.993 21.462Z" fill="#333333"/>
</g>
</g>
<g id="Group_18">
<g id="Group_19">
<path id="Vector_15" d="M66.5013 24.9363C66.633 24.8888 66.7354 24.8485 66.8415 24.8156C69.369 24.0073 71.8819 23.1552 74.2521 21.9446C75.3019 21.4106 76.3297 20.8364 77.1673 19.9843C77.7013 19.443 77.8586 19.2162 76.8784 18.8688C76.1834 18.6201 75.4189 18.4957 74.68 18.4592C72.4781 18.3458 70.3054 18.6786 68.1363 19.0041C67.4194 19.1102 66.7098 19.2491 65.9527 19.3808L66.5013 24.9363ZM48.0773 25.1155C47.6822 25.2435 47.3933 25.324 47.1153 25.4227C45.6997 25.9165 45.2169 26.6955 45.5278 27.9573C45.6851 28.59 46.0838 28.985 46.7239 29.0325C47.2287 29.0691 47.7481 29.0289 48.2528 28.963C50.239 28.7034 52.2252 28.44 54.204 28.1365" fill="white"/>
</g>
<g id="Group_20">
<path id="Vector_16" d="M65.9473 19.3782C66.7044 19.2466 67.414 19.1113 68.1309 19.0015C70.3 18.676 72.4727 18.3469 74.6747 18.4566C75.4135 18.4932 76.178 18.6175 76.873 18.8662C77.8532 19.2173 77.6923 19.4404 77.1619 19.9817C76.3243 20.8302 75.2965 21.4044 74.2467 21.942C71.8765 23.1526 69.3636 24.0048 66.8361 24.813C66.73 24.8459 66.6276 24.8862 66.4959 24.9337L65.9473 19.3782ZM77.1144 19.4148C76.9681 19.3417 76.8693 19.2612 76.7596 19.2429C76.0463 19.1259 75.333 18.9357 74.6198 18.9247C72.7763 18.8991 70.9511 19.1588 69.1405 19.4843C68.1127 19.6708 67.0885 19.8829 66.0277 20.0914C66.1228 21.1008 66.2143 22.0554 66.3057 23.0063C67.8383 23.0246 75.8927 20.3621 77.1144 19.4148Z" fill="#E30D16"/>
</g>
<g id="Group_21">
<path id="Vector_17" d="M54.8914 28.0565C54.4891 28.0565 54.6171 28.0711 54.2001 28.1333C52.2213 28.4368 50.2351 28.7001 48.2489 28.9598C47.7442 29.0257 47.2248 29.0695 46.72 29.0293C46.0799 28.9818 45.6812 28.5868 45.5239 27.9541C45.213 26.6923 45.6958 25.9133 47.1114 25.4195C47.393 25.3208 47.6783 25.2367 48.0734 25.1123L54.8914 28.0565ZM46.1201 28.6489C46.5517 28.6855 46.709 28.4551 46.8078 28.1918C47.0492 27.5591 46.9614 26.9519 46.5335 26.4289C46.4274 26.3009 46.2079 26.268 46.0397 26.1949C46.025 26.2278 46.0141 26.2607 45.9994 26.29C46.4127 26.3302 46.6468 26.6411 46.7237 27.2592C46.8188 28.0126 46.6468 28.4515 46.1201 28.6489Z" fill="#E30D16"/>
</g>
<g id="Group_22">
<path id="Vector_18" d="M77.1157 19.414C75.894 20.3613 67.8396 23.0238 66.3034 23.0092C66.2119 22.0583 66.1205 21.1037 66.0254 20.0943C67.0861 19.8858 68.1103 19.67 69.1381 19.4872C70.9487 19.1617 72.7739 18.9056 74.6174 18.9276C75.3307 18.9386 76.0439 19.1251 76.7572 19.2458C76.8669 19.2604 76.9693 19.3409 77.1157 19.414Z" fill="white"/>
</g>
<g id="Group_23">
<path id="Vector_19" d="M46.119 28.6518C46.6421 28.458 46.8176 28.0154 46.7262 27.262C46.6494 26.6476 46.4153 26.3331 46.002 26.2928C46.0166 26.2599 46.0276 26.227 46.0422 26.1978C46.2104 26.2746 46.4299 26.3038 46.536 26.4318C46.9639 26.9548 47.0517 27.5583 46.8103 28.1946C46.7079 28.458 46.5506 28.6847 46.119 28.6518Z" fill="white"/>
</g>
</g>
<g id="Group_24">
<path id="Vector_20" d="M8.92124 25.8661C8.95051 25.515 8.8042 27.2559 9.2797 28.5725C9.75521 29.8892 10.9988 30.9864 10.9988 30.9864L2.71405 35.4264C2.71405 35.4264 4.13325 33.4112 3.72359 32.5078C3.41268 31.6337 1.30582 31.4655 1.30582 31.4655C1.30582 31.4655 2.89328 30.1781 2.52019 29.1285C2.22757 28.0495 0 27.7899 0 27.7899L8.92124 25.8661Z" fill="#E30D16"/>
</g>
</g>
</svg>
